# Blender 4.0.0
# www.blender.org
mtllib m1a2_m2_coax.mtl
o mg
v 0.566838 0.320518 0.257575
v 0.129338 0.320518 0.257575
v 0.129338 0.070518 0.507575
v 0.566838 0.070518 0.507575
v 0.129338 0.320518 0.507575
v 0.129338 0.070518 0.257575
v 0.566838 0.320518 0.507575
v 0.566838 0.070518 0.257575
v 0.113713 0.039268 0.241950
v 0.582463 0.101768 0.523200
v 0.582463 0.039268 0.523200
v 0.113713 0.101768 0.241950
v 0.113713 0.039268 0.523200
v 0.582463 0.101768 0.241950
v 0.582463 0.039268 0.241950
v 0.176213 0.304893 0.241950
v 0.176213 0.304893 0.523200
v 0.113713 0.304893 0.241950
v 0.113713 0.304893 0.523200
v 0.176213 0.101768 0.523200
v 0.113713 0.101768 0.523200
v 0.176213 0.101768 0.241950
v 0.061821 0.355832 0.499763
v 0.061821 0.355832 0.268513
v 0.560603 0.320954 0.268512
v 0.560603 0.320954 0.499762
v 0.057461 0.293484 0.268513
v 0.057461 0.293484 0.499763
v 0.556243 0.258606 0.499762
v 0.556243 0.258606 0.268512
v -0.066530 0.293844 0.945075
v 0.066052 0.293844 0.945075
v -0.000239 0.360136 0.945075
v -0.066530 0.293844 0.570075
v 0.066052 0.293844 0.570075
v -0.000239 0.360136 0.570075
v -0.000239 0.227553 0.945075
v -0.000239 0.227553 0.570075
v -0.000239 0.240811 1.070075
v -0.000239 0.346877 1.070075
v 0.052794 0.293844 1.070075
v -0.053272 0.293844 0.945075
v 0.052794 0.293844 0.945075
v -0.000239 0.346877 0.945075
v -0.000239 0.240811 0.945075
v -0.053272 0.293844 1.070075
v 0.043955 0.293844 1.070075
v -0.044433 0.293844 1.070075
v -0.000239 0.249650 1.070075
v -0.000239 0.338038 1.070075
v -0.000239 0.249650 2.007575
v -0.044433 0.293844 2.007575
v 0.051213 0.320518 0.601325
v 0.051213 0.383018 0.570075
v 0.051213 0.383018 0.601325
v -0.055037 0.320518 0.601325
v 0.051213 0.320518 0.570075
v -0.055037 0.383018 0.570075
v -0.055037 0.383018 0.601325
v -0.055037 0.320518 0.570075
v -0.189413 0.390830 0.102102
v -0.064412 0.390830 0.102102
v -0.189412 0.357685 0.068957
v -0.064412 0.357685 0.068957
v -0.189412 0.324539 0.102102
v -0.064412 0.357685 0.135248
v -0.189413 0.357685 0.135248
v -0.064412 0.324539 0.102102
v -0.033162 0.269296 -0.019432
v -0.080037 0.269296 -0.019432
v -0.033162 0.236151 0.013714
v -0.080037 0.236151 0.013714
v -0.033162 0.357685 0.068957
v -0.080037 0.324539 0.102102
v -0.033162 0.324539 0.102102
v -0.080037 0.357685 0.068957
v -0.044433 0.293844 2.132576
v -0.000239 0.249650 2.132576
v 0.043955 0.293844 2.007575
v 0.043955 0.293844 2.132576
v -0.000239 0.338038 2.007575
v -0.000239 0.338038 2.132576
v -0.001975 0.414268 0.507575
v -0.001912 0.451768 0.445075
v -0.001975 0.451768 0.507575
v -0.001912 0.414268 0.445075
v -0.064412 0.226768 -0.117425
v -0.064412 0.095518 0.538825
v 0.060588 0.095518 0.538825
v -0.064412 0.226768 0.538825
v 0.060588 0.226768 0.538825
v 0.060588 0.226768 -0.117425
v 0.060588 0.095518 -0.117425
v -0.064412 0.095518 -0.117425
v -0.064412 0.414268 -0.304925
v -0.064412 0.414268 0.570075
v -0.064412 0.226768 0.570075
v 0.060588 0.226768 -0.304925
v -0.064412 0.226768 -0.304925
v 0.060588 0.414268 0.570075
v 0.060588 0.414268 -0.304925
v 0.060588 0.226768 0.570075
v 0.203121 -0.138038 -0.194250
v 0.203121 -0.138038 0.212000
v 0.043800 0.138038 -0.194250
v 0.043800 0.138038 0.212000
v -0.203175 -0.138007 -0.212000
v -0.043800 0.138039 0.194250
v -0.203121 -0.138038 0.194250
v -0.043746 0.138007 -0.212000
v 0.044963 0.226768 -0.368988
v 0.044963 0.414268 -0.415863
v 0.091838 0.414268 -0.415863
v 0.091838 0.414268 -0.368988
v 0.044963 0.414268 -0.368988
v 0.044963 0.226768 -0.415863
v 0.091838 0.226768 -0.415863
v -0.095662 0.226768 -0.306488
v 0.091838 0.226768 -0.306488
v -0.095662 0.414268 -0.368988
v 0.091838 0.414268 -0.306488
v -0.095662 0.414268 -0.306488
v 0.091838 0.226768 -0.368988
v -0.095662 0.226768 -0.368988
v -0.048787 0.414268 -0.415863
v -0.095662 0.414268 -0.415863
v -0.048787 0.414268 -0.368988
v -0.048787 0.226768 -0.415863
v -0.095662 0.226768 -0.415863
v -0.048787 0.226768 -0.368988
v 0.029338 0.414268 0.507575
v 0.029338 0.414268 0.445075
v -0.033162 0.414268 0.445075
v -0.033162 0.414268 0.507575
v -0.033162 0.476768 0.445075
v -0.033162 0.476768 0.507575
v 0.029338 0.476768 0.507575
v 0.029338 0.476768 0.445075
v -0.033162 0.414268 -0.054925
v 0.029338 0.414268 -0.054925
v -0.033162 0.476768 -0.242425
v 0.029338 0.476768 -0.242425
v 0.029338 0.476768 -0.054925
v -0.033162 0.476768 -0.054925
v -0.033162 0.414268 -0.242425
v 0.029338 0.414268 -0.242425
v 0.128597 0.422147 1.195075
v -0.003986 0.289565 1.195075
v 0.128597 0.422147 0.820075
v -0.004030 0.289609 0.820075
v 0.203121 -0.138038 -0.194250
v 0.203121 -0.138038 0.212000
v 0.043800 0.138038 -0.194250
v 0.043800 0.138038 0.212000
v -0.203175 -0.138007 -0.212000
v -0.043800 0.138039 0.194250
v -0.203121 -0.138038 0.194250
v -0.043746 0.138007 -0.212000
v 0.044963 0.226768 -0.368988
v 0.044963 0.414268 -0.415863
v 0.091838 0.414268 -0.415863
v 0.091838 0.414268 -0.368988
v 0.044963 0.414268 -0.368988
v 0.044963 0.226768 -0.415863
v 0.091838 0.226768 -0.415863
v -0.095662 0.226768 -0.306488
v 0.091838 0.226768 -0.306488
v -0.095662 0.414268 -0.368988
v 0.091838 0.414268 -0.306488
v -0.095662 0.414268 -0.306488
v 0.091838 0.226768 -0.368988
v -0.095662 0.226768 -0.368988
v -0.048787 0.414268 -0.415863
v -0.095662 0.414268 -0.415863
v -0.048787 0.414268 -0.368988
v -0.048787 0.226768 -0.415863
v -0.095662 0.226768 -0.415863
v -0.048787 0.226768 -0.368988
v 0.029338 0.414268 0.507575
v 0.029338 0.414268 0.445075
v -0.033162 0.414268 0.445075
v -0.033162 0.414268 0.507575
v -0.033162 0.476768 0.445075
v -0.033162 0.476768 0.507575
v 0.029338 0.476768 0.507575
v 0.029338 0.476768 0.445075
v -0.033162 0.414268 -0.054925
v 0.029338 0.414268 -0.054925
v -0.033162 0.476768 -0.242425
v 0.029338 0.476768 -0.242425
v 0.029338 0.476768 -0.054925
v -0.033162 0.476768 -0.054925
v -0.033162 0.414268 -0.242425
v 0.029338 0.414268 -0.242425
v 0.128597 0.422147 1.195075
v -0.003986 0.289565 1.195075
v 0.128597 0.422147 0.820075
v -0.004030 0.289609 0.820075
vn -0.0000 -0.0000 -1.0000
vn -0.9976 0.0698 -0.0000
vn -0.7071 -0.7071 -0.0000
vn -1.0000 -0.0000 -0.0000
vn -0.0000 -1.0000 -0.0000
vn 1.0000 -0.0000 -0.0000
vn -0.0000 1.0000 -0.0000
vn -0.0000 -0.0000 1.0000
vn 0.7071 0.7071 -0.0000
vn -0.7071 0.7071 -0.0000
vn -0.0000 0.7071 0.7071
vn 1.0000 -0.0000 0.0002
vn -0.0000 0.7071 -0.7071
vn -0.0000 -0.7071 -0.7071
vn 0.7071 -0.7071 -0.0000
vn -0.0000 -0.7071 0.7071
vn -0.0698 -0.9976 -0.0000
vn 0.9976 -0.0698 -0.0000
vn 0.0698 0.9976 -0.0000
vn 0.8661 0.4998 -0.0000
vn -0.8660 0.5000 -0.0000
vn -0.7070 0.7072 0.0001
vn -0.8661 -0.4998 -0.0000
vn 0.8660 -0.5000 -0.0000
vn 0.7070 -0.7072 -0.0001
vt 0.322266 0.566406
vt 0.329102 0.566406
vt 0.329102 0.570312
vt 0.322266 0.570312
vt 0.095703 0.609375
vt 0.097656 0.609375
vt 0.097656 0.611328
vt 0.095703 0.611328
vt 0.426758 0.744141
vt 0.434570 0.744141
vt 0.434570 0.745117
vt 0.426758 0.745117
vt 0.366211 0.889648
vt 0.370117 0.889648
vt 0.370117 0.890625
vt 0.366211 0.890625
vt 0.472656 0.693359
vt 0.478516 0.693359
vt 0.478516 0.695312
vt 0.472656 0.695312
vt 0.491211 0.770508
vt 0.492188 0.770508
vt 0.492188 0.771484
vt 0.491211 0.771484
vt 0.111328 0.537109
vt 0.106445 0.537109
vt 0.106445 0.544922
vt 0.111328 0.544922
vt 0.062500 0.509766
vt 0.063477 0.509766
vt 0.063477 0.510742
vt 0.062500 0.510742
vt 0.393555 0.883789
vt 0.397461 0.883789
vt 0.397461 0.887695
vt 0.393555 0.887695
vt 0.498047 0.715820
vt 0.508789 0.715820
vt 0.508789 0.717773
vt 0.498047 0.717773
vt 0.458008 0.545898
vt 0.453125 0.545898
vt 0.453125 0.538086
vt 0.458008 0.538086
vt 0.205078 0.922852
vt 0.207031 0.922852
vt 0.207031 0.925781
vt 0.205078 0.925781
vt 0.500977 0.513672
vt 0.515625 0.513672
vt 0.515625 0.514648
vt 0.500977 0.514648
vt 0.282227 0.883789
vt 0.284180 0.883789
vt 0.284180 0.884766
vt 0.282227 0.884766
vt 0.469727 0.735352
vt 0.470703 0.735352
vt 0.470703 0.736328
vt 0.469727 0.736328
vt 0.500977 0.951172
vt 0.515625 0.951172
vt 0.515625 0.952148
vt 0.500977 0.952148
vt 0.407227 0.641602
vt 0.415039 0.641602
vt 0.415039 0.642578
vt 0.407227 0.642578
vt 0.382812 0.757812
vt 0.380859 0.757812
vt 0.380859 0.758789
vt 0.382812 0.758789
vt 0.125000 0.489258
vt 0.130859 0.489258
vt 0.130859 0.491211
vt 0.125000 0.491211
vt 0.302734 0.583984
vt 0.307617 0.583984
vt 0.307617 0.586914
vt 0.302734 0.586914
vt 0.023438 0.488281
vt 0.017578 0.488281
vt 0.017578 0.490234
vt 0.023438 0.490234
vt 0.044922 0.501953
vt 0.041016 0.501953
vt 0.041016 0.508789
vt 0.044922 0.508789
vt 0.383789 0.750000
vt 0.391602 0.750000
vt 0.391602 0.750977
vt 0.383789 0.750977
vt 0.109375 0.499023
vt 0.110352 0.499023
vt 0.110352 0.500000
vt 0.109375 0.500000
vt 0.404297 0.985352
vt 0.406250 0.985352
vt 0.406250 0.986328
vt 0.404297 0.986328
vt 0.532227 0.517578
vt 0.533203 0.517578
vt 0.533203 0.518555
vt 0.532227 0.518555
vt 0.083008 0.776367
vt 0.084961 0.776367
vt 0.084961 0.777344
vt 0.083008 0.777344
vt 0.302734 0.625000
vt 0.310547 0.625000
vt 0.310547 0.625977
vt 0.302734 0.625977
vt 0.146484 0.509766
vt 0.148438 0.509766
vt 0.148438 0.510742
vt 0.146484 0.510742
vt 0.275391 0.588867
vt 0.277344 0.588867
vt 0.277344 0.590820
vt 0.275391 0.590820
vt 0.322266 0.670898
vt 0.321289 0.670898
vt 0.321289 0.668945
vt 0.322266 0.668945
vt 0.100586 0.647461
vt 0.098633 0.647461
vt 0.098633 0.636719
vt 0.100586 0.636719
vt 0.463867 0.565430
vt 0.468750 0.565430
vt 0.468750 0.568359
vt 0.463867 0.568359
vt 0.057617 0.544922
vt 0.059570 0.544922
vt 0.059570 0.545898
vt 0.057617 0.545898
vt 0.137695 0.591797
vt 0.136719 0.591797
vt 0.136719 0.589844
vt 0.137695 0.589844
vt 0.491211 0.731445
vt 0.492188 0.731445
vt 0.492188 0.732422
vt 0.491211 0.732422
vt 0.435547 0.730469
vt 0.437500 0.730469
vt 0.437500 0.731445
vt 0.435547 0.731445
vt 0.356445 0.591797
vt 0.351562 0.591797
vt 0.351562 0.590820
vt 0.356445 0.590820
vt 0.363281 0.694336
vt 0.368164 0.694336
vt 0.368164 0.695312
vt 0.363281 0.695312
vt 0.300781 0.505859
vt 0.301758 0.505859
vt 0.301758 0.506836
vt 0.300781 0.506836
vt 0.418945 0.807617
vt 0.420898 0.807617
vt 0.420898 0.808594
vt 0.418945 0.808594
vt 0.475586 0.929688
vt 0.477539 0.929688
vt 0.477539 0.930664
vt 0.475586 0.930664
vt 0.504883 0.936523
vt 0.491211 0.936523
vt 0.491211 0.938477
vt 0.504883 0.938477
vt 0.494141 0.917969
vt 0.492188 0.917969
vt 0.492188 0.916992
vt 0.494141 0.916992
vt 0.516602 0.735352
vt 0.501953 0.735352
vt 0.501953 0.736328
vt 0.516602 0.736328
vt 0.375000 0.705078
vt 0.376953 0.705078
vt 0.376953 0.707031
vt 0.375000 0.707031
vt 0.286133 0.801758
vt 0.299805 0.801758
vt 0.299805 0.804688
vt 0.286133 0.804688
vt 0.516602 0.872070
vt 0.501953 0.872070
vt 0.501953 0.871094
vt 0.516602 0.871094
vt 0.459961 0.491211
vt 0.454102 0.491211
vt 0.454102 0.489258
vt 0.459961 0.489258
vt 0.106445 0.545898
vt 0.120117 0.545898
vt 0.120117 0.548828
vt 0.106445 0.548828
vt 0.477539 0.557617
vt 0.473633 0.557617
vt 0.473633 0.550781
vt 0.477539 0.550781
vt 0.425781 0.872070
vt 0.432617 0.872070
vt 0.432617 0.875977
vt 0.425781 0.875977
vt 0.196289 0.585938
vt 0.191406 0.585938
vt 0.191406 0.586914
vt 0.196289 0.586914
vt 0.339844 0.531250
vt 0.340820 0.531250
vt 0.340820 0.532227
vt 0.339844 0.532227
vt 0.504883 0.941406
vt 0.491211 0.941406
vt 0.491211 0.939453
vt 0.504883 0.939453
vt 0.469727 0.896484
vt 0.467773 0.896484
vt 0.467773 0.895508
vt 0.469727 0.895508
vt 0.372070 0.615234
vt 0.371094 0.615234
vt 0.371094 0.617188
vt 0.372070 0.617188
vt 0.064453 0.519531
vt 0.065430 0.519531
vt 0.065430 0.520508
vt 0.064453 0.520508
vt 0.452148 0.591797
vt 0.454102 0.591797
vt 0.454102 0.592773
vt 0.452148 0.592773
vt 0.199219 0.567383
vt 0.198242 0.567383
vt 0.198242 0.569336
vt 0.199219 0.569336
vt 0.496094 0.807617
vt 0.494141 0.807617
vt 0.494141 0.808594
vt 0.496094 0.808594
vt 0.413086 0.581055
vt 0.415039 0.581055
vt 0.415039 0.582031
vt 0.413086 0.582031
vt 0.475586 0.993164
vt 0.473633 0.993164
vt 0.473633 0.994141
vt 0.475586 0.994141
vt 0.257812 0.502930
vt 0.253906 0.502930
vt 0.253906 0.510742
vt 0.257812 0.510742
vt 0.371094 0.646484
vt 0.369141 0.646484
vt 0.369141 0.645508
vt 0.371094 0.645508
vt 0.054688 0.489258
vt 0.055664 0.489258
vt 0.055664 0.490234
vt 0.054688 0.490234
vt 0.293945 0.694336
vt 0.295898 0.694336
vt 0.295898 0.697266
vt 0.293945 0.697266
vt 0.155273 0.677734
vt 0.159180 0.677734
vt 0.159180 0.678711
vt 0.155273 0.678711
vt 0.480469 0.492188
vt 0.478516 0.492188
vt 0.478516 0.502930
vt 0.480469 0.502930
vt 0.169922 0.778320
vt 0.170898 0.778320
vt 0.170898 0.781250
vt 0.169922 0.781250
vt 0.386719 0.545898
vt 0.388672 0.545898
vt 0.388672 0.547852
vt 0.386719 0.547852
vt 0.054688 0.588867
vt 0.065430 0.588867
vt 0.065430 0.590820
vt 0.054688 0.590820
vt 0.070312 0.767578
vt 0.066406 0.767578
vt 0.066406 0.759766
vt 0.070312 0.759766
vt 0.467773 0.855469
vt 0.468750 0.855469
vt 0.468750 0.856445
vt 0.467773 0.856445
vt 0.258789 0.623047
vt 0.263672 0.623047
vt 0.263672 0.624023
vt 0.258789 0.624023
vt 0.064453 0.764648
vt 0.065430 0.764648
vt 0.065430 0.767578
vt 0.064453 0.767578
vt 0.195312 0.480469
vt 0.196289 0.480469
vt 0.196289 0.481445
vt 0.195312 0.481445
vt 0.409180 0.941406
vt 0.413086 0.941406
vt 0.413086 0.945312
vt 0.409180 0.945312
vt 0.475586 0.809570
vt 0.482422 0.809570
vt 0.482422 0.814453
vt 0.475586 0.814453
vt 0.438477 0.790039
vt 0.445312 0.790039
vt 0.445312 0.794922
vt 0.438477 0.794922
vt 0.070312 0.546875
vt 0.071289 0.546875
vt 0.071289 0.549805
vt 0.070312 0.549805
vt 0.107422 0.577148
vt 0.108398 0.577148
vt 0.108398 0.580078
vt 0.107422 0.580078
vt 0.423828 0.918945
vt 0.424805 0.918945
vt 0.424805 0.921875
vt 0.423828 0.921875
vt 0.125977 0.517578
vt 0.128906 0.517578
vt 0.128906 0.520508
vt 0.125977 0.520508
vt 0.291992 0.678711
vt 0.292969 0.678711
vt 0.292969 0.681641
vt 0.291992 0.681641
vt 0.516602 0.663086
vt 0.515625 0.663086
vt 0.515625 0.664062
vt 0.516602 0.664062
vt 0.469727 0.479492
vt 0.470703 0.479492
vt 0.470703 0.480469
vt 0.469727 0.480469
vt 0.517578 0.905273
vt 0.516602 0.905273
vt 0.516602 0.904297
vt 0.517578 0.904297
vt 0.470703 0.959961
vt 0.473633 0.959961
vt 0.473633 0.960938
vt 0.470703 0.960938
vt 0.305664 0.515625
vt 0.302734 0.515625
vt 0.302734 0.516602
vt 0.305664 0.516602
vt 0.444336 0.587891
vt 0.445312 0.587891
vt 0.445312 0.590820
vt 0.444336 0.590820
vt 0.309570 0.526367
vt 0.306641 0.526367
vt 0.306641 0.525391
vt 0.309570 0.525391
vt 0.043945 0.679688
vt 0.049805 0.679688
vt 0.049805 0.682617
vt 0.043945 0.682617
vt 0.208008 0.563477
vt 0.208984 0.563477
vt 0.208984 0.566406
vt 0.208008 0.566406
vt 0.197266 0.549805
vt 0.198242 0.549805
vt 0.198242 0.552734
vt 0.197266 0.552734
vt 0.404297 0.688477
vt 0.405273 0.688477
vt 0.405273 0.691406
vt 0.404297 0.691406
vt 0.206055 0.476562
vt 0.205078 0.476562
vt 0.205078 0.475586
vt 0.206055 0.475586
vt 0.189453 0.570312
vt 0.188477 0.570312
vt 0.188477 0.573242
vt 0.189453 0.573242
vt 0.179688 0.475586
vt 0.180664 0.475586
vt 0.180664 0.476562
vt 0.179688 0.476562
vt 0.344727 0.478516
vt 0.345703 0.478516
vt 0.345703 0.479492
vt 0.344727 0.479492
vt 0.420898 0.680664
vt 0.421875 0.680664
vt 0.421875 0.683594
vt 0.420898 0.683594
vt 0.087891 0.479492
vt 0.088867 0.479492
vt 0.088867 0.480469
vt 0.087891 0.480469
vt 0.028320 0.510742
vt 0.031250 0.510742
vt 0.031250 0.513672
vt 0.028320 0.513672
vt 0.421875 0.772461
vt 0.422852 0.772461
vt 0.422852 0.775391
vt 0.421875 0.775391
vt 0.287109 0.475586
vt 0.286133 0.475586
vt 0.286133 0.476562
vt 0.287109 0.476562
vt 0.066406 0.529297
vt 0.069336 0.529297
vt 0.069336 0.530273
vt 0.066406 0.530273
vt 0.306641 0.463867
vt 0.307617 0.463867
vt 0.307617 0.464844
vt 0.306641 0.464844
vt 0.517578 0.800781
vt 0.516602 0.800781
vt 0.516602 0.801758
vt 0.517578 0.801758
vt 0.033203 0.461914
vt 0.034180 0.461914
vt 0.034180 0.462891
vt 0.033203 0.462891
vt 0.425781 0.583984
vt 0.424805 0.583984
vt 0.424805 0.581055
vt 0.425781 0.581055
vt 0.510742 0.888672
vt 0.509766 0.888672
vt 0.509766 0.887695
vt 0.510742 0.887695
s 0
usemtl Material_0.015
f 8/1/1 6/2/1 2/3/1 1/4/1
f 34/5/1 36/6/1 35/7/1 38/8/1
f 30/9/1 27/10/1 24/11/1 25/12/1
f 27/13/2 28/14/2 23/15/2 24/16/2
f 31/17/3 34/18/3 38/19/3 37/20/3
f 60/21/4 56/22/4 59/23/4 58/24/4
f 15/25/5 11/26/5 13/27/5 9/28/5
f 53/29/6 57/30/6 54/31/6 55/32/6
f 4/33/6 8/34/6 1/35/6 7/36/6
f 94/37/4 88/38/4 90/39/4 87/40/4
f 12/41/7 21/42/7 10/43/7 14/44/7
f 97/45/8 102/46/8 100/47/8 96/48/8
f 50/49/9 81/50/9 79/51/9 47/52/9
f 44/53/9 40/54/9 41/55/9 43/56/9
f 81/57/8 52/58/8 51/59/8 79/60/8
f 52/61/3 48/62/3 49/63/3 51/64/3
f 28/65/8 29/66/8 26/67/8 23/68/8
f 42/69/10 46/70/10 40/71/10 44/72/10
f 36/73/9 33/74/9 32/75/9 35/76/9
f 20/77/6 22/78/6 16/79/6 17/80/6
f 34/81/10 31/82/10 33/83/10 36/84/10
f 8/85/5 4/86/5 3/87/5 6/88/5
f 15/89/1 9/90/1 12/91/1 14/92/1
f 74/93/11 75/94/11 73/95/11 76/96/11
f 56/97/8 53/98/8 55/99/8 59/100/8
f 83/101/12 86/102/12 84/103/12 85/104/12
f 46/105/3 42/106/3 45/107/3 39/108/3
f 13/109/8 11/110/8 10/111/8 21/112/8
f 81/113/9 82/114/9 80/115/9 79/116/9
f 93/117/1 94/118/1 87/119/1 92/120/1
f 58/121/7 59/122/7 55/123/7 54/124/7
f 90/125/7 91/126/7 92/127/7 87/128/7
f 12/129/4 21/130/4 19/131/4 18/132/4
f 72/133/4 74/134/4 76/135/4 70/136/4
f 63/137/13 61/138/13 62/139/13 64/140/13
f 66/141/6 68/142/6 64/143/6 62/144/6
f 68/145/14 65/146/14 63/147/14 64/148/14
f 18/149/7 19/150/7 17/151/7 16/152/7
f 11/153/6 15/154/6 14/155/6 10/156/6
f 65/157/4 67/158/4 61/159/4 63/160/4
f 67/161/11 66/162/11 62/163/11 61/164/11
f 77/165/3 52/166/3 51/167/3 78/168/3
f 98/169/5 102/170/5 97/171/5 99/172/5
f 79/173/15 80/174/15 78/175/15 51/176/15
f 48/177/10 52/178/10 81/179/10 50/180/10
f 33/181/8 31/182/8 37/183/8 32/184/8
f 102/185/6 98/186/6 101/187/6 100/188/6
f 47/189/15 79/190/15 51/191/15 49/192/15
f 35/193/15 32/194/15 37/195/15 38/196/15
f 99/197/4 97/198/4 96/199/4 95/200/4
f 2/201/7 5/202/7 7/203/7 1/204/7
f 3/205/8 4/206/8 7/207/8 5/208/8
f 22/209/5 20/210/5 21/211/5 12/212/5
f 42/213/1 44/214/1 43/215/1 45/216/1
f 95/217/7 96/218/7 100/219/7 101/220/7
f 70/221/13 76/222/13 73/223/13 69/224/13
f 57/225/5 53/226/5 56/227/5 60/228/5
f 48/229/1 50/230/1 47/231/1 49/232/1
f 75/233/6 71/234/6 69/235/6 73/236/6
f 68/237/16 66/238/16 67/239/16 65/240/16
f 52/241/10 77/242/10 82/243/10 81/244/10
f 57/245/1 60/246/1 58/247/1 54/248/1
f 71/249/16 75/250/16 74/251/16 72/252/16
f 30/253/17 29/254/17 28/255/17 27/256/17
f 43/257/15 41/258/15 39/259/15 45/260/15
f 71/261/14 72/262/14 70/263/14 69/264/14
f 98/265/1 99/266/1 95/267/1 101/268/1
f 29/269/18 30/270/18 25/271/18 26/272/18
f 94/273/5 93/274/5 89/275/5 88/276/5
f 21/277/8 20/278/8 17/279/8 19/280/8
f 88/281/8 89/282/8 91/283/8 90/284/8
f 89/285/6 93/286/6 92/287/6 91/288/6
f 24/289/19 23/290/19 26/291/19 25/292/19
f 40/293/8 46/294/8 39/295/8 41/296/8
f 9/297/4 13/298/4 21/299/4 12/300/4
f 22/301/1 12/302/1 18/303/1 16/304/1
f 82/305/8 77/306/8 78/307/8 80/308/8
f 6/309/4 3/310/4 5/311/4 2/312/4
f 104/313/20 103/314/20 105/315/20 106/316/20
f 107/317/21 109/318/21 108/319/21 110/320/21
f 128/321/1 129/322/1 126/323/1 125/324/1
f 116/325/4 111/326/4 115/327/4 112/328/4
f 124/329/4 118/330/4 122/331/4 120/332/4
f 118/333/8 119/334/8 121/335/8 122/336/8
f 123/337/6 117/338/6 113/339/6 114/340/6
f 117/341/5 123/342/5 111/343/5 116/344/5
f 134/345/8 131/346/8 137/347/8 136/348/8
f 126/349/7 120/350/7 127/351/7 125/352/7
f 145/353/4 139/354/4 144/355/4 141/356/4
f 146/357/5 140/358/5 139/359/5 145/360/5
f 124/361/8 130/362/8 127/363/8 120/364/8
f 141/365/7 144/366/7 143/367/7 142/368/7
f 147/369/22 149/370/22 150/371/22 148/372/22
f 130/373/6 128/374/6 125/375/6 127/376/6
f 129/377/4 124/378/4 120/379/4 126/380/4
f 111/381/8 123/382/8 114/383/8 115/384/8
f 135/385/7 136/386/7 137/387/7 138/388/7
f 123/389/5 119/390/5 118/391/5 124/392/5
f 132/393/1 133/394/1 135/395/1 138/396/1
f 133/397/4 134/398/4 136/399/4 135/400/4
f 117/401/1 116/402/1 112/403/1 113/404/1
f 131/405/6 132/406/6 138/407/6 137/408/6
f 123/409/1 124/410/1 120/411/1 114/412/1
f 119/413/6 123/414/6 114/415/6 121/416/6
f 132/417/5 131/418/5 134/419/5 133/420/5
f 140/421/6 146/422/6 142/423/6 143/424/6
f 139/425/8 140/426/8 143/427/8 144/428/8
f 128/429/5 130/430/5 124/431/5 129/432/5
f 146/433/1 145/434/1 141/435/1 142/436/1
f 120/437/7 122/438/7 121/439/7 114/440/7
f 112/441/7 115/442/7 114/443/7 113/444/7
usemtl Material_0.016
f 152/313/23 154/316/23 153/315/23 151/314/23
f 155/317/24 158/320/24 156/319/24 157/318/24
f 176/321/8 173/324/8 174/323/8 177/322/8
f 164/325/6 160/328/6 163/327/6 159/326/6
f 172/329/6 168/332/6 170/331/6 166/330/6
f 166/333/1 170/336/1 169/335/1 167/334/1
f 171/337/4 162/340/4 161/339/4 165/338/4
f 165/341/7 164/344/7 159/343/7 171/342/7
f 182/345/1 184/348/1 185/347/1 179/346/1
f 174/349/5 173/352/5 175/351/5 168/350/5
f 193/353/6 189/356/6 192/355/6 187/354/6
f 194/357/7 193/360/7 187/359/7 188/358/7
f 172/361/1 168/364/1 175/363/1 178/362/1
f 189/365/5 190/368/5 191/367/5 192/366/5
f 195/369/25 196/372/25 198/371/25 197/370/25
f 178/373/4 175/376/4 173/375/4 176/374/4
f 177/377/6 174/380/6 168/379/6 172/378/6
f 159/381/1 163/384/1 162/383/1 171/382/1
f 183/385/5 186/388/5 185/387/5 184/386/5
f 171/389/7 172/392/7 166/391/7 167/390/7
f 180/393/8 186/396/8 183/395/8 181/394/8
f 181/397/6 183/400/6 184/399/6 182/398/6
f 165/401/8 161/404/8 160/403/8 164/402/8
f 179/405/4 185/408/4 186/407/4 180/406/4
f 171/409/8 162/412/8 168/411/8 172/410/8
f 167/413/4 169/416/4 162/415/4 171/414/4
f 180/417/7 181/420/7 182/419/7 179/418/7
f 188/421/4 191/424/4 190/423/4 194/422/4
f 187/425/1 192/428/1 191/427/1 188/426/1
f 176/429/7 177/432/7 172/431/7 178/430/7
f 194/433/8 190/436/8 189/435/8 193/434/8
f 168/437/5 162/440/5 169/439/5 170/438/5
f 160/441/5 161/444/5 162/443/5 163/442/5
