# Blender 4.1.1
# www.blender.org
mtllib m1a2_m240_coax.mtl
o mg
v 0.061872 -0.000000 -0.375000
v 0.000000 0.061872 -0.375000
v 0.000000 0.061872 0.375000
v -0.061872 -0.000000 -0.375000
v -0.061872 -0.000000 0.375000
v 0.061872 -0.000000 0.375000
v 0.000000 -0.061872 0.375000
v 0.000000 -0.061872 -0.375000
vn 0.7071 -0.7071 -0.0000
vn -0.0000 -0.0000 -1.0000
vn 0.7071 0.7071 -0.0000
vn -0.7071 -0.7071 -0.0000
vn -0.7071 0.7071 -0.0000
vn -0.0000 -0.0000 1.0000
vt 0.399414 0.969727
vt 0.411133 0.969727
vt 0.411133 0.970703
vt 0.399414 0.970703
vt 0.150391 0.591797
vt 0.151367 0.591797
vt 0.151367 0.592773
vt 0.150391 0.592773
vt 0.521484 0.918945
vt 0.509766 0.918945
vt 0.509766 0.917969
vt 0.521484 0.917969
vt 0.521484 0.916016
vt 0.509766 0.916016
vt 0.509766 0.916992
vt 0.521484 0.916992
vt 0.459961 0.701172
vt 0.471680 0.701172
vt 0.471680 0.702148
vt 0.459961 0.702148
vt 0.218750 0.594727
vt 0.219727 0.594727
vt 0.219727 0.595703
vt 0.218750 0.595703
s 0
usemtl Material_0
f 7/1/1 8/2/1 1/3/1 6/4/1
f 8/5/2 4/6/2 2/7/2 1/8/2
f 2/9/3 3/10/3 6/11/3 1/12/3
f 8/13/4 7/14/4 5/15/4 4/16/4
f 4/17/5 5/18/5 3/19/5 2/20/5
f 5/21/6 7/22/6 6/23/6 3/24/6
