# Blender 4.0.0
# www.blender.org
mtllib 30mm_casing.mtl
o cube
v 0.031250 -0.031250 0.146392
v 0.031250 0.031250 0.146392
v 0.031250 -0.031250 -0.134858
v 0.031250 0.031250 -0.134858
v -0.031250 0.031250 0.146392
v -0.031250 -0.031250 0.146392
v -0.031250 0.031250 -0.134858
v -0.031250 -0.031250 -0.134858
vn -0.0000 1.0000 -0.0000
vn 1.0000 -0.0000 -0.0000
vn -0.0000 -1.0000 -0.0000
vn -1.0000 -0.0000 -0.0000
vn -0.0000 -0.0000 1.0000
vn -0.0000 -0.0000 -1.0000
vt 0.000000 0.437500
vt 0.125000 0.437500
vt 0.125000 1.000000
vt 0.000000 1.000000
vt 0.187500 0.437500
vt 0.312500 0.437500
vt 0.312500 1.000000
vt 0.187500 1.000000
vt 0.375000 0.437500
vt 0.500000 0.437500
vt 0.500000 1.000000
vt 0.375000 1.000000
vt 0.562500 0.437500
vt 0.687500 0.437500
vt 0.687500 1.000000
vt 0.562500 1.000000
vt 0.125000 0.375000
vt 0.000000 0.375000
vt 0.000000 0.250000
vt 0.125000 0.250000
vt 0.312500 0.250000
vt 0.187500 0.250000
vt 0.187500 0.375000
vt 0.312500 0.375000
s 0
usemtl m_7c45a243-85e1-91ef-f6ad-7b6e17f61e12
f 4/1/1 7/2/1 5/3/1 2/4/1
f 3/5/2 4/6/2 2/7/2 1/8/2
f 8/9/3 3/10/3 1/11/3 6/12/3
f 7/13/4 8/14/4 6/15/4 5/16/4
f 6/17/5 1/18/5 2/19/5 5/20/5
f 7/21/6 4/22/6 3/23/6 8/24/6
