# Blender 4.0.0
# www.blender.org
mtllib pz3f.mtl
o &flame_&flame.001
v 0.000000 -0.034408 0.020243
v 0.024330 -0.024330 0.020243
v 0.055555 -0.055554 -0.048572
v 0.000000 -0.078565 -0.048572
v 0.034408 -0.000000 0.020243
v 0.078566 -0.000000 -0.048572
v 0.024330 0.024330 0.020243
v 0.055555 0.055554 -0.048572
v 0.000000 0.034408 0.020243
v 0.000000 0.078566 -0.048572
v -0.024330 0.024330 0.020243
v -0.055554 0.055554 -0.048572
v -0.034407 -0.000000 0.020243
v -0.078565 -0.000000 -0.048572
v 0.074588 -0.000000 -0.180486
v 0.052742 -0.052741 -0.180486
v -0.024330 -0.024330 0.020243
v -0.055554 -0.055554 -0.048572
v -0.074588 -0.000000 -0.180486
v -0.084801 -0.000000 -0.381028
v -0.059963 0.059964 -0.381028
v -0.052741 0.052742 -0.180486
v 0.000000 0.074588 -0.180486
v 0.000000 -0.074588 -0.180486
v -0.052741 -0.052741 -0.180486
v 0.052742 0.052742 -0.180486
v 0.059964 -0.059964 -0.381028
v 0.006627 -0.006627 -1.019149
v 0.000000 -0.009371 -1.019149
v 0.000000 -0.084802 -0.381028
v 0.000000 0.084802 -0.381028
v 0.059964 0.059964 -0.381028
v 0.084802 -0.000000 -0.381028
v -0.059963 -0.059964 -0.381028
v 0.009372 -0.000000 -1.019149
v 0.006627 0.006627 -1.019149
v 0.000000 0.009372 -1.019149
v -0.006626 0.006627 -1.019149
v -0.009371 -0.000000 -1.019149
v -0.006626 -0.006627 -1.019149
vn -0.3292 0.7947 -0.5100
vn -0.7947 0.3292 -0.5100
vn -0.7947 -0.3292 -0.5100
vn -0.3292 -0.7947 -0.5100
vn 0.3292 -0.7947 -0.5100
vn 0.7947 -0.3292 -0.5100
vn -0.9235 0.3825 0.0279
vn 0.7947 0.3292 -0.5100
vn 0.3292 0.7947 -0.5100
vn -0.0000 -0.0000 -1.0000
vn 0.9229 -0.3823 -0.0470
vn 0.3825 -0.9235 0.0278
vn 0.3825 0.9235 0.0278
vn -0.3825 0.9235 0.0278
vn -0.9235 -0.3825 0.0278
vn 0.9235 -0.3825 0.0278
vn -0.3825 -0.9235 0.0278
vn 0.9235 0.3825 0.0278
vn -0.3804 0.9184 0.1086
vn -0.3823 -0.9229 -0.0470
vn -0.9229 0.3823 -0.0470
vn 0.9229 0.3823 -0.0470
vn 0.3823 -0.9229 -0.0470
vn -0.9229 -0.3823 -0.0470
vn -0.3823 0.9229 -0.0470
vn 0.3823 0.9229 -0.0470
vn -0.0000 -0.0000 1.0000
vn 0.3804 0.9184 0.1086
vn 0.9184 -0.3804 0.1086
vn -0.3804 -0.9184 0.1086
vn -0.9184 0.3804 0.1086
vn 0.9184 0.3804 0.1086
vn 0.3804 -0.9184 0.1086
vn -0.9184 -0.3804 0.1086
vt 0.000361 0.000354
vt 0.000357 0.000354
vt 0.000357 0.000369
vt 0.000361 0.000369
vt 0.000353 0.000354
vt 0.000353 0.000369
vt 0.000350 0.000354
vt 0.000350 0.000369
vt 0.000346 0.000354
vt 0.000346 0.000369
vt 0.000342 0.000354
vt 0.000342 0.000369
vt 0.000338 0.000354
vt 0.000338 0.000369
vt 0.000335 0.000354
vt 0.000335 0.000369
vt 0.000331 0.000354
vt 0.000331 0.000369
vt 0.000346 0.000346
vt 0.000348 0.000341
vt 0.000353 0.000339
vt 0.000358 0.000341
vt 0.000360 0.000346
vt 0.000343 0.000351
vt 0.000343 0.000341
vt 0.000338 0.000339
vt 0.000333 0.000341
vt 0.000331 0.000346
vt 0.000333 0.000351
vt 0.000338 0.000353
s 1
usemtl None.002
f 1/1/1 2/2/1 3/3/1 4/4/1
f 2/2/2 5/5/2 6/6/2 3/3/2
f 5/5/3 7/7/3 8/8/3 6/6/3
f 7/7/4 9/9/4 10/10/4 8/8/4
f 9/9/5 11/11/5 12/12/5 10/10/5
f 11/11/6 13/13/6 14/14/6 12/12/6
f 6/6/7 15/6/7 16/3/7 3/3/7
f 13/13/8 17/15/8 18/16/8 14/14/8
f 17/15/9 1/17/9 4/18/9 18/16/9
f 1/1/10 17/15/10 13/19/10 11/20/10 9/21/10 7/22/10 5/23/10 2/2/10
f 19/14/11 20/14/11 21/12/11 22/12/11
f 12/12/12 22/12/12 23/10/12 10/10/12
f 4/18/13 24/18/13 25/16/13 18/16/13
f 3/3/14 16/3/14 24/4/14 4/4/14
f 8/8/15 26/8/15 15/6/15 6/6/15
f 14/14/16 19/14/16 22/12/16 12/12/16
f 10/10/17 23/10/17 26/8/17 8/8/17
f 18/16/18 25/16/18 19/14/18 14/14/18
f 27/3/19 28/3/19 29/4/19 30/4/19
f 23/10/20 31/10/20 32/8/20 26/8/20
f 15/6/21 33/6/21 27/3/21 16/3/21
f 25/16/22 34/16/22 20/14/22 19/14/22
f 22/12/23 21/12/23 31/10/23 23/10/23
f 26/8/24 32/8/24 33/6/24 15/6/24
f 16/3/25 27/3/25 30/4/25 24/4/25
f 24/18/26 30/18/26 34/16/26 25/16/26
f 28/24/27 35/19/27 36/25/27 37/26/27 38/27/27 39/28/27 40/29/27 29/30/27
f 30/18/28 29/30/28 40/29/28 34/16/28
f 20/14/29 39/14/29 38/12/29 21/12/29
f 31/10/30 37/10/30 36/8/30 32/8/30
f 33/6/31 35/6/31 28/3/31 27/3/31
f 34/16/32 40/29/32 39/14/32 20/14/32
f 21/12/33 38/12/33 37/10/33 31/10/33
f 32/8/34 36/8/34 35/6/34 33/6/34
o &flamei_&flamei.001
v 0.000000 -0.019497 -0.379480
v 0.013787 -0.013786 -0.379480
v 0.031480 -0.031479 -0.427313
v 0.000000 -0.044518 -0.427313
v 0.019497 -0.000000 -0.379480
v 0.044519 -0.000000 -0.427313
v 0.013787 0.013786 -0.379480
v 0.031480 0.031479 -0.427313
v 0.000000 0.019497 -0.379480
v 0.000000 0.044519 -0.427313
v -0.013786 0.013786 -0.379480
v -0.031479 0.031479 -0.427313
v -0.019496 -0.000000 -0.379480
v -0.044518 -0.000000 -0.427313
v 0.042265 -0.000000 -0.519004
v 0.029886 -0.029885 -0.519004
v -0.013786 -0.013786 -0.379480
v -0.031479 -0.031479 -0.427313
v -0.042264 -0.000000 -0.519004
v -0.048052 -0.000000 -0.658396
v -0.033978 0.033978 -0.658396
v -0.029885 0.029885 -0.519004
v 0.000000 0.042264 -0.519004
v 0.000000 -0.042264 -0.519004
v -0.029885 -0.029885 -0.519004
v 0.029886 0.029885 -0.519004
v 0.033978 -0.033978 -0.658396
v 0.003755 -0.003755 -1.101942
v 0.000000 -0.005310 -1.101942
v 0.000000 -0.048052 -0.658396
v 0.000000 0.048052 -0.658396
v 0.033978 0.033978 -0.658396
v 0.048053 -0.000000 -0.658396
v -0.033978 -0.033978 -0.658396
v 0.005311 -0.000000 -1.101942
v 0.003755 0.003755 -1.101942
v 0.000000 0.005311 -1.101942
v -0.003755 0.003755 -1.101942
v -0.005310 -0.000000 -1.101942
v -0.003755 -0.003755 -1.101942
vn -0.3446 0.8318 -0.4351
vn -0.8318 0.3445 -0.4351
vn -0.8318 -0.3445 -0.4351
vn -0.3446 -0.8318 -0.4351
vn 0.3446 -0.8318 -0.4351
vn 0.8318 -0.3445 -0.4351
vn -0.9236 0.3826 0.0227
vn 0.8318 0.3445 -0.4351
vn 0.3446 0.8318 -0.4351
vn -0.0000 -0.0000 -1.0000
vn 0.9232 -0.3824 -0.0383
vn 0.3826 -0.9236 0.0227
vn 0.3826 0.9236 0.0227
vn -0.3826 0.9236 0.0227
vn -0.9236 -0.3826 0.0227
vn 0.9236 -0.3826 0.0227
vn -0.3826 -0.9236 0.0227
vn 0.9236 0.3826 0.0227
vn -0.3812 0.9202 0.0887
vn -0.3824 -0.9232 -0.0383
vn -0.9232 0.3824 -0.0383
vn 0.9232 0.3824 -0.0383
vn 0.3824 -0.9232 -0.0383
vn -0.9232 -0.3824 -0.0383
vn -0.3824 0.9232 -0.0383
vn 0.3824 0.9232 -0.0383
vn -0.0000 -0.0000 1.0000
vn 0.3812 0.9202 0.0887
vn 0.9202 -0.3812 0.0887
vn -0.3812 -0.9202 0.0887
vn -0.9202 0.3812 0.0887
vn 0.9202 0.3812 0.0887
vn 0.3812 -0.9202 0.0887
vn -0.9202 -0.3812 0.0887
vt 0.000361 0.000354
vt 0.000357 0.000354
vt 0.000357 0.000369
vt 0.000361 0.000369
vt 0.000353 0.000354
vt 0.000353 0.000369
vt 0.000350 0.000354
vt 0.000350 0.000369
vt 0.000346 0.000354
vt 0.000346 0.000369
vt 0.000342 0.000354
vt 0.000342 0.000369
vt 0.000338 0.000354
vt 0.000338 0.000369
vt 0.000335 0.000354
vt 0.000335 0.000369
vt 0.000331 0.000354
vt 0.000331 0.000369
vt 0.000346 0.000346
vt 0.000348 0.000341
vt 0.000353 0.000339
vt 0.000358 0.000341
vt 0.000360 0.000346
vt 0.000343 0.000351
vt 0.000343 0.000341
vt 0.000338 0.000339
vt 0.000333 0.000341
vt 0.000331 0.000346
vt 0.000333 0.000351
vt 0.000338 0.000353
s 1
usemtl None.002
f 41/31/35 42/32/35 43/33/35 44/34/35
f 42/32/36 45/35/36 46/36/36 43/33/36
f 45/35/37 47/37/37 48/38/37 46/36/37
f 47/37/38 49/39/38 50/40/38 48/38/38
f 49/39/39 51/41/39 52/42/39 50/40/39
f 51/41/40 53/43/40 54/44/40 52/42/40
f 46/36/41 55/36/41 56/33/41 43/33/41
f 53/43/42 57/45/42 58/46/42 54/44/42
f 57/45/43 41/47/43 44/48/43 58/46/43
f 41/31/44 57/45/44 53/49/44 51/50/44 49/51/44 47/52/44 45/53/44 42/32/44
f 59/44/45 60/44/45 61/42/45 62/42/45
f 52/42/46 62/42/46 63/40/46 50/40/46
f 44/48/47 64/48/47 65/46/47 58/46/47
f 43/33/48 56/33/48 64/34/48 44/34/48
f 48/38/49 66/38/49 55/36/49 46/36/49
f 54/44/50 59/44/50 62/42/50 52/42/50
f 50/40/51 63/40/51 66/38/51 48/38/51
f 58/46/52 65/46/52 59/44/52 54/44/52
f 67/33/53 68/33/53 69/34/53 70/34/53
f 63/40/54 71/40/54 72/38/54 66/38/54
f 55/36/55 73/36/55 67/33/55 56/33/55
f 65/46/56 74/46/56 60/44/56 59/44/56
f 62/42/57 61/42/57 71/40/57 63/40/57
f 66/38/58 72/38/58 73/36/58 55/36/58
f 56/33/59 67/33/59 70/34/59 64/34/59
f 64/48/60 70/48/60 74/46/60 65/46/60
f 68/54/61 75/49/61 76/55/61 77/56/61 78/57/61 79/58/61 80/59/61 69/60/61
f 70/48/62 69/60/62 80/59/62 74/46/62
f 60/44/63 79/44/63 78/42/63 61/42/63
f 71/40/64 77/40/64 76/38/64 72/38/64
f 73/36/65 75/36/65 68/33/65 67/33/65
f 74/46/66 80/59/66 79/44/66 60/44/66
f 61/42/67 78/42/67 77/40/67 71/40/67
f 72/38/68 76/38/68 75/36/68 73/36/68
o platon
v -0.003658 -0.083994 0.330873
v -0.003658 -0.083994 0.085935
v 0.082940 0.002604 0.330873
v 0.082940 0.002604 0.085935
v -0.003658 0.089203 0.330873
v -0.003658 0.089203 0.085935
v -0.090257 0.002604 0.330873
v -0.090257 0.002604 0.085935
v -0.003658 0.089203 0.330873
v -0.090257 0.002604 0.330873
v 0.082940 0.002604 0.330873
v -0.003658 -0.083994 0.330873
v -0.090257 0.002604 0.085935
v -0.003658 0.089203 0.085935
v -0.003658 -0.083994 0.085935
v 0.082940 0.002604 0.085935
v -0.090257 0.002604 0.330873
v -0.090257 0.002604 0.085935
v -0.003658 -0.083994 0.330873
v -0.003658 -0.083994 0.085935
v 0.082940 0.002604 0.330873
v 0.082940 0.002604 0.085935
v -0.003658 0.089203 0.330873
v -0.003658 0.089203 0.085935
v -0.038298 -0.006056 0.085935
v -0.038298 -0.006056 0.024701
v 0.005002 0.037244 0.085935
v 0.005002 0.037244 0.024701
v -0.016648 0.058893 0.085935
v -0.016648 0.058893 0.024701
v -0.059947 0.015594 0.085935
v -0.059947 0.015594 0.024701
v -0.016648 0.058893 0.085935
v -0.059947 0.015594 0.085935
v 0.005002 0.037244 0.085935
v -0.038298 -0.006056 0.085935
v -0.059947 0.015594 0.024701
v -0.016648 0.058893 0.024701
v -0.038298 -0.006056 0.024701
v 0.005002 0.037244 0.024701
v -0.059947 0.015594 0.085935
v -0.059947 0.015594 0.024701
v -0.038298 -0.006056 0.085935
v -0.038298 -0.006056 0.024701
v 0.005002 0.037244 0.085935
v 0.005002 0.037244 0.024701
v -0.016648 0.058893 0.085935
v -0.016648 0.058893 0.024701
v 0.039641 -0.083994 0.239021
v 0.039641 -0.083994 0.116552
v 0.082940 -0.040695 0.239021
v 0.082940 -0.040695 0.116552
v 0.061291 -0.019045 0.239021
v 0.061291 -0.019045 0.116552
v 0.017991 -0.062345 0.239021
v 0.017991 -0.062345 0.116552
v 0.061291 -0.019045 0.239021
v 0.017991 -0.062345 0.239021
v 0.082940 -0.040695 0.239021
v 0.039641 -0.083994 0.239021
v 0.017991 -0.062345 0.116552
v 0.061291 -0.019045 0.116552
v 0.039641 -0.083994 0.116552
v 0.082940 -0.040695 0.116552
v 0.017991 -0.062345 0.239021
v 0.017991 -0.062345 0.116552
v 0.039641 -0.083994 0.239021
v 0.039641 -0.083994 0.116552
v 0.082940 -0.040695 0.239021
v 0.082940 -0.040695 0.116552
v 0.061291 -0.019045 0.239021
v 0.061291 -0.019045 0.116552
v -0.068607 0.024254 0.239021
v -0.068607 0.024254 0.116552
v -0.025308 0.067553 0.239021
v -0.025308 0.067553 0.116552
v -0.046957 0.089203 0.239021
v -0.046957 0.089203 0.116552
v -0.090257 0.045904 0.239021
v -0.090257 0.045904 0.116552
v -0.046957 0.089203 0.239021
v -0.090257 0.045904 0.239021
v -0.025308 0.067553 0.239021
v -0.068607 0.024254 0.239021
v -0.090257 0.045904 0.116552
v -0.046957 0.089203 0.116552
v -0.068607 0.024254 0.116552
v -0.025308 0.067553 0.116552
v -0.090257 0.045904 0.239021
v -0.090257 0.045904 0.116552
v -0.068607 0.024254 0.239021
v -0.068607 0.024254 0.116552
v -0.025308 0.067553 0.239021
v -0.025308 0.067553 0.116552
v -0.046957 0.089203 0.239021
v -0.046957 0.089203 0.116552
v 0.011496 -0.055850 0.085935
v 0.011496 -0.055850 0.024701
v 0.054796 -0.012551 0.085935
v 0.054796 -0.012551 0.024701
v 0.033146 0.009099 0.085935
v 0.033146 0.009099 0.024701
v -0.010153 -0.034200 0.085935
v -0.010153 -0.034200 0.024701
v 0.033146 0.009099 0.085935
v -0.010153 -0.034200 0.085935
v 0.054796 -0.012551 0.085935
v 0.011496 -0.055850 0.085935
v -0.010153 -0.034200 0.024701
v 0.033146 0.009099 0.024701
v 0.011496 -0.055850 0.024701
v 0.054796 -0.012551 0.024701
v -0.010153 -0.034200 0.085935
v -0.010153 -0.034200 0.024701
v 0.011496 -0.055850 0.085935
v 0.011496 -0.055850 0.024701
v 0.054796 -0.012551 0.085935
v 0.054796 -0.012551 0.024701
v 0.033146 0.009099 0.085935
v 0.033146 0.009099 0.024701
vn 0.7071 -0.7071 -0.0000
vn -0.7071 0.7071 -0.0000
vn -0.0000 -0.0000 1.0000
vn -0.0000 -0.0000 -1.0000
vn -0.7071 -0.7071 -0.0000
vn 0.7071 0.7071 -0.0000
vt 0.125000 0.718750
vt 0.125000 0.468750
vt 0.250000 0.718750
vt 0.250000 0.468750
vt 0.375000 1.000000
vt 0.375000 0.750000
vt 0.500000 1.000000
vt 0.500000 0.750000
vt 0.500000 0.625000
vt 0.375000 0.625000
vt 0.500000 0.500000
vt 0.375000 0.500000
vt 0.375000 0.718750
vt 0.375000 0.468750
vt 0.000000 0.718750
vt 0.000000 0.468750
vt 0.500000 0.562500
vt 0.562500 0.625000
vt 0.562500 0.562500
vt 0.437500 0.500000
vt 0.437500 0.437500
vt 0.500000 0.437500
vt 0.312500 0.406250
vt 0.312500 0.468750
vt 0.281250 0.406250
vt 0.281250 0.468750
vt 0.343750 0.468750
vt 0.343750 0.406250
vt 0.250000 0.406250
vt 0.218750 0.468750
vt 0.218750 0.406250
vt 0.500000 0.875000
vt 0.562500 1.000000
vt 0.562500 0.875000
vt 0.562500 0.750000
vt 0.375000 0.406250
vt 0.562500 0.500000
vt 0.531250 0.562500
vt 0.531250 0.500000
vt 0.000000 0.343750
vt 0.031250 0.468750
vt 0.031250 0.343750
vt 0.531250 0.437500
vt 0.375000 0.375000
vt 0.437500 0.375000
vt 0.562500 0.437500
vt 0.593750 1.000000
vt 0.593750 0.937500
vt 0.562500 0.937500
vt 0.062500 0.468750
vt 0.062500 0.343750
vt 0.093750 0.468750
vt 0.093750 0.343750
vt 0.093750 0.406250
vt 0.156250 0.468750
vt 0.156250 0.406250
vt 0.593750 0.750000
vt 0.593750 0.812500
vt 0.562500 0.812500
vt 0.593750 0.687500
vt 0.562500 0.687500
vt 0.593750 0.875000
s 0
usemtl m_45a1923e-b32a-fa54-4d00-0f641e65f4ab
f 81/61/69 82/62/69 83/63/69
f 82/62/69 84/64/69 83/63/69
f 85/65/70 86/66/70 87/67/70
f 86/66/70 88/68/70 87/67/70
f 89/69/71 90/68/71 91/70/71
f 90/68/71 92/66/71 91/70/71
f 93/69/72 94/71/72 95/70/72
f 94/71/72 96/72/72 95/70/72
f 97/63/73 98/64/73 99/73/73
f 98/64/73 100/74/73 99/73/73
f 101/75/74 102/76/74 103/61/74
f 102/76/74 104/62/74 103/61/74
f 105/69/69 106/77/69 107/78/69
f 106/77/69 108/79/69 107/78/69
f 109/80/70 110/81/70 111/71/70
f 110/81/70 112/82/70 111/71/70
f 113/83/71 114/84/71 115/85/71
f 114/84/71 116/86/71 115/85/71
f 117/87/72 118/88/72 119/84/72
f 118/88/72 120/83/72 119/84/72
f 121/64/73 122/89/73 123/86/73
f 122/89/73 124/85/73 123/86/73
f 125/90/74 126/91/74 127/64/74
f 126/91/74 128/89/74 127/64/74
f 129/67/69 130/92/69 131/93/69
f 130/92/69 132/94/69 131/93/69
f 133/92/70 134/68/70 135/94/70
f 134/68/70 136/95/70 135/94/70
f 137/96/71 138/74/71 139/88/71
f 138/74/71 140/87/71 139/88/71
f 141/79/72 142/97/72 143/98/72
f 142/97/72 144/99/72 143/98/72
f 145/76/73 146/100/73 147/101/73
f 146/100/73 148/102/73 147/101/73
f 149/77/74 150/82/74 151/98/74
f 150/82/74 152/103/74 151/98/74
f 153/68/69 154/69/69 155/95/69
f 154/69/69 156/78/69 155/95/69
f 157/72/70 158/104/70 159/80/70
f 158/104/70 160/105/70 159/80/70
f 161/106/71 162/97/71 163/103/71
f 162/97/71 164/99/71 163/103/71
f 165/107/72 166/108/72 167/93/72
f 166/108/72 168/109/72 167/93/72
f 169/110/73 170/111/73 171/112/73
f 170/111/73 172/113/73 171/112/73
f 173/101/74 174/102/74 175/110/74
f 174/102/74 176/111/74 175/110/74
f 177/112/69 178/114/69 179/115/69
f 178/114/69 180/116/69 179/115/69
f 181/115/70 182/116/70 183/90/70
f 182/116/70 184/91/70 183/90/70
f 185/117/71 186/118/71 187/95/71
f 186/118/71 188/119/71 187/95/71
f 189/117/72 190/120/72 191/95/72
f 190/120/72 192/121/72 191/95/72
f 193/94/73 194/119/73 195/122/73
f 194/119/73 196/118/73 195/122/73
f 197/109/74 198/94/74 199/108/74
f 198/94/74 200/122/74 199/108/74
o usuki
v 0.061269 -0.062366 0.606428
v 0.061269 -0.062366 0.330873
v 0.061291 -0.062345 0.606428
v 0.061291 -0.062345 0.330873
v -0.068607 0.067553 0.606428
v -0.068607 0.067553 0.330873
v -0.068629 0.067532 0.606428
v -0.068629 0.067532 0.330873
v -0.068607 0.067553 0.606428
v -0.068629 0.067532 0.606428
v 0.061291 -0.062345 0.606428
v 0.061269 -0.062366 0.606428
v -0.068629 0.067532 0.330873
v -0.068607 0.067553 0.330873
v 0.061269 -0.062366 0.330873
v 0.061291 -0.062345 0.330873
v -0.068629 0.067532 0.606428
v -0.068629 0.067532 0.330873
v 0.061269 -0.062366 0.606428
v 0.061269 -0.062366 0.330873
v 0.061291 -0.062345 0.606428
v 0.061291 -0.062345 0.330873
v -0.068607 0.067553 0.606428
v -0.068607 0.067553 0.330873
vn 0.7074 -0.7068 -0.0000
vn 0.7070 -0.7072 -0.0000
vn -0.7071 0.7071 -0.0000
vn -0.7070 0.7072 -0.0000
vn -0.0000 -0.0000 1.0000
vn -0.0000 -0.0000 -1.0000
vn -0.0000 -0.0001 -1.0000
vn -0.7071 -0.7071 -0.0000
vn 0.7071 0.7071 -0.0000
vt 0.000000 1.000000
vt 0.000000 0.718750
vt 0.187500 1.000000
vt 0.187500 0.718750
vt 0.375000 1.000000
vt 0.375000 0.718750
s 0
usemtl m_45a1923e-b32a-fa54-4d00-0f641e65f4ab
f 201/123/75 202/124/75 203/123/75
f 202/124/76 204/124/76 203/123/76
f 205/123/77 206/124/77 207/123/77
f 206/124/78 208/124/78 207/123/78
f 209/125/79 210/125/79 211/123/79
f 210/125/79 212/123/79 211/123/79
f 213/125/80 214/125/80 215/123/80
f 214/125/81 216/123/81 215/123/81
f 217/125/82 218/126/82 219/127/82
f 218/126/82 220/128/82 219/127/82
f 221/123/83 222/124/83 223/125/83
f 222/124/83 224/126/83 223/125/83
