# Blender 4.0.0
# www.blender.org
mtllib zur_pantsir.mtl
o missile
v -0.071392 0.000020 -1.636816
v -0.071391 0.000020 -0.152400
v -0.000016 -0.071355 -1.636816
v -0.000016 -0.071356 -0.152400
v -0.000016 0.071396 -0.152400
v -0.000016 0.071396 -1.636816
v 0.071360 0.000020 -0.152400
v 0.071359 0.000020 -1.636816
v -0.046200 0.000020 0.376051
v -0.046199 0.000020 1.622960
v -0.000016 -0.046164 0.376051
v -0.000015 -0.046164 1.622960
v -0.000015 0.046204 1.622960
v -0.000016 0.046204 0.376051
v 0.046169 0.000020 1.622960
v 0.046168 0.000020 0.376051
v -0.054597 0.000020 -0.924297
v -0.054597 0.000020 0.381989
v -0.000016 -0.054561 -0.924297
v -0.000016 -0.054561 0.381989
v -0.000016 0.054601 0.381989
v -0.000016 0.054601 -0.924297
v 0.054566 0.000020 0.381989
v 0.054565 0.000020 -0.924297
v 0.071359 0.000020 -1.636816
v 0.071359 0.000020 -1.280556
v 0.071359 0.000020 -1.636816
v 0.071359 0.000020 -1.280556
v 0.127767 0.000020 -1.280556
v 0.127767 0.000020 -1.636816
v 0.127767 0.000020 -1.280556
v 0.127767 0.000020 -1.636816
v -0.000016 0.071395 -1.636816
v -0.000016 0.071395 -1.280556
v -0.000016 0.071395 -1.636816
v -0.000016 0.071395 -1.280556
v -0.000016 0.127803 -1.280556
v -0.000016 0.127803 -1.636816
v -0.000016 0.127803 -1.280556
v -0.000016 0.127803 -1.636816
v -0.000016 -0.127763 -1.636816
v -0.000016 -0.127763 -1.280556
v -0.000016 -0.127763 -1.636816
v -0.000016 -0.127763 -1.280556
v -0.000016 -0.071355 -1.280556
v -0.000016 -0.071355 -1.636816
v -0.000016 -0.071355 -1.280556
v -0.000016 -0.071355 -1.636816
v -0.127800 -0.000040 -1.636816
v -0.127799 -0.000040 -1.280556
v -0.127800 -0.000040 -1.636816
v -0.127799 -0.000040 -1.280556
v -0.071392 -0.000040 -1.280556
v -0.071392 -0.000040 -1.636816
v -0.071392 -0.000040 -1.280556
v -0.071392 -0.000040 -1.636816
v 0.054565 -0.000040 -0.093024
v 0.054565 -0.000040 0.263236
v 0.054565 -0.000040 -0.093024
v 0.054565 -0.000040 0.263236
v 0.125817 -0.000040 0.263236
v 0.125817 -0.000040 -0.093024
v 0.125817 -0.000040 0.263236
v 0.125817 -0.000040 -0.093024
v -0.125849 -0.000040 -0.093024
v -0.125849 -0.000040 0.263236
v -0.125849 -0.000040 -0.093024
v -0.125849 -0.000040 0.263236
v -0.054597 -0.000040 0.263236
v -0.054597 -0.000040 -0.093024
v -0.054597 -0.000040 0.263236
v -0.054597 -0.000040 -0.093024
v 0.000043 0.054601 -0.093024
v 0.000044 0.054601 0.263236
v 0.000043 0.054601 -0.093024
v 0.000044 0.054601 0.263236
v 0.000044 0.125853 0.263236
v 0.000043 0.125853 -0.093024
v 0.000044 0.125853 0.263236
v 0.000043 0.125853 -0.093024
v 0.000043 -0.125813 -0.093024
v 0.000044 -0.125813 0.263236
v 0.000043 -0.125813 -0.093024
v 0.000044 -0.125813 0.263236
v 0.000044 -0.054561 0.263236
v 0.000043 -0.054561 -0.093024
v 0.000044 -0.054561 0.263236
v 0.000043 -0.054561 -0.093024
v 0.000044 0.046204 1.355766
v 0.000044 0.046204 1.474519
v 0.000044 0.046204 1.355766
v 0.000044 0.046204 1.474519
v 0.000044 0.132300 1.474519
v 0.000044 0.132300 1.355766
v 0.000044 0.132300 1.474519
v 0.000044 0.132300 1.355766
v 0.000044 -0.132261 1.355766
v 0.000044 -0.132261 1.474519
v 0.000044 -0.132261 1.355766
v 0.000044 -0.132261 1.474519
v 0.000044 -0.046165 1.474519
v 0.000044 -0.046165 1.355766
v 0.000044 -0.046165 1.474519
v 0.000044 -0.046165 1.355766
v -0.132296 -0.000040 1.355766
v -0.132296 -0.000040 1.474519
v -0.132296 -0.000040 1.355766
v -0.132296 -0.000040 1.474519
v -0.046200 -0.000040 1.474519
v -0.046200 -0.000040 1.355766
v -0.046200 -0.000040 1.474519
v -0.046200 -0.000040 1.355766
v 0.046169 -0.000040 1.355766
v 0.046169 -0.000040 1.474519
v 0.046169 -0.000040 1.355766
v 0.046169 -0.000040 1.474519
v 0.132265 -0.000040 1.474519
v 0.132265 -0.000040 1.355766
v 0.132265 -0.000040 1.474519
v 0.132265 -0.000040 1.355766
vn -0.0000 -0.0000 1.0000
vn -0.7071 -0.7071 -0.0000
vn -0.0000 -0.0000 -1.0000
vn 0.7071 0.7071 -0.0000
vn -0.7071 0.7071 -0.0000
vn 0.7071 -0.7071 -0.0000
vn -0.0000 -0.0000 -0.0000
vn -0.0000 1.0000 -0.0000
vn -0.0000 -1.0000 -0.0000
vn -1.0000 -0.0000 -0.0000
vn 1.0000 -0.0000 -0.0000
vt 0.593750 0.203125
vt 0.640625 0.203125
vt 0.640625 0.250000
vt 0.593750 0.250000
vt 0.000000 0.953125
vt 0.781250 0.953125
vt 0.781250 1.000000
vt 0.000000 1.000000
vt 0.656250 0.203125
vt 0.703125 0.203125
vt 0.703125 0.250000
vt 0.656250 0.250000
vt 0.000000 0.890625
vt 0.781250 0.890625
vt 0.781250 0.937500
vt 0.000000 0.937500
vt 0.046875 0.875000
vt 0.000000 0.875000
vt 0.000000 0.093750
vt 0.046875 0.093750
vt 0.109375 0.093750
vt 0.062500 0.093750
vt 0.062500 0.875000
vt 0.109375 0.875000
vt 0.781250 0.625000
vt 0.812500 0.625000
vt 0.812500 0.656250
vt 0.781250 0.656250
vt 0.250000 0.718750
vt 0.906250 0.718750
vt 0.906250 0.750000
vt 0.250000 0.750000
vt 0.781250 0.578125
vt 0.812500 0.578125
vt 0.812500 0.609375
vt 0.781250 0.609375
vt 0.250000 0.671875
vt 0.906250 0.671875
vt 0.906250 0.703125
vt 0.250000 0.703125
vt 0.281250 0.656250
vt 0.250000 0.656250
vt 0.250000 0.000000
vt 0.281250 0.000000
vt 0.328125 0.000000
vt 0.296875 0.000000
vt 0.296875 0.656250
vt 0.328125 0.656250
vt 0.468750 0.203125
vt 0.515625 0.203125
vt 0.515625 0.250000
vt 0.468750 0.250000
vt 0.125000 0.828125
vt 0.812500 0.828125
vt 0.812500 0.875000
vt 0.125000 0.875000
vt 0.531250 0.203125
vt 0.578125 0.203125
vt 0.578125 0.250000
vt 0.531250 0.250000
vt 0.125000 0.765625
vt 0.812500 0.765625
vt 0.812500 0.812500
vt 0.125000 0.812500
vt 0.171875 0.750000
vt 0.125000 0.750000
vt 0.125000 0.062500
vt 0.171875 0.062500
vt 0.234375 0.062500
vt 0.187500 0.062500
vt 0.187500 0.750000
vt 0.234375 0.750000
vt 0.781250 0.562500
vt 0.812500 0.562500
vt 0.781250 0.546875
vt 0.968750 0.546875
vt 0.781250 0.531250
vt 0.812500 0.531250
vt 0.781250 0.515625
vt 0.968750 0.515625
vt 0.375000 0.656250
vt 0.343750 0.656250
vt 0.343750 0.468750
vt 0.375000 0.468750
vt 0.421875 0.468750
vt 0.390625 0.468750
vt 0.390625 0.656250
vt 0.421875 0.656250
vt 0.781250 0.500000
vt 0.812500 0.500000
vt 0.781250 0.484375
vt 0.968750 0.484375
vt 0.781250 0.468750
vt 0.812500 0.468750
vt 0.781250 0.453125
vt 0.968750 0.453125
vt 0.468750 0.656250
vt 0.437500 0.656250
vt 0.437500 0.468750
vt 0.468750 0.468750
vt 0.515625 0.468750
vt 0.484375 0.468750
vt 0.484375 0.656250
vt 0.515625 0.656250
vt 0.781250 0.437500
vt 0.812500 0.437500
vt 0.781250 0.421875
vt 0.968750 0.421875
vt 0.781250 0.406250
vt 0.812500 0.406250
vt 0.781250 0.390625
vt 0.968750 0.390625
vt 0.562500 0.656250
vt 0.531250 0.656250
vt 0.531250 0.468750
vt 0.562500 0.468750
vt 0.375000 0.265625
vt 0.343750 0.265625
vt 0.343750 0.453125
vt 0.375000 0.453125
vt 0.781250 0.375000
vt 0.812500 0.375000
vt 0.781250 0.359375
vt 0.968750 0.359375
vt 0.781250 0.343750
vt 0.812500 0.343750
vt 0.781250 0.328125
vt 0.968750 0.328125
vt 0.421875 0.453125
vt 0.390625 0.453125
vt 0.390625 0.265625
vt 0.421875 0.265625
vt 0.468750 0.265625
vt 0.437500 0.265625
vt 0.437500 0.453125
vt 0.468750 0.453125
vt 0.781250 0.312500
vt 0.812500 0.312500
vt 0.781250 0.296875
vt 0.968750 0.296875
vt 0.781250 0.281250
vt 0.812500 0.281250
vt 0.781250 0.265625
vt 0.968750 0.265625
vt 0.515625 0.453125
vt 0.484375 0.453125
vt 0.484375 0.265625
vt 0.515625 0.265625
vt 0.562500 0.265625
vt 0.531250 0.265625
vt 0.531250 0.453125
vt 0.562500 0.453125
vt 0.781250 0.250000
vt 0.812500 0.250000
vt 0.781250 0.234375
vt 0.968750 0.234375
vt 0.781250 0.218750
vt 0.812500 0.218750
vt 0.796875 1.000000
vt 0.984375 1.000000
vt 0.609375 0.656250
vt 0.578125 0.656250
vt 0.578125 0.468750
vt 0.609375 0.468750
vt 0.609375 0.265625
vt 0.578125 0.265625
vt 0.578125 0.453125
vt 0.609375 0.453125
vt 0.796875 0.984375
vt 0.828125 0.984375
vt 0.796875 0.968750
vt 0.984375 0.968750
vt 0.796875 0.953125
vt 0.828125 0.953125
vt 0.796875 0.937500
vt 0.984375 0.937500
vt 0.656250 0.656250
vt 0.625000 0.656250
vt 0.625000 0.468750
vt 0.656250 0.468750
vt 0.656250 0.265625
vt 0.625000 0.265625
vt 0.625000 0.453125
vt 0.656250 0.453125
vt 0.796875 0.921875
vt 0.828125 0.921875
vt 0.796875 0.906250
vt 0.984375 0.906250
vt 0.796875 0.890625
vt 0.828125 0.890625
vt 0.781250 0.203125
vt 0.968750 0.203125
vt 0.703125 0.656250
vt 0.671875 0.656250
vt 0.671875 0.468750
vt 0.703125 0.468750
vt 0.703125 0.265625
vt 0.671875 0.265625
vt 0.671875 0.453125
vt 0.703125 0.453125
vt 0.468750 0.187500
vt 0.515625 0.187500
vt 0.531250 0.187500
vt 0.593750 0.187500
vt 0.609375 0.187500
vt 0.656250 0.187500
vt 0.671875 0.187500
vt 0.734375 0.187500
vt 0.765625 0.656250
vt 0.718750 0.656250
vt 0.718750 0.593750
vt 0.765625 0.593750
vt 0.765625 0.515625
vt 0.718750 0.515625
vt 0.718750 0.578125
vt 0.765625 0.578125
vt 0.750000 0.187500
vt 0.796875 0.187500
vt 0.812500 0.187500
vt 0.875000 0.187500
vt 0.828125 0.875000
vt 0.875000 0.875000
vt 0.828125 0.859375
vt 0.890625 0.859375
vt 0.765625 0.500000
vt 0.718750 0.500000
vt 0.718750 0.437500
vt 0.765625 0.437500
vt 0.765625 0.359375
vt 0.718750 0.359375
vt 0.718750 0.421875
vt 0.765625 0.421875
vt 0.828125 0.843750
vt 0.875000 0.843750
vt 0.828125 0.828125
vt 0.890625 0.828125
vt 0.828125 0.812500
vt 0.875000 0.812500
vt 0.828125 0.796875
vt 0.890625 0.796875
vt 0.765625 0.343750
vt 0.718750 0.343750
vt 0.718750 0.281250
vt 0.765625 0.281250
vt 0.765625 0.203125
vt 0.718750 0.203125
vt 0.718750 0.265625
vt 0.765625 0.265625
vt 0.828125 0.781250
vt 0.875000 0.781250
vt 0.828125 0.765625
vt 0.890625 0.765625
vt 0.343750 0.171875
vt 0.390625 0.171875
vt 0.828125 0.656250
vt 0.890625 0.656250
vt 0.390625 0.250000
vt 0.343750 0.250000
vt 0.343750 0.187500
vt 0.390625 0.187500
vt 0.453125 0.187500
vt 0.406250 0.187500
vt 0.406250 0.250000
vt 0.453125 0.250000
s 0
usemtl m_684031af-0587-eca1-7f86-b07b62dc210c
f 4/1/1 7/2/1 5/3/1 2/4/1
f 3/5/2 4/6/2 2/7/2 1/8/2
f 8/9/3 3/10/3 1/11/3 6/12/3
f 7/13/4 8/14/4 6/15/4 5/16/4
f 6/17/5 1/18/5 2/19/5 5/20/5
f 7/21/6 4/22/6 3/23/6 8/24/6
f 12/25/1 15/26/1 13/27/1 10/28/1
f 11/29/2 12/30/2 10/31/2 9/32/2
f 16/33/3 11/34/3 9/35/3 14/36/3
f 15/37/4 16/38/4 14/39/4 13/40/4
f 14/41/5 9/42/5 10/43/5 13/44/5
f 15/45/6 12/46/6 11/47/6 16/48/6
f 20/49/1 23/50/1 21/51/1 18/52/1
f 19/53/2 20/54/2 18/55/2 17/56/2
f 24/57/3 19/58/3 17/59/3 22/60/3
f 23/61/4 24/62/4 22/63/4 21/64/4
f 22/65/5 17/66/5 18/67/5 21/68/5
f 23/69/6 20/70/6 19/71/6 24/72/6
f 28/73/1 31/74/1 29/74/1 26/73/1
f 27/75/7 28/76/7 26/76/7 25/75/7
f 32/77/3 27/78/3 25/78/3 30/77/3
f 31/79/7 32/80/7 30/80/7 29/79/7
f 30/81/8 25/82/8 26/83/8 29/84/8
f 31/85/9 28/86/9 27/87/9 32/88/9
f 36/89/1 39/90/1 37/90/1 34/89/1
f 35/91/7 36/92/7 34/92/7 33/91/7
f 40/93/3 35/94/3 33/94/3 38/93/3
f 39/95/7 40/96/7 38/96/7 37/95/7
f 38/97/10 33/98/10 34/99/10 37/100/10
f 39/101/11 36/102/11 35/103/11 40/104/11
f 44/105/1 47/106/1 45/106/1 42/105/1
f 43/107/7 44/108/7 42/108/7 41/107/7
f 48/109/3 43/110/3 41/110/3 46/109/3
f 47/111/7 48/112/7 46/112/7 45/111/7
f 46/113/10 41/114/10 42/115/10 45/116/10
f 47/117/11 44/118/11 43/119/11 48/120/11
f 52/121/1 55/122/1 53/122/1 50/121/1
f 51/123/7 52/124/7 50/124/7 49/123/7
f 56/125/3 51/126/3 49/126/3 54/125/3
f 55/127/7 56/128/7 54/128/7 53/127/7
f 54/129/8 49/130/8 50/131/8 53/132/8
f 55/133/9 52/134/9 51/135/9 56/136/9
f 60/137/1 63/138/1 61/138/1 58/137/1
f 59/139/7 60/140/7 58/140/7 57/139/7
f 64/141/3 59/142/3 57/142/3 62/141/3
f 63/143/7 64/144/7 62/144/7 61/143/7
f 62/145/8 57/146/8 58/147/8 61/148/8
f 63/149/9 60/150/9 59/151/9 64/152/9
f 68/153/1 71/154/1 69/154/1 66/153/1
f 67/155/7 68/156/7 66/156/7 65/155/7
f 72/157/3 67/158/3 65/158/3 70/157/3
f 71/159/7 72/160/7 70/160/7 69/159/7
f 70/161/8 65/162/8 66/163/8 69/164/8
f 71/165/9 68/166/9 67/167/9 72/168/9
f 76/169/1 79/170/1 77/170/1 74/169/1
f 75/171/7 76/172/7 74/172/7 73/171/7
f 80/173/3 75/174/3 73/174/3 78/173/3
f 79/175/7 80/176/7 78/176/7 77/175/7
f 78/177/10 73/178/10 74/179/10 77/180/10
f 79/181/11 76/182/11 75/183/11 80/184/11
f 84/185/1 87/186/1 85/186/1 82/185/1
f 83/187/7 84/188/7 82/188/7 81/187/7
f 88/189/3 83/190/3 81/190/3 86/189/3
f 87/191/7 88/192/7 86/192/7 85/191/7
f 86/193/10 81/194/10 82/195/10 85/196/10
f 87/197/11 84/198/11 83/199/11 88/200/11
f 92/201/1 95/202/1 93/202/1 90/201/1
f 91/203/7 92/204/7 90/204/7 89/203/7
f 96/205/3 91/206/3 89/206/3 94/205/3
f 95/207/7 96/208/7 94/208/7 93/207/7
f 94/209/10 89/210/10 90/211/10 93/212/10
f 95/213/11 92/214/11 91/215/11 96/216/11
f 100/217/1 103/218/1 101/218/1 98/217/1
f 99/219/7 100/220/7 98/220/7 97/219/7
f 104/221/3 99/222/3 97/222/3 102/221/3
f 103/223/7 104/224/7 102/224/7 101/223/7
f 102/225/10 97/226/10 98/227/10 101/228/10
f 103/229/11 100/230/11 99/231/11 104/232/11
f 108/233/1 111/234/1 109/234/1 106/233/1
f 107/235/7 108/236/7 106/236/7 105/235/7
f 112/237/3 107/238/3 105/238/3 110/237/3
f 111/239/7 112/240/7 110/240/7 109/239/7
f 110/241/8 105/242/8 106/243/8 109/244/8
f 111/245/9 108/246/9 107/247/9 112/248/9
f 116/249/1 119/250/1 117/250/1 114/249/1
f 115/251/7 116/252/7 114/252/7 113/251/7
f 120/253/3 115/254/3 113/254/3 118/253/3
f 119/255/7 120/256/7 118/256/7 117/255/7
f 118/257/8 113/258/8 114/259/8 117/260/8
f 119/261/9 116/262/9 115/263/9 120/264/9
