# Blender 4.1.1
# www.blender.org
mtllib bullet_small.mtl
o #bodyModel
v 0.031250 -0.031250 -1.531250
v 0.031250 0.031250 -1.531250
v 0.031250 0.031250 1.531250
v 0.031250 -0.031250 1.531250
v -0.031250 -0.031250 1.531250
v -0.031250 0.031250 1.531250
v -0.031250 0.031250 -1.531250
v -0.031250 -0.031250 -1.531250
vn 1.0000 -0.0000 -0.0000
vn -1.0000 -0.0000 -0.0000
vn -0.0000 1.0000 -0.0000
vn -0.0000 -1.0000 -0.0000
vn -0.0000 -0.0000 1.0000
vn -0.0000 -0.0000 -1.0000
vt 1.000000 0.937500
vt 1.000000 1.000000
vt 0.000000 1.000000
vt 0.000000 0.937500
vt 0.062500 0.000000
vt 0.062500 1.000000
vt 0.000000 0.000000
vt 0.062500 0.937500
s 0
usemtl none
f 1/1/1 2/2/1 3/3/1 4/4/1
f 5/1/2 6/2/2 7/3/2 8/4/2
f 3/5/3 2/6/3 7/3/3 6/7/3
f 1/5/4 4/6/4 5/3/4 8/7/4
f 4/8/5 3/6/5 6/3/5 5/4/5
f 8/8/6 7/6/6 2/3/6 1/4/6
o #flare
v 0.015625 0.015625 0.062500
v 0.015625 0.015625 -0.062500
v 0.015625 -0.015625 0.062500
v 0.015625 -0.015625 -0.062500
v -0.015625 0.015625 0.062500
v -0.015625 0.015625 -0.062500
v -0.015625 -0.015625 0.062500
v -0.015625 -0.015625 -0.062500
vn 1.0000 -0.0000 -0.0000
vn -1.0000 -0.0000 -0.0000
vn -0.0000 1.0000 -0.0000
vn -0.0000 -1.0000 -0.0000
vn -0.0000 -0.0000 1.0000
vn -0.0000 -0.0000 -1.0000
vt 0.125000 0.875000
vt 0.125000 1.000000
vt 0.000000 1.000000
vt 0.000000 0.875000
s 0
usemtl none
f 12/9/7 10/10/7 9/11/7 11/12/7
f 15/9/8 13/10/8 14/11/8 16/12/8
f 9/9/9 10/10/9 14/11/9 13/12/9
f 12/9/10 11/10/10 15/11/10 16/12/10
f 11/9/11 9/10/11 13/11/11 15/12/11
f 16/9/12 14/10/12 10/11/12 12/12/12
