# Blender 4.1.1
# www.blender.org
mtllib 2b14.mtl
o mortar
v -0.088388 1.316942 1.325825
v 0.000000 1.254442 1.388325
v -0.088388 0.079505 0.088388
v 0.000000 0.017005 0.150888
v 0.088389 1.316942 1.325825
v 0.000000 1.379442 1.263325
v 0.088388 0.079505 0.088388
v 0.000000 0.142005 0.025888
v -0.075444 0.702015 0.880092
v -0.012944 0.702015 0.880092
v -0.075444 0.304267 0.482345
v -0.012944 0.304267 0.482345
v -0.012944 0.746209 0.835898
v -0.075444 0.746209 0.835898
v -0.012944 0.348461 0.438150
v -0.075444 0.348461 0.438151
v 0.012944 0.702015 0.880092
v 0.075444 0.702015 0.880092
v 0.012944 0.304267 0.482345
v 0.075444 0.304267 0.482345
v 0.075444 0.746209 0.835898
v 0.012944 0.746209 0.835898
v 0.075444 0.348461 0.438150
v 0.012944 0.348461 0.438150
v 0.044194 0.622779 0.694163
v 0.088389 0.591529 0.725413
v 0.044194 0.490197 0.561580
v 0.088389 0.458947 0.592830
v 0.132583 0.622779 0.694163
v 0.088389 0.654029 0.662913
v 0.132583 0.490197 0.561580
v 0.088389 0.521447 0.530330
vn 0.7071 -0.5000 0.5000
vn -0.7071 -0.5000 0.5000
vn -0.7071 0.5000 -0.5000
vn 0.7071 0.5000 -0.5000
vn -0.0000 0.7071 0.7071
vn -0.0000 -0.7071 -0.7071
vn 1.0000 -0.0000 -0.0000
vn -0.0000 -0.7071 0.7071
vn -1.0000 -0.0000 -0.0000
vn -0.0000 0.7071 -0.7071
vt 0.218750 0.562500
vt 0.250000 0.562500
vt 0.250000 1.000000
vt 0.218750 1.000000
vt 0.281250 0.562500
vt 0.281250 1.000000
vt 0.312500 0.562500
vt 0.312500 1.000000
vt 0.343750 0.562500
vt 0.343750 1.000000
vt 0.546875 0.812500
vt 0.515625 0.812500
vt 0.515625 0.781250
vt 0.546875 0.781250
vt 0.546875 0.750000
vt 0.515625 0.750000
vt 0.500000 0.859375
vt 0.515625 0.859375
vt 0.515625 1.000000
vt 0.500000 1.000000
vt 0.500000 0.718750
vt 0.515625 0.718750
vt 0.156250 0.359375
vt 0.171875 0.359375
vt 0.171875 0.500000
vt 0.156250 0.500000
vt 0.187500 0.359375
vt 0.187500 0.500000
vt 0.546875 0.906250
vt 0.531250 0.906250
vt 0.531250 0.890625
vt 0.546875 0.890625
vt 0.125000 0.453125
vt 0.109375 0.453125
vt 0.109375 0.468750
vt 0.125000 0.468750
vt 0.203125 0.359375
vt 0.203125 0.500000
vt 0.218750 0.359375
vt 0.218750 0.500000
vt 0.234375 0.359375
vt 0.234375 0.500000
vt 0.250000 0.359375
vt 0.250000 0.500000
vt 0.531250 0.875000
vt 0.546875 0.875000
vt 0.140625 0.453125
vt 0.140625 0.468750
vt 0.515625 0.578125
vt 0.531250 0.578125
vt 0.531250 0.625000
vt 0.515625 0.625000
vt 0.515625 0.531250
vt 0.531250 0.531250
vt 0.515625 0.453125
vt 0.531250 0.453125
vt 0.531250 0.500000
vt 0.515625 0.500000
vt 0.000000 0.421875
vt 0.015625 0.421875
vt 0.015625 0.468750
vt 0.000000 0.468750
vt 0.546875 0.921875
vt 0.531250 0.921875
vt 0.093750 0.453125
vt 0.093750 0.468750
s 0
usemtl m_d2f2942c-b4a6-45a1-1760-6428633fd652
f 4/1/1 7/2/1 5/3/1 2/4/1
f 3/2/2 4/5/2 2/6/2 1/3/2
f 8/5/3 3/7/3 1/8/3 6/6/3
f 7/7/4 8/9/4 6/10/4 5/8/4
f 6/11/5 1/12/5 2/13/5 5/14/5
f 7/15/6 4/16/6 3/13/6 8/14/6
f 12/17/7 15/18/7 13/19/7 10/20/7
f 11/21/8 12/22/8 10/18/8 9/17/8
f 16/23/9 11/24/9 9/25/9 14/26/9
f 15/24/10 16/27/10 14/28/10 13/25/10
f 14/29/5 9/30/5 10/31/5 13/32/5
f 15/33/6 12/34/6 11/35/6 16/36/6
f 20/27/7 23/37/7 21/38/7 18/28/7
f 19/37/8 20/39/8 18/40/8 17/38/8
f 24/39/9 19/41/9 17/42/9 22/40/9
f 23/41/10 24/43/10 22/44/10 21/42/10
f 22/32/5 17/31/5 18/45/5 21/46/5
f 23/47/6 20/33/6 19/36/6 24/48/6
f 28/49/1 31/50/1 29/51/1 26/52/1
f 27/53/2 28/54/2 26/50/2 25/49/2
f 32/55/3 27/56/3 25/57/3 30/58/3
f 31/59/4 32/60/4 30/61/4 29/62/4
f 30/63/5 25/64/5 26/30/5 29/29/5
f 31/34/6 28/65/6 27/66/6 32/35/6
o bedplate
v -0.331131 0.000000 -0.284256
v -0.331131 0.000000 -0.284256
v -0.331131 -0.375000 -0.284256
v -0.331131 -0.375000 -0.284256
v -0.110160 0.000000 -0.063285
v -0.110160 0.000000 -0.063285
v -0.110160 -0.375000 -0.063285
v -0.110160 -0.375000 -0.063285
v -0.156250 -0.000000 0.343750
v -0.156250 -0.000000 0.343750
v -0.156250 -0.375000 0.343750
v -0.156250 -0.375000 0.343750
v 0.156250 -0.000000 0.343750
v 0.156250 -0.000000 0.343750
v 0.156250 -0.375000 0.343750
v 0.156250 -0.375000 0.343750
v 0.353228 0.000000 -0.085382
v 0.353228 0.000000 -0.085382
v 0.353228 -0.375000 -0.085382
v 0.353228 -0.375000 -0.085382
v 0.132257 0.000000 -0.306353
v 0.132257 0.000000 -0.306353
v 0.132257 -0.375000 -0.306353
v 0.132257 -0.375000 -0.306353
v -0.132257 0.000000 -0.306353
v -0.132257 0.000000 -0.306353
v -0.132257 -0.375000 -0.306353
v -0.132257 -0.375000 -0.306353
v -0.353228 0.000000 -0.085382
v -0.353228 0.000000 -0.085382
v -0.353228 -0.375000 -0.085382
v -0.353228 -0.375000 -0.085382
v -0.618718 0.062500 0.000000
v 0.000000 0.062500 0.618718
v -0.618718 -0.000000 0.000000
v 0.000000 -0.000000 0.618718
v 0.618718 0.062500 -0.000000
v -0.000000 0.062500 -0.618718
v 0.618718 0.000000 -0.000000
v -0.000000 0.000000 -0.618718
v 0.000000 -0.000000 0.156250
v 0.000000 -0.000000 0.156250
v 0.000000 -0.375000 0.156250
v 0.000000 -0.375000 0.156250
v 0.000000 -0.000000 0.468750
v 0.000000 -0.000000 0.468750
v 0.000000 -0.375000 0.468750
v 0.000000 -0.375000 0.468750
v 0.110160 0.000000 -0.063285
v 0.110160 0.000000 -0.063285
v 0.110160 -0.375000 -0.063285
v 0.110160 -0.375000 -0.063285
v 0.331131 0.000000 -0.284256
v 0.331131 0.000000 -0.284256
v 0.331131 -0.375000 -0.284256
v 0.331131 -0.375000 -0.284256
vn -0.7071 -0.0000 0.7071
vn -0.0000 -0.0000 -0.0000
vn 0.7071 -0.0000 -0.7071
vn -0.6612 -0.3545 0.6612
vn -0.0000 1.0000 -0.0000
vn -0.6725 0.3090 0.6725
vn -0.0000 -1.0000 -0.0000
vn 0.6611 -0.3545 -0.6612
vn 0.6725 0.3090 -0.6725
vn -0.0000 -0.0000 1.0000
vn -0.0000 -0.0000 -1.0000
vn -0.7071 -0.0000 -0.7071
vn 0.7071 -0.0000 0.7071
vn 0.6612 -0.3545 0.6611
vn 0.6725 0.3090 0.6725
vn -0.6612 -0.3545 -0.6612
vn -0.6725 0.3090 -0.6725
vn -1.0000 -0.0000 -0.0000
vn 1.0000 -0.0000 -0.0000
vn -0.1464 -0.9239 0.3535
vn 0.1464 -0.9239 -0.3535
vt 0.000000 0.468750
vt 0.078125 0.468750
vt 0.078125 0.562500
vt 0.000000 0.562500
vt 0.000000 0.906250
vt 0.000000 1.000000
vt 0.156250 0.468750
vt 0.156250 0.562500
vt 0.078125 1.000000
vt 0.343750 0.906250
vt 0.421875 0.906250
vt 0.421875 1.000000
vt 0.343750 1.000000
vt 0.343750 0.812500
vt 0.421875 0.812500
vt 0.343750 0.531250
vt 0.421875 0.531250
vt 0.421875 0.625000
vt 0.343750 0.625000
vt 0.500000 0.906250
vt 0.500000 1.000000
vt 0.500000 0.625000
vt 0.500000 0.718750
vt 0.421875 0.718750
vt 0.500000 0.531250
vt 0.156250 0.515625
vt 0.375000 0.515625
vt 0.375000 0.531250
vt 0.156250 0.531250
vt 0.593750 0.515625
vt 0.593750 0.531250
vt 0.156250 0.500000
vt 0.375000 0.500000
vt 0.593750 0.500000
vt 0.218750 1.000000
vt 0.000000 0.781250
vt 0.218750 0.781250
vt 0.218750 0.562500
vt 0.343750 0.718750
vt 0.500000 0.812500
s 0
usemtl m_d2f2942c-b4a6-45a1-1760-6428633fd652
f 36/67/11 39/68/11 37/69/11 34/70/11
f 35/71/12 36/71/12 34/72/12 33/72/12
f 40/68/13 35/73/13 33/74/13 38/69/13
f 39/71/12 40/71/12 38/72/12 37/72/12
f 38/75/14 33/72/15 34/72/16 37/75/17
f 39/75/18 36/72/15 35/72/19 40/75/17
f 44/76/20 47/77/20 45/78/20 42/79/20
f 43/71/12 44/71/12 42/72/12 41/72/12
f 48/80/21 43/81/21 41/77/21 46/76/21
f 47/71/12 48/71/12 46/72/12 45/72/12
f 46/75/20 41/72/17 42/72/20 45/75/17
f 47/75/21 44/72/17 43/72/21 48/75/17
f 52/82/13 55/83/13 53/84/13 50/85/13
f 51/71/12 52/71/12 50/72/12 49/72/12
f 56/77/11 51/86/11 49/87/11 54/78/11
f 55/71/12 56/71/12 54/72/12 53/72/12
f 54/75/16 49/72/17 50/72/14 53/75/15
f 55/75/19 52/72/17 51/72/18 56/75/15
f 60/84/22 63/88/22 61/89/22 58/90/22
f 59/71/12 60/71/12 58/72/12 57/72/12
f 64/83/23 59/91/23 57/88/23 62/84/23
f 63/71/12 64/71/12 62/72/12 61/72/12
f 62/75/24 57/72/15 58/72/25 61/75/17
f 63/75/26 60/72/15 59/72/27 64/75/17
f 68/92/23 71/93/23 69/94/23 66/95/23
f 67/93/11 68/96/11 66/97/11 65/94/11
f 72/98/22 67/99/22 65/93/22 70/92/22
f 71/99/13 72/100/13 70/96/13 69/93/13
f 70/101/15 65/72/15 66/102/15 69/103/15
f 71/104/17 68/70/17 67/102/17 72/103/17
f 76/105/28 79/90/28 77/81/28 74/80/28
f 75/71/12 76/71/12 74/72/12 73/72/12
f 80/85/29 75/84/29 73/90/29 78/105/29
f 79/71/12 80/71/12 78/72/12 77/72/12
f 78/75/30 73/72/17 74/72/31 77/75/17
f 79/75/30 76/72/17 75/72/31 80/75/17
f 84/81/23 87/106/23 85/86/23 82/77/23
f 83/71/12 84/71/12 82/72/12 81/72/12
f 88/90/22 83/89/22 81/106/22 86/81/22
f 87/71/12 88/71/12 86/72/12 85/72/12
f 86/75/25 81/72/17 82/72/24 85/75/15
f 87/75/27 84/72/17 83/72/26 88/75/15
o bipod
v -0.074556 0.644876 0.867148
v 0.075444 0.644876 0.867148
v -0.074556 0.582376 0.867148
v 0.075444 0.582376 0.867148
v 0.075444 0.644876 0.804648
v -0.074556 0.644876 0.804648
v 0.075444 0.582376 0.804648
v -0.074556 0.582376 0.804648
v -0.137056 0.644876 0.867148
v -0.074556 0.644876 0.867148
v -0.137056 0.582376 0.867148
v -0.074556 0.582376 0.867148
v -0.074556 0.644876 0.617148
v -0.137056 0.644876 0.617148
v -0.074556 0.582376 0.617148
v -0.137056 0.582376 0.617148
v 0.075444 0.644876 0.804648
v 0.137944 0.644876 0.804648
v 0.075444 0.582376 0.804648
v 0.137944 0.582376 0.804648
v 0.137944 0.644876 0.742148
v 0.075444 0.644876 0.742148
v 0.137944 0.582376 0.742148
v 0.075444 0.582376 0.742148
v -0.214111 0.010060 1.020730
v -0.214111 -0.110681 1.053082
v -0.151611 0.010060 1.020730
v -0.151611 -0.110681 1.053082
v -0.214111 -0.110681 1.053082
v -0.214111 0.010060 1.020730
v -0.151611 -0.110681 1.053082
v -0.151611 0.010060 1.020730
v 0.075444 0.644876 0.929648
v 0.075444 0.644876 0.929648
v 0.075444 0.582376 0.929648
v 0.075444 0.582376 0.929648
v 0.075444 0.644876 0.867148
v 0.075444 0.644876 0.867148
v 0.075444 0.582376 0.867148
v 0.075444 0.582376 0.867148
v -0.340747 0.333518 1.031117
v 0.031044 0.286238 1.043785
v -0.348905 0.273664 1.047154
v 0.022886 0.226384 1.059823
v 0.031044 0.270062 0.983415
v -0.340747 0.317342 0.970746
v 0.022886 0.210208 0.999452
v -0.348905 0.257488 0.986784
v 0.029158 0.354418 0.960812
v 0.088766 0.372572 0.955947
v 0.151320 -0.019828 1.061090
v 0.210927 -0.001674 1.056226
v 0.088766 0.356395 0.895577
v 0.029158 0.338242 0.900441
v 0.210927 -0.017850 0.995856
v 0.151320 -0.036004 1.000720
v -0.035118 0.340057 0.899955
v -0.094726 0.358211 0.895091
v -0.157280 -0.034188 1.000234
v -0.216887 -0.016035 0.995369
v -0.094726 0.374387 0.955461
v -0.035118 0.356233 0.960325
v -0.216887 0.000141 1.055740
v -0.157280 -0.018012 1.060604
v -0.276611 -0.014205 0.930174
v -0.276611 -0.014205 0.930174
v -0.089111 -0.014205 0.930174
v -0.089111 -0.014205 0.930174
v -0.276611 0.034324 1.111285
v -0.276611 0.034324 1.111285
v -0.089111 0.034324 1.111285
v -0.089111 0.034324 1.111285
v 0.082764 -0.014205 0.930174
v 0.082764 -0.014205 0.930174
v 0.270264 -0.014205 0.930174
v 0.270264 -0.014205 0.930174
v 0.082764 0.034324 1.111285
v 0.082764 0.034324 1.111285
v 0.270264 0.034324 1.111285
v 0.270264 0.034324 1.111285
v -0.033931 0.595812 0.896130
v 0.028569 0.595812 0.896130
v -0.033930 0.173219 1.009364
v 0.028570 0.173219 1.009364
v 0.028569 0.579636 0.835760
v -0.033931 0.579636 0.835760
v 0.028569 0.157043 0.948993
v -0.033931 0.157043 0.948993
v 0.214111 0.010060 1.020730
v 0.214111 -0.110681 1.053082
v 0.151611 0.010060 1.020730
v 0.151611 -0.110681 1.053082
v 0.214111 -0.110681 1.053082
v 0.214111 0.010060 1.020730
v 0.151611 -0.110681 1.053082
v 0.151611 0.010060 1.020730
vn 1.0000 -0.0000 -0.0000
vn -0.0000 -0.0000 1.0000
vn -1.0000 -0.0000 -0.0000
vn -0.0000 -0.0000 -1.0000
vn -0.0000 1.0000 -0.0000
vn -0.0000 -1.0000 -0.0000
vn -0.0000 -0.2589 -0.9659
vn -0.0000 -0.2588 -0.9659
vn -0.0000 0.2589 0.9659
vn -0.0000 0.2588 0.9659
vn 0.8855 -0.4647 -0.0000
vn 0.8730 0.4877 -0.0000
vn -0.8730 0.4877 -0.0000
vn -0.8855 -0.4647 -0.0000
vn -0.0000 -0.0000 -0.0000
vn 0.1464 -0.9239 -0.3535
vn -0.1464 -0.9239 0.3535
vn 0.9914 -0.1261 0.0338
vn -0.9914 0.1261 -0.0338
vn 0.1305 0.9577 -0.2566
vn -0.1305 -0.9577 0.2566
vn 0.9537 0.2905 -0.0778
vn -0.9537 -0.2905 0.0778
vn -0.3007 0.9212 -0.2468
vn 0.3007 -0.9212 0.2468
vn -0.9537 0.2905 -0.0778
vn 0.9537 -0.2905 0.0778
vn 0.3007 0.9212 -0.2468
vn -0.3007 -0.9212 0.2468
vn -0.0000 -0.9659 0.2588
vn -0.0000 0.9659 -0.2588
vn -0.7715 -0.6363 -0.0000
vn -0.8502 0.5265 -0.0000
vn 0.7715 -0.6363 -0.0000
vn 0.8502 0.5265 -0.0000
vt 0.531250 0.859375
vt 0.546875 0.859375
vt 0.546875 0.875000
vt 0.531250 0.875000
vt 0.015625 0.453125
vt 0.046875 0.453125
vt 0.046875 0.468750
vt 0.015625 0.468750
vt 0.140625 0.453125
vt 0.156250 0.453125
vt 0.156250 0.468750
vt 0.140625 0.468750
vt 0.531250 0.968750
vt 0.562500 0.968750
vt 0.562500 0.984375
vt 0.531250 0.984375
vt 0.546875 0.968750
vt 0.531250 0.937500
vt 0.546875 0.937500
vt 0.062500 0.437500
vt 0.046875 0.437500
vt 0.062500 0.468750
vt 0.156250 0.531250
vt 0.218750 0.531250
vt 0.218750 0.546875
vt 0.156250 0.546875
vt 0.531250 0.843750
vt 0.546875 0.843750
vt 0.281250 0.531250
vt 0.281250 0.546875
vt 0.531250 0.828125
vt 0.546875 0.828125
vt 0.343750 0.546875
vt 0.343750 0.531250
vt 0.578125 0.734375
vt 0.515625 0.734375
vt 0.515625 0.750000
vt 0.578125 0.750000
vt 0.531250 0.593750
vt 0.546875 0.593750
vt 0.546875 0.609375
vt 0.531250 0.609375
vt 0.531250 0.578125
vt 0.546875 0.578125
vt 0.531250 0.562500
vt 0.546875 0.562500
vt 0.531250 0.546875
vt 0.546875 0.546875
vt 0.531250 0.531250
vt 0.546875 0.531250
vt 0.546875 0.484375
vt 0.531250 0.484375
vt 0.531250 0.500000
vt 0.546875 0.500000
vt 0.000000 0.984375
vt 0.000000 1.000000
vt 0.062500 0.453125
vt 0.093750 0.453125
vt 0.093750 0.468750
vt 0.531250 0.921875
vt 0.562500 0.921875
vt 0.562500 0.937500
vt 0.000000 0.968750
vt 0.531250 0.812500
vt 0.546875 0.812500
vt 0.546875 0.625000
vt 0.531250 0.625000
vt 0.015625 1.000000
vt 0.531250 0.468750
vt 0.546875 0.468750
vt 0.250000 0.546875
vt 0.250000 0.562500
vt 0.156250 0.562500
vt 0.531250 0.453125
vt 0.546875 0.453125
vt 0.343750 0.562500
vt 0.515625 0.625000
vt 0.500000 0.625000
vt 0.500000 0.531250
vt 0.515625 0.531250
vt 0.421875 0.406250
vt 0.406250 0.406250
vt 0.406250 0.500000
vt 0.421875 0.500000
vt 0.437500 0.406250
vt 0.437500 0.500000
vt 0.453125 0.406250
vt 0.453125 0.500000
vt 0.468750 0.406250
vt 0.468750 0.500000
vt 0.484375 0.406250
vt 0.484375 0.500000
vt 0.031250 0.453125
vt 0.015625 0.437500
vt 0.031250 0.437500
vt 0.500000 0.406250
vt 0.500000 0.500000
vt 0.515625 0.406250
vt 0.515625 0.500000
vt 0.515625 0.906250
vt 0.531250 0.906250
vt 0.531250 1.000000
vt 0.515625 1.000000
vt 0.515625 0.812500
vt 0.546875 0.953125
vt 0.562500 0.953125
vt 0.250000 0.453125
vt 0.296875 0.453125
vt 0.296875 0.500000
vt 0.250000 0.500000
vt 0.000000 0.953125
vt 0.500000 0.671875
vt 0.546875 0.671875
vt 0.546875 0.718750
vt 0.500000 0.718750
vt 0.046875 1.000000
vt 0.343750 0.453125
vt 0.343750 0.500000
vt 0.343750 0.390625
vt 0.359375 0.390625
vt 0.359375 0.500000
vt 0.375000 0.390625
vt 0.375000 0.500000
vt 0.390625 0.390625
vt 0.390625 0.500000
vt 0.406250 0.390625
vt 0.078125 0.453125
vt 0.078125 0.437500
vt 0.093750 0.437500
vt 0.515625 0.718750
vt 0.546875 0.734375
vt 0.562500 1.000000
s 0
usemtl m_d2f2942c-b4a6-45a1-1760-6428633fd652
f 92/107/32 95/108/32 93/109/32 90/110/32
f 91/111/33 92/112/33 90/113/33 89/114/33
f 96/115/34 91/116/34 89/117/34 94/118/34
f 95/119/35 96/120/35 94/121/35 93/122/35
f 94/123/36 89/119/36 90/124/36 93/125/36
f 95/126/37 92/127/37 91/113/37 96/128/37
f 100/129/32 103/130/32 101/131/32 98/132/32
f 99/133/33 100/134/33 98/108/33 97/107/33
f 104/130/34 99/135/34 97/136/34 102/131/34
f 103/137/35 104/138/35 102/134/35 101/133/35
f 102/139/36 97/136/36 98/135/36 101/140/36
f 103/141/37 100/142/37 99/143/37 104/144/37
f 108/145/32 111/146/32 109/147/32 106/148/32
f 107/149/33 108/150/33 106/146/33 105/145/33
f 112/151/34 107/152/34 105/150/34 110/149/34
f 111/153/35 112/154/35 110/152/35 109/151/35
f 110/154/36 105/153/36 106/155/36 109/156/36
f 111/157/37 108/158/37 107/159/37 112/160/37
f 116/161/37 119/161/38 117/162/37 114/162/38
f 115/163/39 116/164/39 114/165/39 113/128/39
f 120/161/36 115/161/40 113/162/36 118/162/40
f 119/166/41 120/167/41 118/168/41 117/124/41
f 118/162/37 113/162/42 114/169/36 117/169/43
f 119/169/36 116/169/44 115/162/37 120/162/45
f 124/170/32 127/171/32 125/138/32 122/137/32
f 123/161/46 124/161/46 122/162/46 121/162/46
f 128/148/34 123/147/34 121/172/34 126/173/34
f 127/161/46 128/161/46 126/162/46 125/162/46
f 126/174/47 121/162/37 122/162/48 125/174/37
f 127/174/47 124/162/37 123/162/48 128/174/37
f 132/175/49 135/176/49 133/157/49 130/158/49
f 131/132/41 132/177/41 130/178/41 129/179/41
f 136/180/50 131/181/50 129/176/50 134/175/50
f 135/177/39 136/139/39 134/182/39 133/178/39
f 134/183/51 129/184/51 130/185/51 133/186/51
f 135/187/52 132/188/52 131/189/52 136/190/52
f 140/187/53 143/191/53 141/192/53 138/190/53
f 139/191/41 140/193/41 138/194/41 137/192/41
f 144/193/54 139/195/54 137/196/54 142/194/54
f 143/195/39 144/197/39 142/198/39 141/196/39
f 142/199/55 137/111/55 138/200/55 141/201/55
f 143/127/56 140/201/56 139/199/56 144/112/56
f 148/197/57 151/202/57 149/203/57 146/198/57
f 147/202/39 148/204/39 146/205/39 145/203/39
f 152/206/58 147/207/58 145/208/58 150/209/58
f 151/210/41 152/170/41 150/207/41 149/206/41
f 150/120/59 145/123/59 146/211/59 149/212/59
f 151/168/60 148/125/60 147/211/60 152/212/60
f 156/213/61 159/214/61 157/215/61 154/216/61
f 155/217/36 156/217/62 154/162/36 153/162/62
f 160/218/62 155/219/62 153/220/62 158/221/62
f 159/217/37 160/217/61 158/162/37 157/162/61
f 158/222/63 153/162/36 154/162/64 157/222/37
f 159/222/65 156/162/36 155/162/66 160/222/37
f 164/214/61 167/223/61 165/224/61 162/215/61
f 163/217/36 164/217/62 162/162/36 161/162/62
f 168/184/62 163/172/62 161/219/62 166/218/62
f 167/217/37 168/217/61 166/162/37 165/162/61
f 166/222/63 161/162/36 162/162/64 165/222/37
f 167/222/65 164/162/36 163/162/66 168/222/37
f 172/225/32 175/226/32 173/227/32 170/224/32
f 171/226/41 172/228/41 170/229/41 169/227/41
f 176/228/34 171/230/34 169/231/34 174/229/34
f 175/230/39 176/232/39 174/189/39 173/231/39
f 174/233/62 169/163/62 170/126/62 173/234/62
f 175/235/61 172/234/61 171/233/61 176/164/61
f 180/161/37 183/161/38 181/162/37 178/162/38
f 179/236/41 180/220/41 178/237/41 177/142/41
f 184/161/36 179/161/40 177/162/36 182/162/40
f 183/122/39 184/121/39 182/238/39 181/208/39
f 182/162/37 177/162/45 178/169/36 181/169/44
f 183/169/36 180/169/43 179/162/37 184/162/42
