# Blender 4.0.2
# www.blender.org
mtllib kornet_tripod.mtl
o trenoga
v 0.007526 0.774199 -0.078206
v -0.066564 0.774199 -0.004116
v 0.007526 0.750915 -0.078206
v -0.066564 0.750915 -0.004116
v 0.015758 0.774199 0.078206
v 0.089848 0.774199 0.004116
v 0.015758 0.750915 0.078206
v 0.089848 0.750915 0.004116
v 0.007526 0.774199 -0.028813
v -0.025403 0.774199 0.004116
v 0.007526 0.651957 -0.028813
v -0.025403 0.651957 0.004116
v 0.007526 0.774199 0.037045
v 0.040455 0.774199 0.004116
v 0.007526 0.651957 0.037045
v 0.040455 0.651957 0.004116
v 0.030810 0.607498 -0.150187
v -0.015758 0.607498 -0.150187
v 0.030810 0.670736 0.006332
v -0.015758 0.670736 0.006332
v -0.015758 0.650675 -0.167631
v 0.030810 0.650675 -0.167631
v -0.015758 0.713913 -0.011113
v 0.030810 0.713913 -0.011113
v 0.019612 0.667317 -0.022686
v -0.006203 0.668262 0.016062
v 0.149400 0.622024 0.064888
v 0.123586 0.622969 0.103635
v 0.005072 0.712986 0.022483
v 0.030887 0.712041 -0.016265
v 0.134861 0.667694 0.110056
v 0.160675 0.666749 0.071309
v -0.141904 0.621286 0.055082
v -0.118773 0.621315 0.095499
v -0.006060 0.666699 -0.022696
v 0.017072 0.666728 0.017721
v -0.130048 0.666039 0.101920
v -0.153179 0.666010 0.061503
v 0.005797 0.711452 0.024142
v -0.017335 0.711423 -0.016275
v 0.125292 0.647173 0.048213
v 0.100045 0.646644 0.087340
v 0.388477 -0.018279 0.209019
v 0.363230 -0.018809 0.248146
v 0.135428 0.666219 0.110436
v 0.160675 0.666749 0.071309
v 0.398614 0.000767 0.271242
v 0.423860 0.001297 0.232115
v 0.392981 -0.000604 0.191380
v 0.345644 -0.001597 0.264744
v 0.446786 -0.000762 0.226095
v 0.399448 -0.001755 0.299459
v 0.345572 0.015865 0.264934
v 0.392910 0.016858 0.191571
v 0.399377 0.015707 0.299649
v 0.446714 0.016700 0.226285
v 0.365177 0.032404 0.173887
v 0.317840 0.031410 0.247250
v 0.392981 -0.000604 0.191380
v 0.345644 -0.001597 0.264744
v 0.328165 0.043727 0.254080
v 0.375503 0.044721 0.180716
v 0.355969 0.010720 0.271573
v 0.403307 0.011713 0.198210
v -0.340539 -0.000812 0.255879
v -0.385072 -0.001806 0.180780
v -0.395613 -0.000970 0.288540
v -0.440147 -0.001964 0.213442
v -0.385211 0.015656 0.180631
v -0.340677 0.016650 0.255730
v -0.440286 0.015498 0.213293
v -0.395752 0.016492 0.288391
v -0.312477 0.032195 0.238801
v -0.357011 0.031202 0.163703
v -0.340539 -0.000812 0.255879
v -0.385072 -0.001806 0.180780
v -0.367729 0.043519 0.169896
v -0.323196 0.044513 0.244995
v -0.395791 0.010511 0.186973
v -0.351257 0.011505 0.262072
v -0.092970 0.646965 0.080195
v -0.116722 0.646435 0.040142
v -0.354314 -0.018487 0.243977
v -0.378065 -0.019017 0.203925
v -0.153179 0.666010 0.061503
v -0.129428 0.666540 0.101555
v -0.414523 0.000558 0.225285
v -0.390771 0.001088 0.265338
v -0.032457 -0.004505 -0.430087
v 0.054809 -0.005499 -0.427296
v -0.030411 -0.004663 -0.494086
v 0.056854 -0.005656 -0.491295
v 0.055009 0.011963 -0.427332
v -0.032257 0.012957 -0.430124
v 0.057054 0.011806 -0.491331
v -0.030211 0.012799 -0.494122
v -0.033131 0.028503 -0.397244
v 0.054134 0.027509 -0.394453
v -0.032457 -0.004505 -0.430087
v 0.054809 -0.005499 -0.427296
v 0.054670 0.039826 -0.406821
v -0.032595 0.040820 -0.409612
v 0.055345 0.006819 -0.439664
v -0.031921 0.007812 -0.442455
v -0.017305 0.631630 -0.126895
v 0.029237 0.631100 -0.125407
v -0.015090 -0.012697 -0.425519
v 0.031451 -0.013226 -0.424031
v 0.030810 0.650675 -0.167631
v -0.015731 0.651205 -0.169120
v 0.033025 0.006349 -0.466255
v -0.013517 0.006879 -0.467744
v -0.046445 0.556511 0.187358
v -0.141179 0.575751 0.103362
v -0.254439 0.079174 0.312607
v -0.349173 0.098414 0.228610
v -0.141179 0.575751 0.103362
v -0.046445 0.556511 0.187358
v -0.349173 0.098414 0.228610
v -0.254439 0.079174 0.312607
v 0.024808 0.406127 -0.249127
v 0.181886 0.404339 -0.244103
v 0.025770 0.126215 -0.378858
v 0.182848 0.124426 -0.373834
v 0.181886 0.404339 -0.244103
v 0.024808 0.406127 -0.249127
v 0.182848 0.124426 -0.373834
v 0.025770 0.126215 -0.378858
v 0.098958 0.663599 -0.023284
v -0.093137 0.663599 -0.023284
v 0.098958 0.663599 -0.023284
v -0.093137 0.663599 -0.023284
v -0.093137 0.663599 0.209558
v 0.098958 0.663599 0.209558
v -0.093137 0.663599 0.209558
v 0.098958 0.663599 0.209558
vn -0.7071 -0.0000 0.7071
vn -0.7071 -0.0000 -0.7071
vn 0.7071 -0.0000 -0.7071
vn 0.7071 -0.0000 0.7071
vn -0.0000 1.0000 -0.0000
vn -0.0000 -1.0000 -0.0000
vn -1.0000 -0.0000 -0.0000
vn -0.0000 -0.9272 0.3746
vn 1.0000 -0.0000 -0.0000
vn -0.0000 0.9272 -0.3746
vn -0.0000 -0.3746 -0.9272
vn -0.0000 0.3746 0.9272
vn -0.5543 0.0203 0.8320
vn -0.2421 -0.9604 -0.1379
vn 0.5543 -0.0203 -0.8320
vn 0.2421 0.9604 0.1379
vn -0.7963 0.2779 -0.5373
vn 0.7963 -0.2779 0.5373
vn 0.4967 0.0006 0.8679
vn 0.2421 -0.9604 -0.1379
vn -0.4967 -0.0006 -0.8679
vn -0.2421 0.9604 0.1379
vn -0.8335 -0.2786 0.4772
vn 0.8335 0.2786 -0.4772
vn -0.5421 -0.0114 0.8402
vn -0.7598 -0.4204 -0.4960
vn 0.5421 0.0114 -0.8402
vn 0.7598 0.4204 0.4960
vn -0.3588 0.9073 -0.2192
vn 0.3588 -0.9073 0.2192
vn 0.0041 -0.9999 -0.0109
vn -0.0041 0.9999 0.0109
vn -0.8403 0.0025 -0.5422
vn 0.8403 -0.0025 0.5422
vn -0.5913 -0.7053 -0.3911
vn 0.5913 0.7053 0.3911
vn -0.5971 0.7088 -0.3757
vn 0.5971 -0.7088 0.3757
vn -0.5100 -0.0114 -0.8601
vn 0.0079 -0.9999 0.0085
vn 0.5100 0.0114 0.8601
vn -0.0079 0.9999 -0.0085
vn 0.8601 0.0025 -0.5101
vn -0.8601 -0.0025 0.5101
vn 0.6138 -0.7053 -0.3547
vn -0.6138 0.7053 0.3547
vn 0.6026 0.7088 -0.3667
vn -0.6026 -0.7088 0.3667
vn 0.7829 -0.4204 -0.4587
vn -0.7829 0.4204 0.4587
vn 0.3563 0.9073 -0.2233
vn -0.3563 -0.9073 0.2233
vn 0.9994 -0.0114 0.0320
vn -0.0115 -0.9999 0.0021
vn -0.9994 0.0114 -0.0320
vn 0.0115 0.9999 -0.0021
vn -0.0319 0.0025 0.9995
vn 0.0319 -0.0025 -0.9995
vn -0.0307 -0.7053 0.7082
vn 0.0307 0.7053 -0.7082
vn -0.0145 0.7088 0.7053
vn 0.0145 -0.7088 -0.7053
vn -0.0338 -0.4204 0.9067
vn 0.0338 0.4204 -0.9067
vn -0.0031 0.9073 0.4205
vn 0.0031 -0.9073 -0.4205
vn 0.7256 -0.5275 0.4418
vn 0.3612 -0.9062 0.2199
vn 0.5495 -0.4277 -0.7177
vn -0.4459 0.8529 -0.2716
vn -0.6606 0.6338 -0.4023
vn -0.5495 0.4277 0.7177
vn -0.7215 0.6357 0.2746
vn -0.9307 -0.0911 0.3542
vn 0.6428 -0.7259 -0.2446
vn 0.9309 0.0884 -0.3543
vn 0.0215 0.9998 0.0021
vn 0.0460 0.9989 0.0046
vn -0.4041 -0.9138 -0.0403
vn 0.3413 -0.9394 0.0340
vn 0.0470 -0.6197 0.7835
vn 0.0522 0.4949 0.8674
vn -0.0520 0.4986 -0.8653
vn -0.0473 -0.6154 -0.7868
vn 0.3535 -0.9239 0.1464
vn -0.3535 -0.9239 -0.1464
vt 0.617188 0.664062
vt 0.648438 0.664062
vt 0.648438 0.671875
vt 0.617188 0.671875
vt 0.000000 0.359375
vt 0.031250 0.359375
vt 0.031250 0.367188
vt 0.000000 0.367188
vt 0.632812 0.992188
vt 0.664062 0.992188
vt 0.664062 1.000000
vt 0.632812 1.000000
vt 0.632812 0.976562
vt 0.664062 0.976562
vt 0.664062 0.984375
vt 0.632812 0.984375
vt 0.523438 0.960938
vt 0.492188 0.960938
vt 0.492188 0.929688
vt 0.523438 0.929688
vt 0.031250 0.460938
vt 0.000000 0.460938
vt 0.000000 0.492188
vt 0.031250 0.492188
vt 0.578125 0.585938
vt 0.593750 0.585938
vt 0.593750 0.617188
vt 0.578125 0.617188
vt 0.507812 0.390625
vt 0.523438 0.390625
vt 0.523438 0.421875
vt 0.507812 0.421875
vt 0.531250 0.390625
vt 0.546875 0.390625
vt 0.546875 0.421875
vt 0.531250 0.421875
vt 0.585938 0.546875
vt 0.601562 0.546875
vt 0.601562 0.578125
vt 0.585938 0.578125
vt 0.648438 0.937500
vt 0.632812 0.937500
vt 0.632812 0.921875
vt 0.648438 0.921875
vt 0.648438 0.898438
vt 0.632812 0.898438
vt 0.632812 0.914062
vt 0.648438 0.914062
vt 0.507812 0.429688
vt 0.523438 0.429688
vt 0.523438 0.476562
vt 0.507812 0.476562
vt 0.531250 0.953125
vt 0.546875 0.953125
vt 0.546875 1.000000
vt 0.531250 1.000000
vt 0.531250 0.898438
vt 0.546875 0.898438
vt 0.546875 0.945312
vt 0.531250 0.945312
vt 0.531250 0.429688
vt 0.546875 0.429688
vt 0.546875 0.476562
vt 0.531250 0.476562
vt 0.648438 0.890625
vt 0.632812 0.890625
vt 0.632812 0.875000
vt 0.648438 0.875000
vt 0.132812 0.351562
vt 0.117188 0.351562
vt 0.117188 0.367188
vt 0.132812 0.367188
vt 0.406250 0.414062
vt 0.421875 0.414062
vt 0.421875 0.460938
vt 0.406250 0.460938
vt 0.429688 0.414062
vt 0.445312 0.414062
vt 0.445312 0.460938
vt 0.429688 0.460938
vt 0.000000 0.406250
vt 0.015625 0.406250
vt 0.015625 0.453125
vt 0.000000 0.453125
vt 0.546875 0.796875
vt 0.562500 0.796875
vt 0.562500 0.843750
vt 0.546875 0.843750
vt 0.156250 0.367188
vt 0.140625 0.367188
vt 0.140625 0.351562
vt 0.156250 0.351562
vt 0.179688 0.351562
vt 0.164062 0.351562
vt 0.164062 0.367188
vt 0.179688 0.367188
vt 0.218750 0.406250
vt 0.234375 0.406250
vt 0.234375 0.453125
vt 0.218750 0.453125
vt 0.242188 0.406250
vt 0.257812 0.406250
vt 0.257812 0.453125
vt 0.242188 0.453125
vt 0.296875 0.406250
vt 0.312500 0.406250
vt 0.312500 0.453125
vt 0.296875 0.453125
vt 0.554688 0.953125
vt 0.570312 0.953125
vt 0.570312 1.000000
vt 0.554688 1.000000
vt 0.648438 0.835938
vt 0.632812 0.835938
vt 0.632812 0.820312
vt 0.648438 0.820312
vt 0.648438 0.796875
vt 0.632812 0.796875
vt 0.632812 0.812500
vt 0.648438 0.812500
vt 0.312500 0.710938
vt 0.328125 0.710938
vt 0.328125 0.906250
vt 0.312500 0.906250
vt 0.312500 0.507812
vt 0.328125 0.507812
vt 0.328125 0.703125
vt 0.312500 0.703125
vt 0.078125 0.484375
vt 0.093750 0.484375
vt 0.093750 0.679688
vt 0.078125 0.679688
vt 0.101562 0.484375
vt 0.117188 0.484375
vt 0.117188 0.679688
vt 0.101562 0.679688
vt 0.648438 0.789062
vt 0.632812 0.789062
vt 0.632812 0.773438
vt 0.648438 0.773438
vt 0.648438 0.750000
vt 0.632812 0.750000
vt 0.632812 0.765625
vt 0.648438 0.765625
vt 0.656250 0.750000
vt 0.664062 0.750000
vt 0.664062 0.765625
vt 0.656250 0.765625
vt 0.601562 0.695312
vt 0.625000 0.695312
vt 0.625000 0.710938
vt 0.601562 0.710938
vt 0.250000 0.328125
vt 0.257812 0.328125
vt 0.257812 0.343750
vt 0.250000 0.343750
vt 0.601562 0.601562
vt 0.625000 0.601562
vt 0.625000 0.617188
vt 0.601562 0.617188
vt 0.437500 0.351562
vt 0.429688 0.351562
vt 0.429688 0.328125
vt 0.437500 0.328125
vt 0.656250 0.476562
vt 0.648438 0.476562
vt 0.648438 0.500000
vt 0.656250 0.500000
vt 0.281250 0.328125
vt 0.289062 0.328125
vt 0.289062 0.343750
vt 0.281250 0.343750
vt 0.437500 0.382812
vt 0.460938 0.382812
vt 0.460938 0.398438
vt 0.437500 0.398438
vt 0.656250 0.703125
vt 0.664062 0.703125
vt 0.664062 0.718750
vt 0.656250 0.718750
vt 0.554688 0.382812
vt 0.578125 0.382812
vt 0.578125 0.398438
vt 0.554688 0.398438
vt 0.656250 0.468750
vt 0.648438 0.468750
vt 0.648438 0.445312
vt 0.656250 0.445312
vt 0.554688 0.328125
vt 0.546875 0.328125
vt 0.546875 0.351562
vt 0.554688 0.351562
vt 0.296875 0.328125
vt 0.304688 0.328125
vt 0.304688 0.343750
vt 0.296875 0.343750
vt 0.023438 0.375000
vt 0.046875 0.375000
vt 0.046875 0.390625
vt 0.023438 0.390625
vt 0.656250 0.679688
vt 0.664062 0.679688
vt 0.664062 0.695312
vt 0.656250 0.695312
vt 0.164062 0.375000
vt 0.187500 0.375000
vt 0.187500 0.390625
vt 0.164062 0.390625
vt 0.656250 0.437500
vt 0.648438 0.437500
vt 0.648438 0.414062
vt 0.656250 0.414062
vt 0.656250 0.382812
vt 0.648438 0.382812
vt 0.648438 0.406250
vt 0.656250 0.406250
vt 0.656250 0.656250
vt 0.664062 0.656250
vt 0.664062 0.671875
vt 0.656250 0.671875
vt 0.367188 0.375000
vt 0.390625 0.375000
vt 0.390625 0.390625
vt 0.367188 0.390625
vt 0.359375 0.328125
vt 0.367188 0.328125
vt 0.367188 0.343750
vt 0.359375 0.343750
vt 0.609375 0.578125
vt 0.632812 0.578125
vt 0.632812 0.593750
vt 0.609375 0.593750
vt 0.664062 0.953125
vt 0.656250 0.953125
vt 0.656250 0.929688
vt 0.664062 0.929688
vt 0.664062 0.898438
vt 0.656250 0.898438
vt 0.656250 0.921875
vt 0.664062 0.921875
vt 0.125000 0.484375
vt 0.140625 0.484375
vt 0.140625 0.679688
vt 0.125000 0.679688
vt 0.148438 0.484375
vt 0.164062 0.484375
vt 0.164062 0.679688
vt 0.148438 0.679688
vt 0.171875 0.484375
vt 0.187500 0.484375
vt 0.187500 0.679688
vt 0.171875 0.679688
vt 0.195312 0.484375
vt 0.210938 0.484375
vt 0.210938 0.679688
vt 0.195312 0.679688
vt 0.648438 0.718750
vt 0.632812 0.718750
vt 0.632812 0.703125
vt 0.648438 0.703125
vt 0.304688 0.351562
vt 0.289062 0.351562
vt 0.289062 0.367188
vt 0.304688 0.367188
vt 0.656250 0.609375
vt 0.664062 0.609375
vt 0.664062 0.625000
vt 0.656250 0.625000
vt 0.609375 0.554688
vt 0.632812 0.554688
vt 0.632812 0.570312
vt 0.609375 0.570312
vt 0.656250 0.585938
vt 0.664062 0.585938
vt 0.664062 0.601562
vt 0.656250 0.601562
vt 0.609375 0.531250
vt 0.632812 0.531250
vt 0.632812 0.546875
vt 0.609375 0.546875
vt 0.125000 0.343750
vt 0.117188 0.343750
vt 0.117188 0.320312
vt 0.125000 0.320312
vt 0.140625 0.320312
vt 0.132812 0.320312
vt 0.132812 0.343750
vt 0.140625 0.343750
vt 0.656250 0.531250
vt 0.664062 0.531250
vt 0.664062 0.546875
vt 0.656250 0.546875
vt 0.468750 0.375000
vt 0.492188 0.375000
vt 0.492188 0.390625
vt 0.468750 0.390625
vt 0.531250 0.328125
vt 0.539062 0.328125
vt 0.539062 0.343750
vt 0.531250 0.343750
vt 0.609375 0.507812
vt 0.632812 0.507812
vt 0.632812 0.523438
vt 0.609375 0.523438
vt 0.156250 0.343750
vt 0.148438 0.343750
vt 0.148438 0.320312
vt 0.156250 0.320312
vt 0.171875 0.320312
vt 0.164062 0.320312
vt 0.164062 0.343750
vt 0.171875 0.343750
vt 0.335938 0.718750
vt 0.351562 0.718750
vt 0.351562 0.906250
vt 0.335938 0.906250
vt 0.335938 0.523438
vt 0.351562 0.523438
vt 0.351562 0.710938
vt 0.335938 0.710938
vt 0.218750 0.460938
vt 0.234375 0.460938
vt 0.234375 0.648438
vt 0.218750 0.648438
vt 0.242188 0.460938
vt 0.257812 0.460938
vt 0.257812 0.648438
vt 0.242188 0.648438
vt 0.375000 0.367188
vt 0.359375 0.367188
vt 0.359375 0.351562
vt 0.375000 0.351562
vt 0.648438 0.601562
vt 0.632812 0.601562
vt 0.632812 0.617188
vt 0.648438 0.617188
vt 0.062500 0.195312
vt 0.062500 0.335938
vt 0.000000 0.640625
vt 0.031250 0.640625
vt 0.031250 0.781250
vt 0.000000 0.781250
vt 0.242188 0.195312
vt 0.242188 0.335938
vt 0.039062 0.640625
vt 0.070312 0.640625
vt 0.070312 0.781250
vt 0.039062 0.781250
vt 0.421875 0.335938
vt 0.421875 0.304688
vt 0.523438 0.304688
vt 0.523438 0.335938
vt 0.617188 0.250000
vt 0.617188 0.335938
vt 0.218750 0.656250
vt 0.257812 0.656250
vt 0.257812 0.742188
vt 0.218750 0.742188
vt 0.671875 0.875000
vt 0.671875 0.960938
vt 0.265625 0.656250
vt 0.304688 0.656250
vt 0.304688 0.742188
vt 0.265625 0.742188
vt 0.070312 0.328125
vt 0.070312 0.289062
vt 0.078125 0.289062
vt 0.078125 0.328125
vt 0.671875 0.835938
vt 0.734375 0.835938
vt 0.671875 0.828125
vt 0.726562 0.828125
vt 0.671875 0.820312
vt 0.734375 0.820312
vt 0.671875 0.812500
vt 0.726562 0.812500
vt 0.140625 0.742188
vt 0.078125 0.742188
vt 0.078125 0.687500
vt 0.140625 0.687500
vt 0.210938 0.687500
vt 0.148438 0.687500
vt 0.148438 0.742188
vt 0.210938 0.742188
s 0
usemtl m_387c0e2e-140d-bba2-8d54-62c0f75a7408
f 4/1/1 7/2/1 5/3/1 2/4/1
f 3/5/2 4/6/2 2/7/2 1/8/2
f 8/9/3 3/10/3 1/11/3 6/12/3
f 7/13/4 8/14/4 6/15/4 5/16/4
f 6/17/5 1/18/5 2/19/5 5/20/5
f 7/21/6 4/22/6 3/23/6 8/24/6
f 12/25/1 15/26/1 13/27/1 10/28/1
f 11/29/2 12/30/2 10/31/2 9/32/2
f 16/33/3 11/34/3 9/35/3 14/36/3
f 15/37/4 16/38/4 14/39/4 13/40/4
f 14/41/5 9/42/5 10/43/5 13/44/5
f 15/45/6 12/46/6 11/47/6 16/48/6
f 20/49/7 23/50/7 21/51/7 18/52/7
f 19/53/8 20/54/8 18/55/8 17/56/8
f 24/57/9 19/58/9 17/59/9 22/60/9
f 23/61/10 24/62/10 22/63/10 21/64/10
f 22/65/11 17/66/11 18/67/11 21/68/11
f 23/69/12 20/70/12 19/71/12 24/72/12
f 28/73/13 31/74/13 29/75/13 26/76/13
f 27/77/14 28/78/14 26/79/14 25/80/14
f 32/81/15 27/82/15 25/83/15 30/84/15
f 31/85/16 32/86/16 30/87/16 29/88/16
f 30/89/17 25/90/17 26/91/17 29/92/17
f 31/93/18 28/94/18 27/95/18 32/96/18
f 36/97/19 39/98/19 37/99/19 34/100/19
f 35/101/20 36/102/20 34/103/20 33/104/20
f 40/105/21 35/106/21 33/107/21 38/108/21
f 39/109/22 40/110/22 38/111/22 37/112/22
f 38/113/23 33/114/23 34/115/23 37/116/23
f 39/117/24 36/118/24 35/119/24 40/120/24
f 44/121/25 47/122/25 45/123/25 42/124/25
f 43/125/26 44/126/26 42/127/26 41/128/26
f 48/129/27 43/130/27 41/131/27 46/132/27
f 47/133/28 48/134/28 46/135/28 45/136/28
f 46/137/29 41/138/29 42/139/29 45/140/29
f 47/141/30 44/142/30 43/143/30 48/144/30
f 52/145/25 55/146/25 53/147/25 50/148/25
f 51/149/31 52/150/31 50/151/31 49/152/31
f 56/153/27 51/154/27 49/155/27 54/156/27
f 55/157/32 56/158/32 54/159/32 53/160/32
f 54/161/33 49/162/33 50/163/33 53/164/33
f 55/165/34 52/166/34 51/167/34 56/168/34
f 60/169/25 63/170/25 61/171/25 58/172/25
f 59/173/35 60/174/35 58/175/35 57/176/35
f 64/177/27 59/178/27 57/179/27 62/180/27
f 63/181/36 64/182/36 62/183/36 61/184/36
f 62/185/37 57/186/37 58/187/37 61/188/37
f 63/189/38 60/190/38 59/191/38 64/192/38
f 68/193/39 71/194/39 69/195/39 66/196/39
f 67/197/40 68/198/40 66/199/40 65/200/40
f 72/201/41 67/202/41 65/203/41 70/204/41
f 71/205/42 72/206/42 70/207/42 69/208/42
f 70/209/43 65/210/43 66/211/43 69/212/43
f 71/213/44 68/214/44 67/215/44 72/216/44
f 76/217/39 79/218/39 77/219/39 74/220/39
f 75/221/45 76/222/45 74/223/45 73/224/45
f 80/225/41 75/226/41 73/227/41 78/228/41
f 79/229/46 80/230/46 78/231/46 77/232/46
f 78/233/47 73/234/47 74/235/47 77/236/47
f 79/237/48 76/238/48 75/239/48 80/240/48
f 84/241/39 87/242/39 85/243/39 82/244/39
f 83/245/49 84/246/49 82/247/49 81/248/49
f 88/249/41 83/250/41 81/251/41 86/252/41
f 87/253/50 88/254/50 86/255/50 85/256/50
f 86/257/51 81/258/51 82/259/51 85/260/51
f 87/261/52 84/262/52 83/263/52 88/264/52
f 92/265/53 95/266/53 93/267/53 90/268/53
f 91/269/54 92/270/54 90/271/54 89/272/54
f 96/273/55 91/274/55 89/275/55 94/276/55
f 95/277/56 96/278/56 94/279/56 93/280/56
f 94/281/57 89/282/57 90/283/57 93/284/57
f 95/285/58 92/286/58 91/287/58 96/288/58
f 100/289/53 103/290/53 101/291/53 98/292/53
f 99/293/59 100/294/59 98/295/59 97/296/59
f 104/297/55 99/298/55 97/299/55 102/300/55
f 103/301/60 104/302/60 102/303/60 101/304/60
f 102/305/61 97/306/61 98/307/61 101/308/61
f 103/309/62 100/310/62 99/311/62 104/312/62
f 108/313/53 111/314/53 109/315/53 106/316/53
f 107/317/63 108/318/63 106/319/63 105/320/63
f 112/321/55 107/322/55 105/323/55 110/324/55
f 111/325/64 112/326/64 110/327/64 109/328/64
f 110/329/65 105/330/65 106/331/65 109/332/65
f 111/333/66 108/334/66 107/335/66 112/336/66
f 116/337/6 119/337/67 117/338/6 114/338/68
f 115/339/69 116/340/69 114/341/69 113/342/69
f 120/343/5 115/343/70 113/344/5 118/344/71
f 119/345/72 120/346/72 118/347/72 117/348/72
f 118/349/5 113/349/73 114/350/6 117/350/74
f 119/351/6 116/351/75 115/352/5 120/352/76
f 124/353/5 127/353/77 125/354/5 122/354/78
f 123/355/63 124/356/63 122/357/63 121/358/63
f 128/359/6 123/359/79 121/360/6 126/360/80
f 127/361/64 128/362/64 126/363/64 125/364/64
f 126/365/6 121/365/81 122/366/5 125/366/82
f 127/367/5 124/367/83 123/368/6 128/368/84
f 132/369/6 135/370/6 133/370/6 130/369/6
f 131/371/85 132/372/6 130/372/86 129/371/6
f 136/373/5 131/374/5 129/374/5 134/373/5
f 135/375/86 136/376/6 134/376/85 133/375/6
f 134/377/5 129/378/5 130/379/5 133/380/5
f 135/381/6 132/382/6 131/383/6 136/384/6
