# Blender 4.0.0
# www.blender.org
mtllib bmp3_tracks.mtl
o gusr
v 0.200548 -0.005152 0.123570
v 0.200548 -0.005152 -0.117580
v 0.200548 -0.034104 0.123570
v 0.200548 -0.034104 -0.117580
v -0.195858 -0.005152 -0.117580
v -0.195858 -0.005152 0.123570
v -0.195858 -0.034104 -0.117580
v -0.195858 -0.034104 0.123570
v 0.153726 0.045640 0.075040
v 0.153726 0.045640 -0.081031
v 0.153726 -0.006384 0.075040
v 0.153726 -0.006384 -0.081031
v -0.158417 0.045640 -0.081031
v -0.158417 0.045640 0.075040
v -0.158417 -0.006384 -0.081031
v -0.158417 -0.006384 0.075040
v 0.200548 -0.005152 0.123570
v 0.200548 -0.005152 -0.117580
v 0.200548 -0.034104 0.123570
v 0.200548 -0.034104 -0.117580
v -0.195858 -0.005152 -0.117580
v -0.195858 -0.005152 0.123570
v -0.195858 -0.034104 -0.117580
v -0.195858 -0.034104 0.123570
v 0.153726 0.045640 0.075040
v 0.153726 0.045640 -0.081031
v 0.153726 -0.006384 0.075040
v 0.153726 -0.006384 -0.081031
v -0.158417 0.045640 -0.081031
v -0.158417 0.045640 0.075040
v -0.158417 -0.006384 -0.081031
v -0.158417 -0.006384 0.075040
vn -0.0000 -0.0000 -1.0000
vn 1.0000 -0.0000 -0.0000
vn -0.0000 -0.0000 1.0000
vn -1.0000 -0.0000 -0.0000
vn -0.0000 1.0000 -0.0000
vn -0.0000 -1.0000 -0.0000
vt 0.878906 0.699219
vt 0.894531 0.699219
vt 0.894531 0.701172
vt 0.878906 0.701172
vt 0.890625 0.689453
vt 0.900391 0.689453
vt 0.900391 0.691406
vt 0.890625 0.691406
vt 0.878906 0.697266
vt 0.894531 0.697266
vt 0.890625 0.675781
vt 0.900391 0.675781
vt 0.900391 0.677734
vt 0.890625 0.677734
vt 0.080078 0.181641
vt 0.064453 0.181641
vt 0.064453 0.171875
vt 0.080078 0.171875
vt 0.095703 0.171875
vt 0.095703 0.181641
vt 0.884766 0.365234
vt 0.896484 0.365234
vt 0.896484 0.367188
vt 0.884766 0.367188
vt 0.458984 0.103516
vt 0.464844 0.103516
vt 0.464844 0.105469
vt 0.458984 0.105469
vt 0.884766 0.363281
vt 0.896484 0.363281
vt 0.894531 0.521484
vt 0.900391 0.521484
vt 0.900391 0.523438
vt 0.894531 0.523438
vt 0.605469 0.138672
vt 0.593750 0.138672
vt 0.593750 0.132812
vt 0.605469 0.132812
vt 0.873047 0.339844
vt 0.861328 0.339844
vt 0.861328 0.345703
vt 0.873047 0.345703
s 0
usemtl m_40acb087-42ff-e342-89c1-937425d4b9d7
f 4/1/1 7/2/1 5/3/1 2/4/1
f 3/5/2 4/6/2 2/7/2 1/8/2
f 8/9/3 3/10/3 1/2/3 6/1/3
f 7/11/4 8/12/4 6/13/4 5/14/4
f 6/15/5 1/16/5 2/17/5 5/18/5
f 7/19/6 4/18/6 3/15/6 8/20/6
f 12/21/1 15/22/1 13/23/1 10/24/1
f 11/25/2 12/26/2 10/27/2 9/28/2
f 16/29/3 11/30/3 9/22/3 14/21/3
f 15/31/4 16/32/4 14/33/4 13/34/4
f 14/35/5 9/36/5 10/37/5 13/38/5
f 15/39/6 12/40/6 11/41/6 16/42/6
usemtl m_40acb087-42ff-e342-89c1-937425d4b9d7.001
f 20/1/3 18/4/3 21/3/3 23/2/3
f 19/5/4 17/8/4 18/7/4 20/6/4
f 24/9/1 22/1/1 17/2/1 19/10/1
f 23/11/2 21/14/2 22/13/2 24/12/2
f 22/15/6 21/18/6 18/17/6 17/16/6
f 23/19/5 24/20/5 19/15/5 20/18/5
f 28/21/3 26/24/3 29/23/3 31/22/3
f 27/25/4 25/28/4 26/27/4 28/26/4
f 32/29/1 30/21/1 25/22/1 27/30/1
f 31/31/2 29/34/2 30/33/2 32/32/2
f 30/35/6 29/38/6 26/37/6 25/36/6
f 31/39/5 32/42/5 27/41/5 28/40/5
