# Blender 4.1.0
# www.blender.org
mtllib d30_wheel.mtl
o wheel
v 0.137196 0.159244 0.155033
v 0.137196 0.159244 -0.145534
v 0.137196 -0.141322 0.155033
v 0.137196 -0.141322 -0.145534
v -0.300304 0.159244 -0.145534
v -0.300304 0.159244 0.155033
v -0.300304 -0.141322 -0.145534
v -0.300304 -0.141322 0.155033
v 0.155653 -0.382107 -0.075472
v 0.155653 -0.062020 -0.395559
v 0.155653 -0.534025 -0.227390
v 0.155653 -0.213938 -0.547477
v -0.161518 -0.062020 -0.395559
v -0.161517 -0.382107 -0.075472
v -0.161518 -0.213938 -0.547477
v -0.161518 -0.534025 -0.227390
v 0.155008 0.535408 0.224855
v 0.155008 0.535408 -0.226745
v 0.155008 0.321638 0.224855
v 0.155008 0.321638 -0.226745
v -0.161088 0.535408 -0.226745
v -0.161088 0.535408 0.224855
v -0.161088 0.321638 -0.226745
v -0.161088 0.321638 0.224855
v 0.155008 0.215321 0.544942
v 0.155008 0.215321 0.322307
v 0.155008 -0.213294 0.544942
v 0.155008 -0.213294 0.322307
v -0.161088 0.215321 0.322307
v -0.161088 0.215321 0.544942
v -0.161088 -0.213294 0.322307
v -0.161088 -0.213294 0.544942
v 0.155653 -0.062020 0.393668
v 0.155653 -0.382107 0.073581
v 0.155653 -0.213938 0.545586
v 0.155653 -0.534025 0.225499
v -0.161517 -0.382107 0.073581
v -0.161517 -0.062020 0.393668
v -0.161517 -0.534025 0.225499
v -0.161517 -0.213938 0.545586
v 0.155653 0.536053 -0.227390
v 0.155653 0.215966 -0.547477
v 0.155653 0.384135 -0.075472
v 0.155653 0.064048 -0.395559
v -0.161518 0.215966 -0.547477
v -0.161518 0.536053 -0.227390
v -0.161518 0.064048 -0.395559
v -0.161517 0.384135 -0.075472
v 0.124315 0.331333 0.349368
v 0.124315 0.331333 -0.343740
v 0.124315 -0.365476 0.349368
v 0.124315 -0.365476 -0.343740
v 0.086565 0.331333 -0.343740
v 0.086565 0.331333 0.349368
v 0.086565 -0.365476 -0.343740
v 0.086565 -0.365476 0.349368
v 0.155008 -0.319610 0.224855
v 0.155008 -0.319610 -0.226745
v 0.155008 -0.533381 0.224855
v 0.155008 -0.533381 -0.226746
v -0.161088 -0.319610 -0.226745
v -0.161088 -0.319610 0.224855
v -0.161088 -0.533381 -0.226745
v -0.161088 -0.533381 0.224855
v 0.155008 0.215321 -0.324198
v 0.155008 0.215321 -0.546832
v 0.155008 -0.213294 -0.324198
v 0.155008 -0.213294 -0.546832
v -0.161088 0.215321 -0.546832
v -0.161088 0.215321 -0.324198
v -0.161088 -0.213294 -0.546832
v -0.161088 -0.213294 -0.324198
v 0.155653 0.215966 0.545586
v 0.155653 0.536052 0.225499
v 0.155653 0.064048 0.393668
v 0.155653 0.384135 0.073581
v -0.161517 0.536052 0.225499
v -0.161517 0.215966 0.545586
v -0.161517 0.384135 0.073581
v -0.161517 0.064048 0.393668
vn -0.0000 -0.0000 -1.0000
vn 1.0000 -0.0000 -0.0000
vn -0.0000 -0.0000 1.0000
vn -1.0000 -0.0000 -0.0000
vn -0.0000 1.0000 -0.0000
vn -0.0000 -1.0000 -0.0000
vn -0.0000 0.7071 -0.7071
vn -0.0000 -0.7071 0.7071
vn -0.0000 0.7071 0.7071
vn -0.0000 -0.7071 -0.7071
vt 0.085938 0.742188
vt 0.113281 0.742188
vt 0.113281 0.761719
vt 0.085938 0.761719
vt 0.433594 0.980469
vt 0.453125 0.980469
vt 0.453125 1.000000
vt 0.433594 1.000000
vt 0.378906 0.832031
vt 0.406250 0.832031
vt 0.406250 0.851562
vt 0.378906 0.851562
vt 0.433594 0.804688
vt 0.453125 0.804688
vt 0.453125 0.824219
vt 0.433594 0.824219
vt 0.406250 0.800781
vt 0.378906 0.800781
vt 0.378906 0.781250
vt 0.406250 0.781250
vt 0.410156 0.945312
vt 0.382812 0.945312
vt 0.382812 0.964844
vt 0.410156 0.964844
vt 0.378906 0.769531
vt 0.398438 0.769531
vt 0.398438 0.781250
vt 0.441406 0.714844
vt 0.468750 0.714844
vt 0.468750 0.726562
vt 0.441406 0.726562
vt 0.472656 0.535156
vt 0.492188 0.535156
vt 0.492188 0.546875
vt 0.472656 0.546875
vt 0.445312 0.914062
vt 0.472656 0.914062
vt 0.472656 0.925781
vt 0.445312 0.925781
vt 0.402344 0.945312
vt 0.382812 0.917969
vt 0.402344 0.917969
vt 0.304688 0.589844
vt 0.285156 0.589844
vt 0.285156 0.617188
vt 0.304688 0.617188
vt 0.476562 0.796875
vt 0.496094 0.796875
vt 0.496094 0.808594
vt 0.476562 0.808594
vt 0.445312 0.773438
vt 0.472656 0.773438
vt 0.472656 0.785156
vt 0.445312 0.785156
vt 0.476562 0.675781
vt 0.496094 0.675781
vt 0.496094 0.687500
vt 0.476562 0.687500
vt 0.445312 0.761719
vt 0.472656 0.761719
vt 0.324219 0.617188
vt 0.324219 0.589844
vt 0.343750 0.589844
vt 0.343750 0.617188
vt 0.000000 0.585938
vt 0.019531 0.585938
vt 0.019531 0.613281
vt 0.000000 0.613281
vt 0.417969 0.972656
vt 0.433594 0.972656
vt 0.417969 1.000000
vt 0.039062 0.585938
vt 0.039062 0.613281
vt 0.097656 0.554688
vt 0.113281 0.554688
vt 0.113281 0.582031
vt 0.097656 0.582031
vt 0.222656 0.542969
vt 0.203125 0.542969
vt 0.203125 0.527344
vt 0.222656 0.527344
vt 0.476562 0.589844
vt 0.457031 0.589844
vt 0.457031 0.605469
vt 0.476562 0.605469
vt 0.476562 0.664062
vt 0.496094 0.664062
vt 0.445312 0.750000
vt 0.472656 0.750000
vt 0.359375 0.511719
vt 0.378906 0.511719
vt 0.378906 0.523438
vt 0.359375 0.523438
vt 0.445312 0.546875
vt 0.472656 0.558594
vt 0.445312 0.558594
vt 0.363281 0.617188
vt 0.363281 0.589844
vt 0.402344 0.597656
vt 0.382812 0.597656
vt 0.382812 0.625000
vt 0.402344 0.625000
vt 0.480469 0.988281
vt 0.500000 0.988281
vt 0.500000 1.000000
vt 0.480469 1.000000
vt 0.449219 0.843750
vt 0.476562 0.843750
vt 0.476562 0.855469
vt 0.449219 0.855469
vt 0.480469 0.976562
vt 0.500000 0.976562
vt 0.449219 0.792969
vt 0.476562 0.792969
vt 0.476562 0.804688
vt 0.449219 0.804688
vt 0.171875 0.613281
vt 0.152344 0.613281
vt 0.152344 0.585938
vt 0.171875 0.585938
vt 0.191406 0.585938
vt 0.191406 0.613281
vt 0.171875 0.699219
vt 0.175781 0.699219
vt 0.175781 0.742188
vt 0.171875 0.742188
vt 0.203125 0.699219
vt 0.246094 0.699219
vt 0.246094 0.742188
vt 0.203125 0.742188
vt 0.066406 0.476562
vt 0.070312 0.476562
vt 0.070312 0.519531
vt 0.066406 0.519531
vt 0.289062 0.699219
vt 0.289062 0.742188
vt 0.433594 0.515625
vt 0.429688 0.515625
vt 0.429688 0.472656
vt 0.433594 0.472656
vt 0.179688 0.468750
vt 0.175781 0.468750
vt 0.175781 0.511719
vt 0.179688 0.511719
vt 0.078125 0.507812
vt 0.097656 0.507812
vt 0.097656 0.519531
vt 0.078125 0.519531
vt 0.242188 0.539062
vt 0.269531 0.539062
vt 0.269531 0.550781
vt 0.242188 0.550781
vt 0.480469 0.820312
vt 0.500000 0.820312
vt 0.500000 0.832031
vt 0.480469 0.832031
vt 0.449219 0.675781
vt 0.449219 0.687500
vt 0.414062 0.707031
vt 0.394531 0.707031
vt 0.394531 0.679688
vt 0.414062 0.679688
vt 0.398438 0.972656
vt 0.398438 1.000000
vt 0.398438 0.753906
vt 0.417969 0.753906
vt 0.417969 0.781250
vt 0.128906 0.554688
vt 0.128906 0.582031
vt 0.398438 0.726562
vt 0.417969 0.726562
vt 0.417969 0.757812
vt 0.433594 0.757812
vt 0.433594 0.785156
vt 0.417969 0.785156
vt 0.019531 0.539062
vt 0.000000 0.539062
vt 0.000000 0.523438
vt 0.019531 0.523438
vt 0.039062 0.523438
vt 0.039062 0.539062
vt 0.476562 0.593750
vt 0.496094 0.593750
vt 0.496094 0.605469
vt 0.449219 0.902344
vt 0.476562 0.902344
vt 0.476562 0.914062
vt 0.449219 0.914062
vt 0.402344 0.511719
vt 0.421875 0.511719
vt 0.421875 0.523438
vt 0.402344 0.523438
vt 0.449219 0.890625
vt 0.476562 0.890625
vt 0.058594 0.613281
vt 0.058594 0.585938
vt 0.132812 0.585938
vt 0.132812 0.613281
s 0
usemtl m_160f54de-b8db-7e2c-1380-81e10a91a479
f 4/1/1 7/2/1 5/3/1 2/4/1
f 3/5/2 4/6/2 2/7/2 1/8/2
f 8/9/3 3/10/3 1/11/3 6/12/3
f 7/13/4 8/14/4 6/15/4 5/16/4
f 6/17/5 1/18/5 2/19/5 5/20/5
f 7/21/6 4/22/6 3/23/6 8/24/6
f 12/25/7 15/26/7 13/27/7 10/19/7
f 11/28/2 12/29/2 10/30/2 9/31/2
f 16/32/8 11/33/8 9/34/8 14/35/8
f 15/36/4 16/37/4 14/38/4 13/39/4
f 14/40/9 9/22/9 10/41/9 13/42/9
f 15/43/10 12/44/10 11/45/10 16/46/10
f 20/47/1 23/48/1 21/49/1 18/50/1
f 19/51/2 20/52/2 18/53/2 17/54/2
f 24/55/3 19/56/3 17/57/3 22/58/3
f 23/59/4 24/60/4 22/52/4 21/51/4
f 22/61/5 17/46/5 18/43/5 21/62/5
f 23/63/6 20/62/6 19/61/6 24/64/6
f 28/65/1 31/66/1 29/67/1 26/68/1
f 27/69/2 28/70/2 26/8/2 25/71/2
f 32/66/3 27/72/3 25/73/3 30/67/3
f 31/74/4 32/75/4 30/76/4 29/77/4
f 30/78/5 25/79/5 26/80/5 29/81/5
f 31/82/6 28/83/6 27/84/6 32/85/6
f 36/86/10 39/87/10 37/56/10 34/55/10
f 35/88/2 36/89/2 34/60/2 33/59/2
f 40/90/9 35/91/9 33/92/9 38/93/9
f 39/94/4 40/35/4 38/95/4 37/96/4
f 38/97/7 33/64/7 34/63/7 37/98/7
f 39/99/8 36/100/8 35/101/8 40/102/8
f 44/103/10 47/104/10 45/105/10 42/106/10
f 43/107/2 44/108/2 42/109/2 41/110/2
f 48/111/9 43/112/9 41/104/9 46/103/9
f 47/113/4 48/114/4 46/115/4 45/116/4
f 46/117/7 41/118/7 42/119/7 45/120/7
f 47/121/8 44/120/8 43/117/8 48/122/8
f 52/123/1 55/124/1 53/125/1 50/126/1
f 51/127/2 52/128/2 50/129/2 49/130/2
f 56/131/3 51/132/3 49/133/3 54/134/3
f 55/128/4 56/135/4 54/136/4 53/129/4
f 54/137/5 49/138/5 50/139/5 53/140/5
f 55/141/6 52/142/6 51/143/6 56/144/6
f 60/145/1 63/146/1 61/147/1 58/148/1
f 59/149/2 60/150/2 58/151/2 57/152/2
f 64/153/3 59/154/3 57/155/3 62/156/3
f 63/157/4 64/55/4 62/58/4 61/158/4
f 62/159/5 57/160/5 58/161/5 61/162/5
f 63/69/6 60/163/6 59/164/6 64/71/6
f 68/165/1 71/166/1 69/167/1 66/27/1
f 67/75/2 68/168/2 66/169/2 65/76/2
f 72/170/3 67/171/3 65/166/3 70/165/3
f 71/172/4 72/173/4 70/174/4 69/175/4
f 70/176/5 65/177/5 66/178/5 69/179/5
f 71/180/6 68/179/6 67/176/6 72/181/6
f 76/182/7 79/183/7 77/184/7 74/85/7
f 75/185/2 76/186/2 74/187/2 73/188/2
f 80/189/8 75/190/8 73/191/8 78/192/8
f 79/193/4 80/194/4 78/186/4 77/185/4
f 78/195/9 73/73/9 74/72/9 77/196/9
f 79/119/10 76/197/10 75/198/10 80/118/10
