# Blender 4.1.1
# www.blender.org
mtllib humvee_wheel.mtl
o wheel
v -0.179586 0.170792 0.171074
v 0.141999 0.170792 -0.170666
v -0.179586 0.170792 -0.170666
v 0.141999 -0.170948 -0.170666
v 0.141999 -0.170948 0.171074
v -0.179586 -0.170948 0.171074
v 0.141999 0.170792 0.171074
v -0.179586 -0.170948 -0.170666
v 0.138192 -0.333918 -0.333636
v 0.138192 0.333713 0.333995
v -0.159836 0.333713 -0.333636
v -0.159836 -0.333918 -0.333636
v 0.138192 -0.333918 0.333995
v -0.159836 -0.333918 0.333995
v -0.159836 0.333713 0.333995
v 0.138192 0.333713 -0.333636
v 0.202960 0.225022 0.545062
v 0.202960 0.545166 0.224918
v 0.202959 -0.545092 0.224918
v -0.195557 -0.224947 0.545062
v 0.202960 -0.224948 0.545062
v 0.202960 -0.378400 0.058226
v -0.195558 -0.378400 0.058226
v -0.195558 -0.058255 0.378370
v 0.202960 -0.058255 0.378370
v -0.194900 -0.225718 0.309354
v -0.194900 0.225720 0.543843
v 0.202304 0.225720 0.543843
v 0.202304 0.225720 0.309354
v -0.194900 0.225720 0.309354
v 0.202304 -0.225718 0.309354
v 0.202304 -0.225719 0.543843
v -0.194900 -0.225719 0.543843
v 0.202304 0.225720 -0.309427
v -0.195558 0.058329 0.378370
v 0.202304 0.225720 -0.543916
v 0.202959 -0.224924 -0.545171
v 0.202960 0.378473 0.058226
v -0.195557 0.545166 0.224918
v -0.195557 0.378474 0.058226
v -0.195558 -0.224923 -0.545171
v -0.195558 -0.058231 -0.378479
v -0.194900 -0.543858 -0.225766
v -0.194900 -0.309369 -0.225766
v 0.202304 -0.309369 -0.225766
v 0.202304 0.543895 -0.225766
v 0.202304 0.543895 0.225672
v -0.194900 0.543895 -0.225766
v -0.194900 0.309406 0.225672
v 0.202304 0.309406 0.225672
v -0.194900 0.543895 0.225672
v 0.202960 0.224996 -0.545170
v 0.202959 0.058303 -0.378477
v -0.195558 0.058303 -0.378477
v 0.202960 0.058329 0.378370
v -0.195557 0.225022 0.545062
v 0.202304 0.309406 -0.225766
v -0.194900 0.309406 -0.225766
v 0.202960 0.378448 -0.058333
v -0.195558 0.224996 -0.545170
v -0.195557 0.378448 -0.058333
v -0.195557 0.545141 -0.225025
v -0.195558 -0.545092 0.224918
v -0.194900 -0.225718 -0.309427
v 0.202304 -0.225718 -0.309427
v 0.202960 0.545140 -0.225026
v -0.195558 -0.378375 -0.058334
v 0.202959 -0.058231 -0.378479
v -0.194900 -0.225718 -0.543916
v -0.194900 0.225720 -0.309427
v -0.194900 0.225720 -0.543916
v 0.202304 -0.225718 -0.543916
v 0.202304 -0.543858 -0.225766
v 0.202304 -0.309369 0.225672
v -0.194900 -0.309369 0.225672
v 0.202304 -0.543858 0.225672
v -0.194900 -0.543858 0.225672
v -0.195558 -0.545068 -0.225027
v 0.202960 -0.545068 -0.225027
v 0.202960 -0.378375 -0.058334
vn -1.0000 -0.0000 -0.0000
vn -0.0000 1.0000 -0.0000
vn -0.0000 -1.0000 -0.0000
vn -0.0000 -0.0000 1.0000
vn -0.0000 -0.0000 -1.0000
vn 1.0000 -0.0000 -0.0000
vn -0.0000 0.7071 0.7071
vn -0.0000 0.7071 -0.7071
vn -0.0000 -0.7071 -0.7071
vn -0.0000 -0.7071 0.7071
vt 0.681655 0.771485
vt 0.691406 0.771485
vt 0.691406 0.761719
vt 0.681655 0.761719
vt 0.146471 0.763672
vt 0.136719 0.763672
vt 0.136719 0.773438
vt 0.146471 0.773438
vt 0.244121 0.773438
vt 0.234370 0.773438
vt 0.234370 0.763672
vt 0.244121 0.763672
vt 0.570324 0.771485
vt 0.580076 0.771485
vt 0.580076 0.761719
vt 0.570324 0.761719
vt 0.330057 0.771485
vt 0.339876 0.771485
vt 0.339876 0.761719
vt 0.330057 0.761719
vt 0.000000 0.656248
vt 0.021492 0.656248
vt 0.021492 0.634766
vt 0.000000 0.634766
vt 0.482445 0.656248
vt 0.503936 0.656248
vt 0.503936 0.634766
vt 0.482445 0.634766
vt 0.669896 0.701175
vt 0.660187 0.701175
vt 0.660187 0.722656
vt 0.669896 0.722656
vt 0.679688 0.722656
vt 0.679688 0.701175
vt 0.650396 0.722656
vt 0.650396 0.701175
vt 0.242218 0.722656
vt 0.251927 0.722656
vt 0.251927 0.701175
vt 0.242218 0.701175
vt 0.244117 0.777344
vt 0.255889 0.777344
vt 0.255889 0.769532
vt 0.244117 0.769532
vt 0.095700 0.761704
vt 0.103554 0.761704
vt 0.103554 0.748017
vt 0.095700 0.748017
vt 0.046865 0.720687
vt 0.035156 0.720687
vt 0.035156 0.734401
vt 0.046865 0.734401
vt 0.031250 0.761704
vt 0.039104 0.761704
vt 0.039104 0.748017
vt 0.031250 0.748017
vt 0.103554 0.767546
vt 0.091773 0.767546
vt 0.091773 0.775391
vt 0.103554 0.775391
vt 0.716811 0.656215
vt 0.728506 0.656215
vt 0.728506 0.642611
vt 0.716811 0.642611
vt 0.119157 0.755875
vt 0.132818 0.755875
vt 0.132818 0.748039
vt 0.119157 0.748039
vt 0.111282 0.761730
vt 0.119114 0.761730
vt 0.119114 0.748069
vt 0.111282 0.748069
vt 0.126945 0.767577
vt 0.115198 0.767577
vt 0.115198 0.775390
vt 0.126945 0.775390
vt 0.779297 0.359375
vt 0.767549 0.359375
vt 0.767549 0.351562
vt 0.779297 0.351562
vt 0.175758 0.769532
vt 0.164062 0.769532
vt 0.164062 0.777344
vt 0.175758 0.777344
vt 0.732447 0.726564
vt 0.720738 0.726564
vt 0.720738 0.712926
vt 0.732447 0.712926
vt 0.458980 0.736330
vt 0.470676 0.736330
vt 0.470676 0.722656
vt 0.458980 0.722656
vt 0.769554 0.035134
vt 0.781250 0.035134
vt 0.781250 0.027344
vt 0.769554 0.027344
vt 0.439462 0.775391
vt 0.451171 0.775391
vt 0.451171 0.767554
vt 0.439462 0.767554
vt 0.748058 0.166039
vt 0.761718 0.166039
vt 0.761718 0.158203
vt 0.748058 0.158203
vt 0.402329 0.736328
vt 0.390632 0.736328
vt 0.390632 0.722652
vt 0.402329 0.722652
vt 0.748061 0.390621
vt 0.761716 0.390621
vt 0.761716 0.382831
vt 0.748061 0.382831
vt 0.177732 0.755887
vt 0.191402 0.755887
vt 0.191402 0.748017
vt 0.177732 0.748017
vt 0.216797 0.777344
vt 0.228506 0.777344
vt 0.228506 0.769532
vt 0.216797 0.769532
vt 0.164062 0.755887
vt 0.164062 0.748017
vt 0.734380 0.214844
vt 0.722663 0.214844
vt 0.722663 0.228531
vt 0.734380 0.228531
vt 0.251942 0.736315
vt 0.240225 0.736315
vt 0.240225 0.722628
vt 0.251942 0.722628
vt 0.513704 0.775391
vt 0.525421 0.775391
vt 0.525421 0.767589
vt 0.513704 0.767589
vt 0.015625 0.734357
vt 0.027372 0.734357
vt 0.027372 0.720697
vt 0.015625 0.720697
vt 0.779297 0.675782
vt 0.767598 0.675782
vt 0.767598 0.667961
vt 0.779297 0.667961
vt 0.748061 0.351584
vt 0.761716 0.351584
vt 0.761716 0.343708
vt 0.748061 0.343708
vt 0.494103 0.775391
vt 0.505900 0.775391
vt 0.505900 0.767554
vt 0.494103 0.767554
vt 0.767579 0.515614
vt 0.779296 0.515614
vt 0.779296 0.507812
vt 0.767579 0.507812
vt 0.779297 0.605469
vt 0.767598 0.605469
vt 0.767598 0.613290
vt 0.779297 0.613290
vt 0.298850 0.761719
vt 0.306673 0.761719
vt 0.306673 0.748042
vt 0.298850 0.748042
vt 0.718774 0.105484
vt 0.730469 0.105484
vt 0.730469 0.091797
vt 0.718774 0.091797
vt 0.115248 0.775391
vt 0.115248 0.767546
vt 0.498038 0.736330
vt 0.509787 0.736330
vt 0.509787 0.722656
vt 0.498038 0.722656
vt 0.191406 0.761719
vt 0.199229 0.761719
vt 0.199229 0.748042
vt 0.191406 0.748042
vt 0.306619 0.722652
vt 0.294922 0.722652
vt 0.294922 0.736328
vt 0.306619 0.736328
vt 0.283203 0.736329
vt 0.294902 0.736329
vt 0.294902 0.722652
vt 0.283203 0.722652
vt 0.306666 0.761720
vt 0.314445 0.761720
vt 0.314445 0.748047
vt 0.306666 0.748047
vt 0.595682 0.761720
vt 0.603515 0.761720
vt 0.603515 0.748047
vt 0.595682 0.748047
vt 0.103544 0.761730
vt 0.103544 0.748069
vt 0.572226 0.732443
vt 0.583973 0.732443
vt 0.583973 0.718731
vt 0.572226 0.718731
vt 0.271504 0.736329
vt 0.271504 0.722652
vt 0.187507 0.777344
vt 0.187507 0.769532
vt 0.603500 0.755858
vt 0.617160 0.755858
vt 0.617160 0.748047
vt 0.603500 0.748047
vt 0.718762 0.755858
vt 0.732422 0.755858
vt 0.732422 0.748047
vt 0.718762 0.748047
vt 0.539039 0.722656
vt 0.527330 0.722656
vt 0.527330 0.736330
vt 0.539039 0.736330
vt 0.566422 0.736330
vt 0.554714 0.736330
vt 0.554714 0.722656
vt 0.566422 0.722656
vt 0.769554 0.054696
vt 0.781250 0.054696
vt 0.781250 0.046906
vt 0.769554 0.046906
vt 0.560573 0.771485
vt 0.560573 0.761719
s 0
usemtl m_870d5149-0b9d-691f-1634-538271c2da26
f 8/1/1 6/2/1 1/3/1 3/4/1
f 1/5/2 7/6/2 2/7/2 3/8/2
f 8/9/3 4/10/3 5/11/3 6/12/3
f 6/13/4 5/14/4 7/15/4 1/16/4
f 4/17/5 8/18/5 3/19/5 2/20/5
f 13/21/6 9/22/6 16/23/6 10/24/6
f 12/25/1 14/26/1 15/27/1 11/28/1
f 15/29/2 10/30/2 16/31/2 11/32/2
f 12/33/3 9/32/3 13/29/3 14/34/3
f 14/35/4 13/31/4 10/30/4 15/36/4
f 9/37/5 12/38/5 11/39/5 16/40/5
f 77/41/4 76/42/4 74/43/4 75/44/4
f 23/45/1 63/46/1 20/47/1 24/48/1
f 56/49/7 17/50/7 18/51/7 39/52/7
f 19/53/6 22/54/6 25/55/6 21/56/6
f 20/57/7 21/58/7 25/59/7 24/60/7
f 22/61/8 23/62/8 24/63/8 25/64/8
f 55/65/6 38/66/6 18/67/6 17/68/6
f 26/69/1 33/70/1 27/71/1 30/72/1
f 27/73/2 28/74/2 29/75/2 30/76/2
f 26/77/3 31/78/3 32/79/3 33/80/3
f 70/81/2 34/82/2 36/83/2 71/84/2
f 40/85/9 38/86/9 55/87/9 35/88/9
f 72/89/5 69/90/5 71/91/5 36/92/5
f 37/93/8 41/94/8 42/95/8 68/96/8
f 38/97/8 40/98/8 39/99/8 18/100/8
f 40/101/1 35/102/1 56/103/1 39/104/1
f 41/105/9 37/106/9 79/107/9 78/108/9
f 41/109/1 78/110/1 67/111/1 42/112/1
f 58/113/1 49/114/1 51/115/1 48/116/1
f 73/117/5 43/118/5 44/119/5 45/120/5
f 50/121/6 57/113/6 46/116/6 47/122/6
f 51/123/2 47/124/2 46/125/2 48/126/2
f 58/127/3 57/128/3 50/129/3 49/130/3
f 49/131/4 50/132/4 47/133/4 51/134/4
f 33/135/4 32/136/4 28/137/4 27/138/4
f 60/139/9 52/140/9 53/141/9 54/142/9
f 79/143/6 37/144/6 68/145/6 80/146/6
f 35/147/10 55/148/10 17/149/10 56/150/10
f 57/151/5 58/152/5 48/153/5 46/154/5
f 61/155/7 59/156/7 66/157/7 62/158/7
f 60/159/1 54/160/1 61/161/1 62/162/1
f 63/163/10 19/164/10 21/165/10 20/166/10
f 23/167/9 22/60/9 19/57/9 63/168/9
f 64/169/4 65/170/4 34/171/4 70/172/4
f 53/173/6 52/174/6 66/175/6 59/176/6
f 67/177/7 80/178/7 68/179/7 42/180/7
f 54/181/10 53/182/10 59/183/10 61/184/10
f 65/185/6 72/186/6 36/187/6 34/188/6
f 69/189/1 64/190/1 70/191/1 71/192/1
f 32/193/6 31/69/6 29/72/6 28/194/6
f 31/195/5 26/196/5 30/197/5 29/198/5
f 52/199/8 60/181/8 62/184/8 66/200/8
f 69/201/3 72/84/3 65/81/3 64/202/3
f 76/203/6 73/204/6 45/205/6 74/206/6
f 43/207/1 77/208/1 75/209/1 44/210/1
f 75/211/2 74/212/2 45/213/2 44/214/2
f 43/215/3 73/216/3 76/217/3 77/218/3
f 78/219/10 79/220/10 80/221/10 67/222/10
f 5/223/6 4/13/6 2/16/6 7/224/6
