# Blender 4.1.1
# www.blender.org
mtllib humvee_wheel_holder.mtl
o Wheel_holder
v 0.316191 0.075448 0.010767
v 0.000000 -0.062667 0.000005
v 0.000000 0.062657 -0.125319
v 0.310679 -0.062667 -0.125320
v 0.310679 0.062657 -0.125320
v 0.000000 -0.062667 -0.125319
v 0.310679 0.062657 0.000004
v 0.000000 0.062657 0.000005
v 0.295741 0.053375 -0.110891
v 0.172322 0.049596 -0.089459
v 0.187514 0.255598 -0.000928
v 0.192771 0.071669 0.032199
v 0.918074 0.309977 -0.133596
v 0.297694 0.381883 -0.041721
v 0.277244 0.359810 -0.163379
v 0.153825 0.356031 -0.141948
v 0.174274 0.378104 -0.020290
v 0.174821 0.377404 -0.020894
v 0.154574 0.355550 -0.141347
v 0.167266 0.233743 -0.121381
v 0.897826 0.288123 -0.254050
v 0.885134 0.409929 -0.274016
v 0.905381 0.431784 -0.153563
v 0.310679 -0.062667 0.000004
v 0.610389 0.518001 -0.252813
v 0.952129 0.518001 -0.574399
v 0.610389 0.176261 -0.574399
v 0.952129 0.176261 -0.252813
v 0.952129 0.518001 -0.252813
v 0.610389 0.176261 -0.252813
v 0.610389 0.518001 -0.574399
v 1.115074 0.013316 -0.570590
v 0.447443 0.680947 -0.570590
v 1.115074 0.680947 -0.570590
v 0.447443 0.013316 -0.272562
v 1.115074 0.680947 -0.272562
v 0.447443 0.013316 -0.570590
v 1.115074 0.013316 -0.272562
v 0.447443 0.680947 -0.272562
v 1.337474 0.592296 -0.601477
v 1.099894 0.592296 -0.199911
v 0.729981 0.745565 -0.199881
v 0.407336 0.422921 -0.199881
v 0.729981 0.745565 -0.601511
v 0.561987 0.913560 -0.199881
v 0.560606 -0.184571 -0.199911
v 0.560606 0.053009 -0.601477
v 0.560606 0.675362 -0.199911
v 1.016830 0.675362 -0.199911
v 1.016829 0.675362 -0.601477
v 1.016830 0.912942 -0.601477
v 0.239342 0.590915 -0.601511
v 0.561986 0.913560 -0.601511
v 1.016829 -0.184571 -0.199911
v 1.016829 -0.184571 -0.601477
v 1.016829 0.053009 -0.601477
v 0.477541 0.592297 -0.601477
v 0.239961 0.592297 -0.601477
v 0.239961 0.592297 -0.199911
v 0.239961 0.136073 -0.199911
v 0.847452 -0.017195 -0.199881
v 1.338091 0.137455 -0.199881
v 1.170096 0.305450 -0.199881
v 1.337474 0.136073 -0.199911
v 1.337474 0.136073 -0.601477
v 0.560606 0.053009 -0.199911
v 1.015446 -0.185189 -0.199881
v 1.170097 0.422921 -0.199881
v 0.407336 0.422921 -0.601511
v 0.561987 -0.185189 -0.199881
v 0.561986 -0.185189 -0.601511
v 0.729981 -0.017194 -0.601511
v 0.847451 -0.017195 -0.601511
v 1.170096 0.305450 -0.601511
v 0.560606 -0.184571 -0.601477
v 0.239961 0.136073 -0.601477
v 1.015447 0.913560 -0.199881
v 0.560606 0.675362 -0.601477
v 0.560606 0.912942 -0.601477
v 0.729981 -0.017194 -0.199881
v 1.338091 0.590915 -0.601511
v 0.477541 0.136073 -0.199911
v 0.239342 0.137456 -0.601511
v 0.407337 0.305450 -0.601511
v 1.337474 0.592296 -0.199911
v 1.338091 0.137455 -0.601511
v 1.170096 0.422921 -0.601511
v 0.847452 0.745565 -0.601511
v 1.015447 0.913560 -0.601511
v 0.407337 0.305450 -0.199881
v 0.477541 0.136073 -0.601477
v 0.477541 0.592297 -0.199911
v 1.099894 0.136073 -0.199911
v 1.016829 0.053009 -0.199911
v 0.239342 0.590915 -0.199881
v 0.847452 0.745565 -0.199881
v 1.099894 0.136073 -0.601477
v 1.099894 0.592296 -0.601477
v 1.338091 0.590915 -0.199881
v 1.016830 0.912942 -0.199911
v 0.560606 0.912942 -0.199911
v 0.239342 0.137456 -0.199881
v 1.015446 -0.185189 -0.601511
v 0.952129 0.176261 -0.574399
v 0.000000 -0.062662 0.000002
v 0.000000 0.062662 -0.125322
v 0.000000 -0.062662 -0.125322
v 0.000000 0.062662 0.000002
v 0.000000 -0.062667 0.000000
v 0.310679 0.062657 0.000000
v 0.000000 0.062657 0.000000
v 0.310679 -0.062667 0.000000
vn 0.9848 0.0302 -0.1710
vn 1.0000 -0.0000 -0.0000
vn -0.0000 -0.0000 -1.0000
vn -0.0000 1.0000 -0.0000
vn 0.0594 -0.9839 0.1685
vn -0.1632 -0.1761 -0.9707
vn -0.9813 -0.0730 0.1782
vn 0.1632 0.1761 0.9707
vn -0.0594 0.9839 -0.1685
vn -0.9848 -0.0302 0.1710
vn -0.1023 0.9817 -0.1609
vn 0.1023 -0.9817 0.1609
vn 0.9813 0.0730 -0.1782
vn -0.0000 -1.0000 -0.0000
vn -0.0000 -0.0000 1.0000
vn -1.0000 -0.0000 -0.0000
vn 0.7071 -0.7071 -0.0000
vn 0.7071 0.7071 -0.0000
vn -0.7071 -0.7071 -0.0000
vn -0.7071 0.7071 -0.0000
vt 0.031262 0.773455
vt 0.021484 0.773455
vt 0.021484 0.769559
vt 0.031262 0.769559
vt 0.814453 0.076162
vt 0.810506 0.076162
vt 0.810506 0.072266
vt 0.814453 0.072266
vt 0.630849 0.802764
vt 0.634796 0.802764
vt 0.634796 0.792978
vt 0.630849 0.792978
vt 0.720723 0.802764
vt 0.724579 0.802764
vt 0.724579 0.792978
vt 0.720723 0.792978
vt 0.810581 0.058583
vt 0.814453 0.058583
vt 0.814453 0.054688
vt 0.810581 0.054688
vt 0.689472 0.656211
vt 0.699250 0.656211
vt 0.699250 0.652315
vt 0.689472 0.652315
vt 0.037109 0.814453
vt 0.041000 0.814453
vt 0.041000 0.810513
vt 0.037109 0.810513
vt 0.775354 0.216842
vt 0.798794 0.216842
vt 0.798794 0.212902
vt 0.775354 0.212902
vt 0.705058 0.181671
vt 0.714836 0.181671
vt 0.714836 0.177775
vt 0.705058 0.177775
vt 0.775354 0.242211
vt 0.798794 0.242211
vt 0.798794 0.238271
vt 0.775354 0.238271
vt 0.054690 0.814453
vt 0.058563 0.814453
vt 0.058563 0.810557
vt 0.054690 0.810557
vt 0.316367 0.705093
vt 0.306686 0.705093
vt 0.306686 0.708989
vt 0.316367 0.708989
vt 0.798794 0.308612
vt 0.775354 0.308612
vt 0.775354 0.312456
vt 0.798794 0.312456
vt 0.798794 0.433631
vt 0.775354 0.433631
vt 0.775354 0.429691
vt 0.798794 0.429691
vt 0.810562 0.031284
vt 0.814453 0.031284
vt 0.814453 0.027344
vt 0.810562 0.027344
vt 0.728526 0.802764
vt 0.732382 0.802764
vt 0.732382 0.792978
vt 0.728526 0.792978
vt 0.744142 0.775391
vt 0.753931 0.775391
vt 0.753931 0.765625
vt 0.744142 0.765625
vt 0.763648 0.765625
vt 0.763648 0.775391
vt 0.773438 0.775391
vt 0.773438 0.765625
vt 0.734352 0.775391
vt 0.734352 0.765625
vt 0.625000 0.775391
vt 0.634789 0.775391
vt 0.634789 0.765625
vt 0.625000 0.765625
vt 0.640616 0.540988
vt 0.662145 0.540988
vt 0.662145 0.519536
vt 0.640616 0.519536
vt 0.640616 0.562497
vt 0.662145 0.562497
vt 0.271507 0.705054
vt 0.261721 0.705054
vt 0.261721 0.726562
vt 0.271507 0.726562
vt 0.714844 0.283227
vt 0.705058 0.283227
vt 0.705058 0.261719
vt 0.714844 0.261719
vt 0.251935 0.726562
vt 0.251935 0.705054
vt 0.121094 0.726562
vt 0.130880 0.726562
vt 0.130880 0.705054
vt 0.121094 0.705054
vt 0.505882 0.775371
vt 0.494135 0.775371
vt 0.494135 0.783203
vt 0.505882 0.783203
vt 0.699211 0.769531
vt 0.707044 0.769531
vt 0.707044 0.755860
vt 0.699211 0.755860
vt 0.755881 0.728497
vt 0.769501 0.728497
vt 0.769501 0.720664
vt 0.755881 0.720664
vt 0.287111 0.750000
vt 0.298832 0.750000
vt 0.298832 0.736328
vt 0.287111 0.736328
vt 0.746093 0.775391
vt 0.734372 0.775391
vt 0.734372 0.783203
vt 0.746093 0.783203
vt 0.777313 0.226576
vt 0.789063 0.226576
vt 0.789063 0.218743
vt 0.777313 0.218743
vt 0.275387 0.750011
vt 0.263691 0.750011
vt 0.263691 0.736324
vt 0.275387 0.736324
vt 0.722682 0.783203
vt 0.734378 0.783203
vt 0.734378 0.775382
vt 0.722682 0.775382
vt 0.359378 0.769531
vt 0.367211 0.769531
vt 0.367211 0.755860
vt 0.359378 0.755860
vt 0.242188 0.785156
vt 0.253939 0.785156
vt 0.253939 0.777323
vt 0.242188 0.777323
vt 0.187504 0.777341
vt 0.175778 0.777341
vt 0.175778 0.785156
vt 0.187504 0.785156
vt 0.412143 0.749997
vt 0.423869 0.749997
vt 0.423869 0.736328
vt 0.412143 0.736328
vt 0.248093 0.769497
vt 0.255831 0.769497
vt 0.255831 0.755885
vt 0.248093 0.755885
vt 0.220697 0.769531
vt 0.228483 0.769531
vt 0.228483 0.755856
vt 0.220697 0.755856
vt 0.736354 0.033236
vt 0.748008 0.033236
vt 0.748008 0.019531
vt 0.736354 0.019531
vt 0.474598 0.736330
vt 0.462914 0.736330
vt 0.462914 0.749995
vt 0.474598 0.749995
vt 0.787110 0.482431
vt 0.775393 0.482431
vt 0.775393 0.474595
vt 0.787110 0.474595
vt 0.755865 0.330053
vt 0.769525 0.330053
vt 0.769525 0.322270
vt 0.755865 0.322270
vt 0.757813 0.783203
vt 0.757813 0.775391
vt 0.251930 0.736324
vt 0.240234 0.736324
vt 0.240234 0.750011
vt 0.251930 0.750011
vt 0.667949 0.783203
vt 0.679710 0.783203
vt 0.679710 0.775382
vt 0.667949 0.775382
vt 0.164062 0.785156
vt 0.175815 0.785156
vt 0.175815 0.777342
vt 0.164062 0.777342
vt 0.734384 0.669926
vt 0.746101 0.669926
vt 0.746101 0.656251
vt 0.734384 0.656251
vt 0.494161 0.749995
vt 0.482410 0.749995
vt 0.482410 0.736330
vt 0.494161 0.736330
vt 0.755883 0.761717
vt 0.763672 0.761717
vt 0.763672 0.748048
vt 0.755883 0.748048
vt 0.615234 0.783203
vt 0.626943 0.783203
vt 0.626943 0.775420
vt 0.615234 0.775420
vt 0.755831 0.400399
vt 0.769531 0.400399
vt 0.769531 0.392578
vt 0.755831 0.392578
vt 0.748021 0.343750
vt 0.736341 0.343750
vt 0.736341 0.357438
vt 0.748021 0.357438
vt 0.748038 0.033203
vt 0.736329 0.033203
vt 0.736329 0.046846
vt 0.748038 0.046846
vt 0.046875 0.771487
vt 0.054663 0.771487
vt 0.054663 0.757812
vt 0.046875 0.757812
vt 0.755856 0.720705
vt 0.769531 0.720705
vt 0.769531 0.712891
vt 0.755856 0.712891
vt 0.755840 0.277320
vt 0.763672 0.277320
vt 0.763672 0.263708
vt 0.755840 0.263708
vt 0.734384 0.708992
vt 0.746101 0.708992
vt 0.746101 0.695317
vt 0.734384 0.695317
vt 0.755865 0.285187
vt 0.769525 0.285187
vt 0.769525 0.277312
vt 0.755865 0.277312
vt 0.400380 0.750021
vt 0.388701 0.750021
vt 0.388701 0.736333
vt 0.400380 0.736333
vt 0.787110 0.466797
vt 0.775393 0.466797
vt 0.714831 0.763655
vt 0.728506 0.763655
vt 0.728506 0.755841
vt 0.714831 0.755841
vt 0.451173 0.749997
vt 0.462899 0.749997
vt 0.462899 0.736328
vt 0.451173 0.736328
vt 0.525368 0.783203
vt 0.513714 0.783203
vt 0.513714 0.775371
vt 0.525368 0.775371
vt 0.228546 0.785156
vt 0.216820 0.785156
vt 0.216820 0.777341
vt 0.228546 0.777341
vt 0.757817 0.080099
vt 0.771504 0.080099
vt 0.771504 0.072266
vt 0.757817 0.072266
vt 0.275391 0.750000
vt 0.275391 0.736328
vt 0.748038 0.171831
vt 0.736329 0.171831
vt 0.736329 0.158188
vt 0.748038 0.158188
vt 0.000000 0.750012
vt 0.011747 0.750012
vt 0.011747 0.736306
vt 0.000000 0.736306
vt 0.775400 0.623058
vt 0.787109 0.623058
vt 0.787109 0.615275
vt 0.775400 0.615275
vt 0.603524 0.763650
vt 0.617158 0.763650
vt 0.617158 0.755877
vt 0.603524 0.755877
vt 0.757778 0.783216
vt 0.769531 0.783216
vt 0.769531 0.775402
vt 0.757778 0.775402
vt 0.179688 0.769531
vt 0.187475 0.769531
vt 0.187475 0.755856
vt 0.179688 0.755856
vt 0.724635 0.775391
vt 0.724635 0.765625
vt 0.066448 0.810557
vt 0.062500 0.810557
vt 0.062500 0.814453
vt 0.066448 0.814453
s 0
usemtl m_870d5149-0b9d-691f-1634-538271c2da26
f 9/1/1 15/2/1 14/3/1 1/4/1
f 4/5/2 5/6/2 7/7/2 24/8/2
f 5/9/3 4/10/3 6/11/3 3/12/3
f 7/13/4 5/14/4 3/15/4 8/16/4
f 9/17/5 1/18/5 12/19/5 10/20/5
f 15/21/6 9/22/6 10/23/6 16/24/6
f 20/25/7 11/26/7 18/27/7 19/28/7
f 21/29/6 20/30/6 19/31/6 22/32/6
f 1/33/8 14/34/8 17/35/8 12/36/8
f 11/37/8 13/38/8 23/39/8 18/40/8
f 14/41/9 15/42/9 16/43/9 17/44/9
f 12/45/10 17/46/10 16/47/10 10/48/10
f 18/49/11 23/50/11 22/51/11 19/52/11
f 20/53/12 21/54/12 13/55/12 11/56/12
f 13/57/13 21/58/13 22/59/13 23/60/13
f 4/61/14 24/62/14 2/63/14 6/64/14
f 30/65/15 28/66/15 29/67/15 25/68/15
f 29/69/4 26/67/4 31/66/4 25/70/4
f 30/71/14 27/70/14 104/69/14 28/72/14
f 28/73/2 104/65/2 26/68/2 29/74/2
f 27/75/16 30/76/16 25/77/16 31/78/16
f 32/79/3 37/80/3 33/81/3 34/82/3
f 35/83/15 38/84/15 36/80/15 39/79/15
f 36/85/4 34/86/4 33/87/4 39/88/4
f 35/89/14 37/90/14 32/91/14 38/92/14
f 38/93/2 32/87/2 34/86/2 36/94/2
f 37/95/16 35/96/16 39/97/16 33/98/16
f 85/99/4 40/100/4 98/101/4 41/102/4
f 95/103/15 43/104/15 42/105/15 45/106/15
f 55/107/3 75/108/3 47/109/3 56/110/3
f 43/111/17 69/112/17 44/113/17 42/114/17
f 42/115/18 44/116/18 53/117/18 45/118/18
f 75/119/16 46/120/16 66/121/16 47/122/16
f 48/123/14 78/124/14 50/125/14 49/126/14
f 49/127/2 50/128/2 51/129/2 100/130/2
f 69/131/3 52/132/3 53/133/3 44/134/3
f 54/135/2 55/136/2 56/137/2 94/138/2
f 92/139/4 57/140/4 58/141/4 59/142/4
f 76/143/16 60/144/16 59/145/16 58/146/16
f 65/147/3 97/148/3 98/149/3 40/150/3
f 61/151/15 67/152/15 62/153/15 63/154/15
f 64/155/2 65/156/2 40/157/2 85/158/2
f 94/159/4 56/160/4 47/161/4 66/162/4
f 61/163/19 73/164/19 103/165/19 67/166/19
f 96/167/15 68/168/15 99/169/15 77/170/15
f 95/171/19 52/118/19 69/115/19 43/172/19
f 100/173/4 51/174/4 79/175/4 101/176/4
f 78/177/16 48/178/16 101/179/16 79/180/16
f 70/181/17 71/182/17 72/183/17 80/184/17
f 73/185/20 61/186/20 63/187/20 74/188/20
f 46/189/14 75/190/14 55/191/14 54/192/14
f 91/193/3 76/194/3 58/195/3 57/196/3
f 88/197/20 96/198/20 77/199/20 89/200/20
f 50/201/3 78/202/3 79/203/3 51/204/3
f 80/205/18 72/206/18 84/207/18 90/208/18
f 99/209/18 81/210/18 89/211/18 77/212/18
f 60/213/15 82/214/15 92/215/15 59/216/15
f 71/217/3 83/218/3 84/219/3 72/220/3
f 93/221/15 64/222/15 85/223/15 41/224/15
f 67/225/17 103/226/17 86/227/17 62/228/17
f 87/229/3 88/230/3 89/231/3 81/232/3
f 102/233/19 83/234/19 71/235/19 70/236/19
f 62/237/18 86/238/18 74/165/18 63/166/18
f 102/239/15 70/240/15 80/241/15 90/242/15
f 82/243/2 91/244/2 57/245/2 92/246/2
f 93/247/14 97/248/14 65/249/14 64/250/14
f 60/251/14 76/252/14 91/253/14 82/254/14
f 46/255/15 54/256/15 94/257/15 66/258/15
f 52/259/20 95/111/20 45/114/20 53/260/20
f 96/261/19 88/262/19 87/263/19 68/264/19
f 97/265/16 93/266/16 41/267/16 98/268/16
f 68/269/17 87/270/17 81/271/17 99/272/17
f 48/273/15 49/274/15 100/275/15 101/276/15
f 83/277/20 102/278/20 90/279/20 84/280/20
f 103/281/3 73/282/3 74/283/3 86/284/3
f 104/285/3 27/73/3 31/74/3 26/286/3
f 105/287/16 108/288/16 106/289/16 107/290/16
f 112/14/15 110/61/15 111/64/15 109/15/15
