# Blender 4.1.1
# www.blender.org
mtllib humvee_kuzov.mtl
o Armored_part
v -1.113970 0.264666 0.821193
v -1.156171 0.310414 0.799570
v -1.084981 0.387630 1.024784
v -1.115659 0.364340 1.035381
v -1.127182 0.433378 1.003162
v -1.157858 0.410088 1.013758
v 1.125271 -0.216399 -0.574978
v 1.327458 -0.317247 -0.614842
v -1.198113 -0.079265 -0.560431
v -1.126884 -0.078940 -0.611617
v -1.314011 -0.289133 -0.689402
v -1.093029 0.284422 0.814903
v 1.307665 -0.170656 -0.589495
v 1.251947 -0.213096 1.195843
v 1.155314 -0.124061 -0.598391
v -1.111824 -0.188285 -0.649537
v -1.124651 -0.307519 -0.694645
v -0.794088 0.365126 0.885631
v -1.127982 0.433377 1.003161
v 1.163708 -0.133739 -0.546229
v 1.210883 -0.079264 -0.560432
v -1.128170 -0.138017 -0.594244
v -1.128170 0.305567 0.903273
v -1.128171 0.365126 0.885631
v -0.794088 -0.138017 -0.594244
v -1.128170 -0.078458 -0.611886
v 0.806057 -0.138017 -0.594245
v 0.808388 -0.078753 -0.612796
v 1.290946 -0.153903 -0.583994
v -0.795607 -0.097889 -0.560220
v 0.806057 -0.078458 -0.611887
v 1.140139 -0.078458 -0.611887
v -1.128138 -0.324339 -0.642642
v -1.127992 -0.294461 -0.687070
v -1.128148 -0.078754 -0.612795
v 1.241111 0.250359 0.811833
v -1.314679 -0.317265 -0.614848
v -1.301852 -0.198031 -0.569741
v 1.140139 0.365125 0.885630
v -1.211311 0.282371 1.041416
v -1.228330 0.250359 0.811834
v 1.224092 0.282370 1.041415
v -1.125318 -0.335652 -0.620091
v -1.127982 0.382671 1.026806
v -1.134028 0.328869 0.793896
v -1.158008 0.405327 1.002471
v 0.808388 -0.305204 -0.695218
v 1.170789 0.405327 1.002470
v 0.808388 -0.324340 -0.642643
v 1.140919 -0.097889 -0.560221
v 0.808388 -0.097889 -0.560222
v 1.146810 0.328869 0.793895
v 1.248920 -0.175830 -0.644299
v -1.125268 -0.142455 -0.600949
v -1.181535 -0.087892 -0.580709
v 1.313964 -0.169880 -0.644289
v 1.326790 -0.289114 -0.689396
v -1.236149 -0.175830 -0.644297
v -1.301202 -0.169888 -0.644284
v -1.255240 0.329582 1.034862
v -1.142558 -0.124073 -0.598386
v 1.268013 0.329582 1.034861
v -1.304227 -0.207155 1.195858
v -1.350189 -0.706625 -0.483288
v 1.140270 -0.088518 -0.584438
v 1.140114 -0.304226 -0.658712
v 1.195101 -0.304651 -0.657590
v 1.195257 -0.088945 -0.583316
v -1.081117 0.320056 0.900970
v -1.182508 -0.077942 -0.610414
v 1.133232 0.307009 0.905927
v 1.194623 -0.078327 -0.609547
v 1.133232 0.365449 0.888616
v -1.252309 0.326817 1.020409
v 1.265092 0.326817 1.020408
v -1.112492 -0.216417 -0.574984
v 1.229506 0.290226 0.915362
v -1.232783 -0.225149 -0.624970
v -1.247719 -0.225131 -0.575292
v 1.246726 -0.232366 -0.660720
v 1.245759 -0.242348 -0.631124
v -1.182979 -0.294887 -0.685948
v -1.182481 -0.088945 -0.583315
v 1.139665 -0.137379 -0.594307
v 1.139665 -0.078940 -0.611618
v 1.139958 0.288744 0.825378
v 1.292730 -0.170674 -0.639174
v 1.139964 0.433378 1.003161
v -1.289272 -0.187802 -0.610887
v 1.096074 0.287956 0.810595
v 1.097764 0.387630 1.024783
v 1.138274 0.333704 0.788973
v 1.137430 -0.307501 -0.694638
v 1.138097 -0.335633 -0.620085
v -1.127337 -0.304226 -0.658711
v -1.182324 -0.304651 -0.657589
v 1.297907 -0.712566 -0.483303
v 1.362960 -0.706625 -0.483289
v 1.317000 -0.207155 1.195857
v 1.202960 0.323641 1.034848
v -1.285136 -0.712566 -0.483302
v -1.190187 0.323640 1.034849
v -1.239174 -0.213096 1.195845
v -1.187331 0.205912 0.832841
v -1.117008 0.360881 1.023478
v 1.105810 0.284422 0.814902
v 1.200112 0.205912 0.832840
v 1.129791 0.360881 1.023477
v -0.795607 -0.078753 -0.612795
v -0.795607 -0.305204 -0.695216
v -1.127494 -0.088518 -0.584437
v -1.127983 0.288744 0.825379
v -1.127983 0.339451 0.801734
v 1.139958 0.339451 0.801733
v 1.078274 0.364835 0.886546
v -1.126234 -0.132472 -0.630546
v -1.182502 -0.077910 -0.610306
v -1.233972 -0.232381 -0.660724
v -1.233005 -0.242364 -0.631127
v -1.290239 -0.177819 -0.640484
v 1.138989 -0.132456 -0.630542
v 1.138022 -0.142439 -0.600945
v 1.194290 -0.087877 -0.580705
v 1.195256 -0.077893 -0.610302
v 1.140768 -0.294461 -0.687071
v 1.302027 -0.187786 -0.610883
v -1.183135 -0.079180 -0.611673
v 1.139959 0.382671 1.026805
v -1.238240 -0.200045 -0.571962
v -1.176798 0.244084 0.927395
v -1.216748 0.290214 0.915367
v -1.278189 -0.153915 -0.583989
v -1.136001 -0.133757 -0.595907
v -1.279959 -0.170675 -0.639173
v 1.148772 -0.133757 -0.595907
v 1.245554 -0.225149 -0.624971
v 1.260490 -0.225131 -0.575292
v -1.065493 0.364835 0.886547
v -1.121067 0.366186 0.888942
v -1.294894 -0.170657 -0.589495
v 1.250996 -0.200033 -0.571967
v 1.189556 0.244095 0.927389
v 1.093873 0.320067 0.900965
v -1.120449 0.307009 0.905928
v -1.120450 0.365449 0.888617
v 1.302993 -0.177803 -0.640480
v -1.150937 -0.133739 -0.546228
v -1.183177 -0.079283 -0.610109
v 1.124603 -0.188266 -0.649531
v 1.314632 -0.198012 -0.569735
v -1.126884 -0.137379 -0.594306
v -1.065493 0.306396 0.903857
v -1.128138 -0.097889 -0.560220
v -1.181842 -0.136766 -0.592236
v -1.181841 -0.078327 -0.609546
v 1.133823 0.366198 0.888937
v 1.195948 -0.079282 -0.610110
v 1.195264 -0.077931 -0.610419
v 0.806057 0.305567 0.903272
v 0.806057 0.365125 0.885630
v -0.795607 -0.324339 -0.642642
v -1.128138 -0.305204 -0.695217
v 1.140139 -0.138017 -0.594245
v 1.140140 0.305567 0.903272
v 1.140919 -0.324340 -0.642643
v 1.140919 -0.305204 -0.695218
v 1.195755 -0.294887 -0.685949
v 1.140924 -0.078754 -0.612796
v 1.128440 0.364340 1.035379
v 1.126751 0.264666 0.821191
v 1.168952 0.310415 0.799569
v 1.170640 0.410088 1.013757
v 1.194623 -0.136766 -0.592237
v 1.078274 0.306396 0.903856
v 1.195911 -0.079180 -0.611675
v -0.794088 0.305567 0.903273
v -0.794088 -0.078458 -0.611886
v -1.083293 0.287956 0.810596
v -1.125493 0.333704 0.788974
vn -0.7679 -0.5830 0.2653
vn -0.6405 0.6943 -0.3282
vn 0.6405 -0.6943 0.3282
vn -0.0071 0.4219 0.9066
vn 0.0071 -0.4219 -0.9066
vn 0.0084 -0.3530 0.9356
vn -0.2879 0.0003 0.9577
vn -0.0000 0.9588 -0.2840
vn -0.1001 -0.9306 -0.3521
vn 0.1073 -0.3422 -0.9335
vn 0.7103 -0.6708 -0.2133
vn -0.0262 0.2850 0.9582
vn -0.7655 0.6078 -0.2114
vn 0.0084 0.3531 -0.9356
vn -0.0000 0.2840 0.9588
vn -1.0000 -0.0000 -0.0000
vn -0.0084 -0.3530 0.9356
vn -0.7103 0.6708 0.2133
vn 0.6951 -0.6740 -0.2501
vn -0.0000 -0.2840 -0.9588
vn -0.0000 0.3420 -0.9397
vn -0.0871 -0.9542 0.2862
vn 0.6423 0.7417 -0.1934
vn 1.0000 -0.0000 -0.0000
vn -0.0000 -0.3420 0.9397
vn 0.0262 0.2850 0.9582
vn 0.9998 0.0078 -0.0204
vn -0.1073 -0.3422 -0.9335
vn -0.0000 0.9063 -0.4226
vn -0.9949 0.0965 0.0276
vn 0.1001 -0.9306 -0.3521
vn -0.7604 -0.6331 0.1446
vn 0.7604 -0.6331 0.1446
vn 0.9949 -0.0966 -0.0275
vn -0.0000 0.4226 0.9063
vn 0.7604 0.6331 -0.1446
vn 0.6405 0.6943 -0.3282
vn -0.7604 0.6331 -0.1447
vn 0.0262 -0.2850 -0.9582
vn 0.0309 -0.3194 0.9471
vn -0.0084 0.3530 -0.9356
vn 0.0871 0.9542 -0.2862
vn -0.0393 -0.2838 -0.9581
vn 0.9959 0.0910 0.0002
vn -0.9959 0.0910 0.0002
vn 0.6423 -0.7417 0.1934
vn 0.0007 0.9455 0.3256
vn -0.0218 -0.3255 0.9453
vn -0.0000 -0.9588 0.2840
vn -0.0071 -0.4219 -0.9066
vn -0.7103 -0.6708 -0.2133
vn 0.7655 0.6078 -0.2114
vn 0.9992 0.0111 0.0376
vn -0.0872 0.9542 -0.2862
vn -0.1073 0.3422 0.9335
vn 0.1073 0.3422 0.9335
vn 0.1001 0.9306 0.3521
vn 0.7654 -0.6078 0.2114
vn -0.0000 0.9397 0.3420
vn -0.6951 -0.6740 -0.2501
vn -0.9998 -0.0078 0.0204
vn -0.9992 -0.0112 -0.0376
vn 0.0393 0.2838 0.9581
vn -0.2879 -0.0003 -0.9577
vn 0.0072 0.4219 0.9066
vn -0.6951 0.6740 0.2500
vn -0.7679 0.5830 -0.2653
vn -0.9949 -0.0966 -0.0275
vn 0.0007 -0.9455 -0.3256
vn 0.2879 0.0004 0.9577
vn 0.0871 -0.9542 0.2862
vn -0.9959 -0.0910 -0.0002
vn 0.9959 -0.0910 -0.0002
vn 0.0309 0.3194 -0.9471
vn -0.6405 -0.6943 0.3282
vn 0.0218 -0.3255 0.9453
vn -0.0000 -0.4226 -0.9063
vn 0.9949 0.0966 0.0275
vn -0.0393 0.2838 0.9581
vn 0.7183 0.6661 0.2012
vn -0.7182 -0.6661 -0.2012
vn -0.7182 0.6661 0.2012
vn -0.0007 -0.9455 -0.3256
vn 0.6951 0.6740 0.2500
vn -0.0007 0.9455 0.3256
vn -0.0000 -0.9063 0.4226
vn -0.0309 0.3194 -0.9471
vn -0.7655 -0.6078 0.2114
vn 0.2879 -0.0003 -0.9577
vn -0.9998 0.0077 -0.0204
vn -0.6423 -0.7417 0.1934
vn 0.9992 -0.0111 -0.0376
vn -0.6423 0.7417 -0.1934
vn -0.0309 -0.3194 0.9471
vn 0.7183 -0.6661 -0.2012
vn 0.7103 0.6708 0.2133
vn -0.1001 0.9306 0.3521
vn -1.0000 -0.0001 0.0001
vn -0.0262 -0.2850 -0.9582
vn -0.9992 0.0112 0.0376
vn 0.0393 -0.2838 -0.9581
vn -0.0000 -0.9397 -0.3420
vn -0.0218 0.3255 -0.9453
vn 0.0218 0.3255 -0.9453
vn 0.7679 -0.5830 0.2653
vn 0.9998 -0.0077 0.0204
vn 0.7679 0.5830 -0.2653
vt 0.765664 0.107465
vt 0.773457 0.107465
vt 0.773457 0.105469
vt 0.765664 0.105469
vt 0.269574 0.806599
vt 0.267581 0.806599
vt 0.267581 0.814411
vt 0.269574 0.814411
vt 0.294945 0.814411
vt 0.292952 0.814411
vt 0.292952 0.806599
vt 0.294945 0.806599
vt 0.814413 0.480510
vt 0.816406 0.480510
vt 0.816406 0.478514
vt 0.814413 0.478514
vt 0.478521 0.816407
vt 0.480424 0.816407
vt 0.480424 0.814411
vt 0.478521 0.814411
vt 0.230497 0.806641
vt 0.234413 0.806641
vt 0.234413 0.800779
vt 0.230497 0.800779
vt 0.812468 0.699216
vt 0.816406 0.699216
vt 0.816406 0.697264
vt 0.812468 0.697264
vt 0.134781 0.748036
vt 0.132812 0.748036
vt 0.132812 0.796885
vt 0.134781 0.796885
vt 0.402333 0.632773
vt 0.392578 0.632773
vt 0.392578 0.681678
vt 0.402333 0.681678
vt 0.681637 0.816407
vt 0.683564 0.816407
vt 0.683564 0.810548
vt 0.681637 0.810548
vt 0.812480 0.691434
vt 0.816407 0.691434
vt 0.816407 0.689424
vt 0.812480 0.689424
vt 0.496094 0.816406
vt 0.498049 0.816406
vt 0.498049 0.814451
vt 0.496094 0.814451
vt 0.794942 0.369157
vt 0.812500 0.369157
vt 0.812500 0.367216
vt 0.794942 0.367216
vt 0.757788 0.316420
vt 0.806660 0.316420
vt 0.806660 0.314479
vt 0.757788 0.314479
vt 0.781245 0.804690
vt 0.785195 0.804690
vt 0.785195 0.798831
vt 0.781245 0.798831
vt 0.000000 0.736328
vt 0.009749 0.736328
vt 0.009749 0.734394
vt 0.000000 0.734394
vt 0.806656 0.460942
vt 0.814454 0.460942
vt 0.814454 0.458973
vt 0.806656 0.458973
vt 0.027344 0.806647
vt 0.031293 0.806647
vt 0.031293 0.800788
vt 0.027344 0.800788
vt 0.814451 0.498049
vt 0.816406 0.498049
vt 0.816406 0.496094
vt 0.814451 0.496094
vt 0.816407 0.710928
vt 0.812560 0.710928
vt 0.812560 0.708991
vt 0.816407 0.708991
vt 0.757795 0.150388
vt 0.806641 0.150388
vt 0.806641 0.148453
vt 0.757795 0.148453
vt 0.082033 0.726582
vt 0.091782 0.726582
vt 0.091782 0.724574
vt 0.082033 0.724574
vt 0.759818 0.593714
vt 0.808594 0.593714
vt 0.808594 0.591827
vt 0.759818 0.591827
vt 0.291014 0.767564
vt 0.281250 0.767564
vt 0.281250 0.775379
vt 0.291014 0.775379
vt 0.740216 0.656250
vt 0.794910 0.656250
vt 0.794910 0.654287
vt 0.740216 0.654287
vt 0.683607 0.701158
vt 0.679680 0.701158
vt 0.679680 0.749969
vt 0.683607 0.749969
vt 0.806641 0.378884
vt 0.814453 0.378884
vt 0.814453 0.376927
vt 0.806641 0.376927
vt 0.417982 0.736328
vt 0.427737 0.736328
vt 0.427737 0.734358
vt 0.417982 0.734358
vt 0.509775 0.240251
vt 0.499998 0.240251
vt 0.499998 0.232422
vt 0.509775 0.232422
vt 0.794910 0.138675
vt 0.812500 0.138675
vt 0.812500 0.136712
vt 0.794910 0.136712
vt 0.359352 0.814450
vt 0.361321 0.814450
vt 0.361321 0.806621
vt 0.359352 0.806621
vt 0.812534 0.759770
vt 0.816407 0.759770
vt 0.816407 0.757822
vt 0.812534 0.757822
vt 0.500008 0.232401
vt 0.429688 0.232401
vt 0.429688 0.240209
vt 0.500008 0.240209
vt 0.816407 0.710938
vt 0.812457 0.710938
vt 0.812457 0.712895
vt 0.816407 0.712895
vt 0.759818 0.570328
vt 0.808594 0.570328
vt 0.808594 0.568359
vt 0.759818 0.568359
vt 0.687493 0.816406
vt 0.689489 0.816406
vt 0.689489 0.810544
vt 0.687493 0.810544
vt 0.806635 0.316414
vt 0.814489 0.316414
vt 0.814489 0.314471
vt 0.806635 0.314471
vt 0.806629 0.445307
vt 0.814470 0.445307
vt 0.814470 0.443359
vt 0.806629 0.443359
vt 0.716798 0.814450
vt 0.712849 0.814450
vt 0.712849 0.812505
vt 0.716798 0.812505
vt 0.734363 0.710938
vt 0.804683 0.710938
vt 0.804683 0.708969
vt 0.734363 0.708969
vt 0.806635 0.267568
vt 0.814489 0.267568
vt 0.814489 0.265625
vt 0.806635 0.265625
vt 0.806641 0.453110
vt 0.814453 0.453110
vt 0.814453 0.451156
vt 0.806641 0.451156
vt 0.027310 0.748036
vt 0.023438 0.748036
vt 0.023438 0.755874
vt 0.027310 0.755874
vt 0.488256 0.781240
vt 0.478491 0.781240
vt 0.478491 0.773425
vt 0.488256 0.773425
vt 0.806629 0.447255
vt 0.814470 0.447255
vt 0.794942 0.181678
vt 0.812500 0.181678
vt 0.812500 0.179649
vt 0.794942 0.179649
vt 0.812560 0.707054
vt 0.816407 0.707054
vt 0.816407 0.705062
vt 0.812560 0.705062
vt 0.187500 0.806641
vt 0.191416 0.806641
vt 0.191416 0.800779
vt 0.187500 0.800779
vt 0.740216 0.376957
vt 0.794910 0.376957
vt 0.794910 0.374994
vt 0.740216 0.374994
vt 0.812544 0.714848
vt 0.816406 0.714848
vt 0.816406 0.712852
vt 0.812544 0.712852
vt 0.017557 0.554696
vt 0.000000 0.554696
vt 0.000000 0.609395
vt 0.017557 0.609395
vt 0.113293 0.548851
vt 0.095703 0.548851
vt 0.095703 0.603532
vt 0.113293 0.603532
vt 0.351594 0.750000
vt 0.347638 0.750000
vt 0.347638 0.701135
vt 0.351594 0.701135
vt 0.500013 0.814463
vt 0.498055 0.814463
vt 0.498055 0.816407
vt 0.500013 0.816407
vt 0.412094 0.814463
vt 0.414051 0.814463
vt 0.414051 0.806651
vt 0.412094 0.806651
vt 0.123000 0.681647
vt 0.113251 0.681647
vt 0.113251 0.632844
vt 0.123000 0.632844
vt 0.503898 0.816406
vt 0.505851 0.816406
vt 0.505851 0.814471
vt 0.503898 0.814471
vt 0.482438 0.816406
vt 0.484408 0.816406
vt 0.484408 0.814454
vt 0.482438 0.814454
vt 0.753866 0.679696
vt 0.802749 0.679696
vt 0.802749 0.677700
vt 0.753866 0.677700
vt 0.759783 0.605457
vt 0.808622 0.605457
vt 0.808622 0.603500
vt 0.759783 0.603500
vt 0.744155 0.740234
vt 0.798811 0.740234
vt 0.798811 0.738293
vt 0.744155 0.738293
vt 0.691382 0.814453
vt 0.695309 0.814453
vt 0.695309 0.812510
vt 0.691382 0.812510
vt 0.761709 0.814453
vt 0.765581 0.814453
vt 0.765581 0.812505
vt 0.761709 0.812505
vt 0.679710 0.816407
vt 0.679710 0.810548
vt 0.757788 0.205065
vt 0.806660 0.205065
vt 0.806660 0.203125
vt 0.757788 0.203125
vt 0.681645 0.291029
vt 0.691422 0.291029
vt 0.691422 0.289071
vt 0.681645 0.289071
vt 0.707108 0.814454
vt 0.703169 0.814454
vt 0.703169 0.812501
vt 0.707108 0.812501
vt 0.748086 0.814471
vt 0.744068 0.814471
vt 0.744068 0.812499
vt 0.748086 0.812499
vt 0.392553 0.814450
vt 0.394523 0.814450
vt 0.394523 0.806621
vt 0.392553 0.806621
vt 0.759783 0.703135
vt 0.808622 0.703135
vt 0.808622 0.701178
vt 0.759783 0.701178
vt 0.806656 0.455104
vt 0.814454 0.455104
vt 0.814454 0.453134
vt 0.806656 0.453134
vt 0.812544 0.716758
vt 0.816406 0.716758
vt 0.812496 0.720715
vt 0.816406 0.720715
vt 0.816406 0.718760
vt 0.812496 0.718760
vt 0.507804 0.816406
vt 0.507804 0.814471
vt 0.806642 0.433607
vt 0.814453 0.433607
vt 0.814453 0.431624
vt 0.806642 0.431624
vt 0.816407 0.757810
vt 0.812491 0.757810
vt 0.812491 0.755859
vt 0.816407 0.755859
vt 0.486305 0.816407
vt 0.484392 0.816407
vt 0.484392 0.814450
vt 0.486305 0.814450
vt 0.720715 0.814451
vt 0.724626 0.814451
vt 0.724626 0.812496
vt 0.720715 0.812496
vt 0.742171 0.019519
vt 0.796827 0.019519
vt 0.796827 0.017578
vt 0.742171 0.017578
vt 0.035115 0.609395
vt 0.035115 0.554696
vt 0.566421 0.566377
vt 0.548831 0.566377
vt 0.548831 0.511696
vt 0.566421 0.511696
vt 0.740203 0.814471
vt 0.740203 0.812499
vt 0.710926 0.730497
vt 0.706999 0.730497
vt 0.706999 0.722658
vt 0.710926 0.722658
vt 0.634791 0.759770
vt 0.630822 0.759770
vt 0.630822 0.751932
vt 0.634791 0.751932
vt 0.431652 0.298803
vt 0.421875 0.298803
vt 0.421875 0.306632
vt 0.431652 0.306632
vt 0.363291 0.814450
vt 0.363291 0.806621
vt 0.734363 0.136736
vt 0.804683 0.136736
vt 0.804683 0.134766
vt 0.734363 0.134766
vt 0.072286 0.666040
vt 0.068359 0.666040
vt 0.068359 0.673812
vt 0.072286 0.673812
vt 0.751988 0.812503
vt 0.748072 0.812503
vt 0.748072 0.814454
vt 0.751988 0.814454
vt 0.814424 0.509773
vt 0.816407 0.509773
vt 0.816407 0.507816
vt 0.814424 0.507816
vt 0.488281 0.816406
vt 0.490205 0.816406
vt 0.490205 0.814469
vt 0.488281 0.814469
vt 0.437500 0.814471
vt 0.435547 0.814471
vt 0.435547 0.806633
vt 0.437500 0.806633
vt 0.492128 0.816406
vt 0.492128 0.814469
vt 0.502009 0.816406
vt 0.503864 0.816406
vt 0.503864 0.814471
vt 0.502009 0.814471
vt 0.816406 0.499990
vt 0.814449 0.499990
vt 0.814449 0.498047
vt 0.816406 0.498047
vt 0.816407 0.742169
vt 0.812543 0.742169
vt 0.812543 0.744141
vt 0.816407 0.744141
vt 0.816407 0.482422
vt 0.814437 0.482422
vt 0.814437 0.484379
vt 0.816407 0.484379
vt 0.681658 0.148412
vt 0.611337 0.148412
vt 0.611337 0.140604
vt 0.681658 0.140604
vt 0.816407 0.703125
vt 0.812560 0.703125
vt 0.755844 0.041059
vt 0.804727 0.041059
vt 0.804727 0.039062
vt 0.755844 0.039062
vt 0.816406 0.695312
vt 0.812468 0.695312
vt 0.416008 0.814463
vt 0.416008 0.806651
vt 0.740229 0.814451
vt 0.736318 0.814451
vt 0.736318 0.812496
vt 0.740229 0.812496
vt 0.755881 0.060537
vt 0.804687 0.060537
vt 0.804687 0.058594
vt 0.755881 0.058594
vt 0.048784 0.531277
vt 0.044922 0.531277
vt 0.044922 0.580056
vt 0.048784 0.580056
vt 0.812468 0.701169
vt 0.816406 0.701169
vt 0.816407 0.740234
vt 0.812543 0.740234
vt 0.224630 0.755865
vt 0.220703 0.755865
vt 0.220703 0.707054
vt 0.224630 0.707054
vt 0.494137 0.816406
vt 0.496105 0.816406
vt 0.496105 0.814463
vt 0.494137 0.814463
vt 0.500000 0.816406
vt 0.500000 0.814471
vt 0.480469 0.816406
vt 0.480469 0.814454
vt 0.691408 0.816406
vt 0.691408 0.810544
vt 0.330085 0.798828
vt 0.328116 0.798828
vt 0.328116 0.749979
vt 0.330085 0.749979
vt 0.806641 0.380841
vt 0.814453 0.380841
vt 0.492168 0.816406
vt 0.492168 0.814463
vt 0.812479 0.718772
vt 0.816406 0.718772
vt 0.816406 0.716832
vt 0.812479 0.716832
vt 0.732408 0.812496
vt 0.732408 0.814451
vt 0.794910 0.083994
vt 0.812500 0.083994
vt 0.812500 0.082031
vt 0.794910 0.082031
vt 0.755881 0.287113
vt 0.804687 0.287113
vt 0.804687 0.285170
vt 0.755881 0.285170
vt 0.716770 0.814453
vt 0.720698 0.814453
vt 0.720698 0.812512
vt 0.716770 0.812512
vt 0.482407 0.736328
vt 0.492162 0.736328
vt 0.492162 0.734358
vt 0.482407 0.734358
vt 0.546871 0.677735
vt 0.556649 0.677735
vt 0.556649 0.675778
vt 0.546871 0.675778
vt 0.746102 0.339845
vt 0.755866 0.339845
vt 0.755866 0.337891
vt 0.746102 0.337891
vt 0.355469 0.814450
vt 0.357439 0.814450
vt 0.357439 0.806621
vt 0.355469 0.806621
vt 0.412088 0.681678
vt 0.412088 0.632773
vt 0.517549 0.736302
vt 0.527314 0.736302
vt 0.527314 0.734348
vt 0.517549 0.734348
vt 0.394531 0.814463
vt 0.396488 0.814463
vt 0.396488 0.806651
vt 0.394531 0.806651
vt 0.093752 0.632844
vt 0.084003 0.632844
vt 0.084003 0.681647
vt 0.093752 0.681647
vt 0.433594 0.806633
vt 0.433594 0.814471
vt 0.814453 0.429688
vt 0.806642 0.429688
vt 0.644553 0.749999
vt 0.642570 0.749999
vt 0.642570 0.798819
vt 0.644553 0.798819
vt 0.216827 0.802734
vt 0.214844 0.802734
vt 0.214844 0.753913
vt 0.216827 0.753913
vt 0.816407 0.505859
vt 0.814424 0.505859
vt 0.398445 0.814463
vt 0.398445 0.806651
vt 0.757795 0.128887
vt 0.806641 0.128887
vt 0.806641 0.126953
vt 0.757795 0.126953
vt 0.451151 0.808594
vt 0.458963 0.808594
vt 0.458963 0.806640
vt 0.451151 0.806640
vt 0.074219 0.767541
vt 0.082011 0.767541
vt 0.082011 0.765632
vt 0.074219 0.765632
s 0
usemtl m_870d5149-0b9d-691f-1634-538271c2da26
f 1/1/1 4/2/1 6/3/1 2/4/1
f 6/5/2 5/6/2 179/7/2 2/8/2
f 1/9/3 178/10/3 3/11/3 4/12/3
f 4/13/4 3/14/4 5/15/4 6/16/4
f 178/17/5 1/18/5 2/19/5 179/20/5
f 7/21/6 94/22/6 8/23/6 150/24/6
f 79/25/7 147/26/7 9/27/7 140/28/7
f 145/29/8 138/30/8 10/31/8 155/32/8
f 160/33/8 39/34/8 32/35/8 31/36/8
f 17/37/9 43/38/9 37/39/9 11/40/9
f 12/41/10 104/42/10 41/43/10 45/44/10
f 137/45/11 136/46/11 87/47/11 13/48/11
f 100/49/12 14/50/12 99/51/12 62/52/12
f 15/53/13 143/54/13 156/55/13 158/56/13
f 16/57/14 17/58/14 11/59/14 59/60/14
f 23/61/15 176/62/15 18/63/15 24/64/15
f 112/65/16 44/66/16 19/67/16 113/68/16
f 43/69/17 76/70/17 38/71/17 37/72/17
f 135/73/18 20/74/18 21/75/18 157/76/18
f 118/77/19 116/78/19 54/79/19 119/80/19
f 22/81/16 23/82/16 24/83/16 26/84/16
f 25/85/20 22/86/20 26/87/20 177/88/20
f 27/89/16 159/90/16 160/91/16 31/92/16
f 28/93/21 168/94/21 166/95/21 47/96/21
f 101/97/22 103/98/22 63/99/22 64/100/22
f 156/101/23 77/102/23 29/103/23 158/104/23
f 30/105/24 161/106/24 110/107/24 109/108/24
f 163/109/20 27/110/20 31/111/20 32/112/20
f 33/113/25 161/114/25 30/115/25 153/116/25
f 103/117/26 102/118/26 60/119/26 63/120/26
f 95/121/27 34/122/27 35/123/27 111/124/27
f 107/125/28 106/126/28 52/127/28 36/128/28
f 19/129/29 88/130/29 114/131/29 113/132/29
f 37/133/30 38/134/30 59/135/30 11/136/30
f 164/137/24 163/138/24 32/139/24 39/140/24
f 94/141/31 93/142/31 57/143/31 8/144/31
f 104/145/32 40/146/32 74/147/32 41/148/32
f 42/149/33 107/150/33 36/151/33 75/152/33
f 17/153/34 16/154/34 76/155/34 43/156/34
f 44/157/35 128/158/35 88/159/35 19/160/35
f 105/161/36 12/162/36 45/163/36 46/164/36
f 49/165/16 51/166/16 28/167/16 47/168/16
f 48/169/37 75/170/37 36/171/37 52/172/37
f 49/173/25 165/174/25 50/175/25 51/176/25
f 106/177/38 108/178/38 48/150/38 52/149/38
f 97/179/39 53/180/39 56/181/39 98/182/39
f 119/183/40 54/184/40 55/185/40 89/186/40
f 93/187/41 149/188/41 56/189/41 57/190/41
f 102/191/42 58/192/42 59/193/42 60/194/42
f 61/195/43 129/196/43 132/197/43 70/198/43
f 62/199/44 99/200/44 98/201/44 56/202/44
f 63/203/45 60/204/45 59/205/45 64/206/45
f 129/207/46 61/208/46 69/209/46 130/210/46
f 65/211/47 68/212/47 175/213/47 168/214/47
f 66/215/48 67/216/48 68/217/48 65/218/48
f 22/219/49 25/220/49 176/221/49 23/222/49
f 170/223/50 90/224/50 92/225/50 171/226/50
f 78/227/51 79/228/51 140/229/51 134/230/51
f 69/231/52 61/232/52 70/233/52 139/234/52
f 71/235/53 173/236/53 72/237/53 73/238/53
f 53/239/54 100/240/54 62/241/54 56/242/54
f 40/243/55 105/244/55 46/245/55 74/246/55
f 108/247/56 42/248/56 75/249/56 48/250/56
f 76/251/57 16/37/57 59/40/57 38/252/57
f 142/253/58 141/254/58 29/255/58 77/256/58
f 153/257/59 30/258/59 109/259/59 35/260/59
f 78/261/46 133/262/46 147/263/46 79/264/46
f 121/265/60 80/266/60 81/267/60 122/268/60
f 82/269/61 96/270/61 83/271/61 127/272/61
f 84/273/62 174/274/62 115/275/62 85/276/62
f 128/277/24 86/278/24 114/279/24 88/280/24
f 130/281/63 69/282/63 139/196/63 131/195/63
f 136/283/64 135/284/64 157/285/64 87/286/64
f 91/224/65 169/287/65 172/288/65 88/225/65
f 89/184/66 55/183/66 117/79/66 120/80/66
f 90/289/67 91/290/67 88/291/67 92/292/67
f 149/293/68 93/294/68 94/295/68 7/296/68
f 82/297/69 34/298/69 95/299/69 96/300/69
f 20/301/70 137/302/70 13/303/70 21/304/70
f 14/305/71 97/306/71 98/307/71 99/308/71
f 53/309/72 97/202/72 14/199/72 100/310/72
f 101/311/73 58/312/73 102/313/73 103/314/73
f 80/315/74 121/266/74 124/267/74 146/316/74
f 104/317/3 12/318/3 105/319/3 40/320/3
f 106/321/75 107/322/75 42/323/75 108/324/75
f 35/325/21 109/326/21 110/327/21 162/328/21
f 96/122/76 95/329/76 111/330/76 83/123/76
f 86/331/77 112/332/77 113/333/77 114/334/77
f 74/335/2 46/336/2 45/337/2 41/338/2
f 150/339/78 8/340/78 57/341/78 56/342/78
f 174/343/79 71/344/79 73/345/79 115/346/79
f 54/347/80 116/348/80 117/349/80 55/350/80
f 90/351/75 170/352/75 169/353/75 91/354/75
f 118/348/81 119/355/81 89/356/81 120/349/81
f 121/357/82 122/358/82 123/359/82 124/360/82
f 125/361/83 167/362/83 67/363/83 66/364/83
f 123/365/84 126/366/84 146/367/84 124/368/84
f 83/369/85 111/370/85 35/371/85 127/372/85
f 112/373/86 86/374/86 128/375/86 44/376/86
f 116/186/87 118/185/87 120/377/87 117/378/87
f 129/379/88 130/380/88 131/381/88 132/382/88
f 133/28/89 78/27/89 134/383/89 148/384/89
f 125/216/90 66/385/90 65/386/90 168/217/90
f 135/387/91 136/388/91 137/389/91 20/390/91
f 152/391/92 151/392/92 10/393/92 138/394/92
f 131/395/93 139/396/93 70/397/93 132/398/93
f 140/26/93 9/25/93 148/399/93 134/400/93
f 122/366/94 81/365/94 126/401/94 123/402/94
f 15/403/91 141/404/91 142/405/91 143/406/91
f 144/407/63 152/408/63 138/409/63 145/410/63
f 81/411/95 80/357/95 146/360/95 126/412/95
f 147/413/96 133/227/96 148/230/96 9/414/96
f 149/142/97 7/415/97 150/416/97 56/143/97
f 154/417/49 151/418/49 152/419/49 144/420/49
f 33/421/98 153/422/98 35/106/98 162/105/98
f 151/423/43 154/407/43 155/410/43 10/424/43
f 143/425/79 142/426/79 77/427/79 156/428/79
f 21/389/23 13/429/23 87/430/23 157/388/23
f 58/431/99 101/432/99 64/433/99 59/434/99
f 154/435/100 144/436/100 145/437/100 155/438/100
f 141/439/101 15/440/101 158/441/101 29/442/101
f 159/443/15 164/444/15 39/445/15 160/446/15
f 161/447/102 33/448/102 162/449/102 110/450/102
f 51/451/59 50/452/59 168/453/59 28/454/59
f 34/455/103 82/456/103 127/457/103 35/458/103
f 27/459/49 163/36/49 164/33/49 159/460/49
f 165/461/102 49/462/102 47/463/102 166/464/102
f 167/465/104 125/466/104 168/467/104 175/468/104
f 24/469/8 18/470/8 177/471/8 26/472/8
f 88/353/37 172/473/37 171/474/37 92/352/37
f 169/292/105 170/291/105 171/475/105 172/476/105
f 115/477/8 73/478/8 72/479/8 85/480/8
f 84/481/49 173/482/49 71/483/49 174/484/49
f 173/346/101 84/345/101 85/485/101 72/486/101
f 67/466/106 167/487/106 175/488/106 68/467/106
f 176/489/24 25/490/24 177/491/24 18/492/24
f 50/493/24 165/494/24 166/495/24 168/496/24
f 3/497/107 178/498/107 179/499/107 5/500/107
