# Blender 4.1.0
# www.blender.org
mtllib ka52_wheel_rear.mtl
o wheel
v 0.118096 0.157840 0.376710
v 0.118096 0.157840 0.273187
v 0.118096 -0.155742 0.376710
v 0.118096 -0.155742 0.273187
v -0.117318 0.157840 0.376710
v -0.117318 0.157840 0.273187
v -0.117318 -0.155742 0.376710
v -0.117318 -0.155742 0.273187
v 0.118021 -0.298605 -0.079734
v 0.118021 -0.076975 -0.301364
v 0.118021 -0.377297 -0.158426
v 0.118021 -0.155667 -0.380056
v -0.117242 -0.298605 -0.079734
v -0.117242 -0.076975 -0.301364
v -0.117242 -0.377297 -0.158426
v -0.117242 -0.155667 -0.380056
v 0.118021 -0.155667 0.376636
v 0.118021 -0.076975 0.297943
v 0.118021 -0.377297 0.155006
v 0.118021 -0.298605 0.076314
v -0.117242 -0.155667 0.376636
v -0.117242 -0.076975 0.297943
v -0.117242 -0.377297 0.155006
v -0.117242 -0.298605 0.076314
v 0.118021 0.157765 0.376636
v 0.118021 0.379395 0.155006
v 0.118021 0.079073 0.297943
v 0.118021 0.300702 0.076314
v -0.117242 0.157765 0.376636
v -0.117242 0.379395 0.155006
v -0.117242 0.079073 0.297943
v -0.117242 0.300702 0.076314
v 0.118096 0.379470 0.155081
v 0.118096 0.379470 -0.158502
v 0.118096 0.252761 0.155081
v 0.118096 0.252761 -0.158502
v -0.117318 0.379470 0.155081
v -0.117318 0.379470 -0.158502
v -0.117318 0.252761 0.155081
v -0.117318 0.252761 -0.158502
v 0.118096 0.157840 -0.262757
v 0.118096 0.157840 -0.380132
v 0.118096 -0.155742 -0.262757
v 0.118096 -0.155742 -0.380132
v -0.117318 0.157840 -0.262757
v -0.117318 0.157840 -0.380132
v -0.117318 -0.155742 -0.262757
v -0.117318 -0.155742 -0.380132
v 0.118021 0.297904 -0.076936
v 0.118021 0.379395 -0.158426
v 0.118021 0.076274 -0.298565
v 0.118021 0.157765 -0.380056
v -0.117242 0.297904 -0.076936
v -0.117242 0.379395 -0.158426
v -0.117242 0.076274 -0.298565
v -0.117242 0.157765 -0.380056
v 0.068667 0.253305 0.274237
v 0.068667 0.253305 -0.263522
v 0.068667 -0.258998 0.274237
v 0.068667 -0.258998 -0.263522
v -0.074906 0.253305 0.274237
v -0.074906 0.253305 -0.263522
v -0.074906 -0.258998 0.274237
v -0.074906 -0.258998 -0.263522
v 0.118096 -0.258952 0.155081
v 0.118096 -0.258952 -0.158502
v 0.118096 -0.377373 0.155081
v 0.118096 -0.377373 -0.158502
v -0.117318 -0.258952 0.155081
v -0.117318 -0.258952 -0.158502
v -0.117318 -0.377373 0.155081
v -0.117318 -0.377373 -0.158502
vn 1.0000 -0.0000 -0.0000
vn -1.0000 -0.0000 -0.0000
vn -0.0000 1.0000 -0.0000
vn -0.0000 -1.0000 -0.0000
vn -0.0000 -0.0000 1.0000
vn -0.0000 -0.0000 -1.0000
vn -0.0000 0.7071 0.7071
vn -0.0000 -0.7071 -0.7071
vn -0.0000 -0.7071 0.7071
vn -0.0000 0.7071 -0.7071
vt 0.695312 0.103516
vt 0.695312 0.113281
vt 0.691406 0.113281
vt 0.691406 0.103516
vt 0.738281 0.103516
vt 0.738281 0.113281
vt 0.734375 0.113281
vt 0.734375 0.103516
vt 0.734375 0.101562
vt 0.734375 0.097656
vt 0.742188 0.097656
vt 0.742188 0.101562
vt 0.833984 0.097656
vt 0.833984 0.101562
vt 0.841797 0.101562
vt 0.841797 0.097656
vt 0.070312 0.119141
vt 0.070312 0.128906
vt 0.062500 0.128906
vt 0.062500 0.119141
vt 0.876953 0.123047
vt 0.876953 0.132812
vt 0.869141 0.132812
vt 0.869141 0.123047
vt 0.855469 0.107422
vt 0.855469 0.111328
vt 0.845703 0.111328
vt 0.845703 0.107422
vt 0.867188 0.107422
vt 0.867188 0.111328
vt 0.857422 0.111328
vt 0.857422 0.107422
vt 0.363281 0.128906
vt 0.363281 0.119141
vt 0.371094 0.119141
vt 0.371094 0.128906
vt 0.871094 0.441406
vt 0.871094 0.451172
vt 0.878906 0.451172
vt 0.878906 0.441406
vt 0.908203 0.765625
vt 0.908203 0.769531
vt 0.900391 0.769531
vt 0.900391 0.765625
vt 0.908203 0.791016
vt 0.908203 0.794922
vt 0.900391 0.794922
vt 0.900391 0.791016
vt 0.046875 0.103516
vt 0.046875 0.113281
vt 0.042969 0.113281
vt 0.042969 0.103516
vt 0.343750 0.103516
vt 0.343750 0.113281
vt 0.339844 0.113281
vt 0.339844 0.103516
vt 0.628906 0.101562
vt 0.628906 0.097656
vt 0.636719 0.097656
vt 0.636719 0.101562
vt 0.689453 0.097656
vt 0.689453 0.101562
vt 0.697266 0.101562
vt 0.697266 0.097656
vt 0.845703 0.121094
vt 0.845703 0.130859
vt 0.837891 0.130859
vt 0.837891 0.121094
vt 0.703125 0.121094
vt 0.703125 0.130859
vt 0.695312 0.130859
vt 0.695312 0.121094
vt 0.138672 0.109375
vt 0.138672 0.113281
vt 0.128906 0.113281
vt 0.128906 0.109375
vt 0.460938 0.109375
vt 0.460938 0.113281
vt 0.451172 0.113281
vt 0.451172 0.109375
vt 0.675781 0.130859
vt 0.675781 0.121094
vt 0.683594 0.121094
vt 0.683594 0.130859
vt 0.685547 0.121094
vt 0.685547 0.130859
vt 0.693359 0.130859
vt 0.693359 0.121094
vt 0.626953 0.097656
vt 0.626953 0.101562
vt 0.619141 0.101562
vt 0.619141 0.097656
vt 0.527344 0.097656
vt 0.527344 0.101562
vt 0.519531 0.101562
vt 0.519531 0.097656
vt 0.705078 0.720703
vt 0.705078 0.724609
vt 0.695312 0.724609
vt 0.695312 0.720703
vt 0.751953 0.230469
vt 0.751953 0.234375
vt 0.742188 0.234375
vt 0.742188 0.230469
vt 0.560547 0.130859
vt 0.560547 0.121094
vt 0.568359 0.121094
vt 0.568359 0.130859
vt 0.638672 0.121094
vt 0.638672 0.130859
vt 0.646484 0.130859
vt 0.646484 0.121094
vt 0.517578 0.097656
vt 0.517578 0.101562
vt 0.509766 0.101562
vt 0.509766 0.097656
vt 0.488281 0.097656
vt 0.488281 0.101562
vt 0.480469 0.101562
vt 0.480469 0.097656
vt 0.419922 0.105469
vt 0.419922 0.115234
vt 0.416016 0.115234
vt 0.416016 0.105469
vt 0.013672 0.103516
vt 0.013672 0.113281
vt 0.009766 0.113281
vt 0.009766 0.103516
vt 0.427734 0.101562
vt 0.427734 0.097656
vt 0.435547 0.097656
vt 0.435547 0.101562
vt 0.470703 0.097656
vt 0.470703 0.101562
vt 0.478516 0.101562
vt 0.478516 0.097656
vt 0.535156 0.121094
vt 0.535156 0.130859
vt 0.527344 0.130859
vt 0.527344 0.121094
vt 0.525391 0.121094
vt 0.525391 0.130859
vt 0.517578 0.130859
vt 0.517578 0.121094
vt 0.058594 0.359375
vt 0.058594 0.369141
vt 0.054688 0.369141
vt 0.054688 0.359375
vt 0.414062 0.105469
vt 0.414062 0.115234
vt 0.410156 0.115234
vt 0.410156 0.105469
vt 0.898438 0.683594
vt 0.898438 0.679688
vt 0.906250 0.679688
vt 0.906250 0.683594
vt 0.417969 0.097656
vt 0.417969 0.101562
vt 0.425781 0.101562
vt 0.425781 0.097656
vt 0.501953 0.121094
vt 0.501953 0.130859
vt 0.494141 0.130859
vt 0.494141 0.121094
vt 0.558594 0.123047
vt 0.558594 0.132812
vt 0.550781 0.132812
vt 0.550781 0.123047
vt 0.800781 0.695312
vt 0.800781 0.710938
vt 0.783203 0.710938
vt 0.783203 0.695312
vt 0.802734 0.607422
vt 0.802734 0.623047
vt 0.785156 0.623047
vt 0.785156 0.607422
vt 0.664062 0.128906
vt 0.664062 0.111328
vt 0.667969 0.111328
vt 0.667969 0.128906
vt 0.669922 0.111328
vt 0.669922 0.128906
vt 0.673828 0.128906
vt 0.673828 0.111328
vt 0.291016 0.703125
vt 0.291016 0.718750
vt 0.287109 0.718750
vt 0.287109 0.703125
vt 0.017578 0.984375
vt 0.017578 1.000000
vt 0.013672 1.000000
vt 0.013672 0.984375
vt 0.765625 0.107422
vt 0.765625 0.111328
vt 0.755859 0.111328
vt 0.755859 0.107422
vt 0.898438 0.203125
vt 0.898438 0.207031
vt 0.888672 0.207031
vt 0.888672 0.203125
vt 0.072266 0.128906
vt 0.072266 0.119141
vt 0.080078 0.119141
vt 0.080078 0.128906
vt 0.148438 0.119141
vt 0.148438 0.128906
vt 0.156250 0.128906
vt 0.156250 0.119141
vt 0.134766 0.095703
vt 0.134766 0.099609
vt 0.126953 0.099609
vt 0.126953 0.095703
vt 0.072266 0.095703
vt 0.072266 0.099609
vt 0.064453 0.099609
vt 0.064453 0.095703
s 0
usemtl m_45491358-8273-8b1c-04d8-94d3d9d3c813
f 4/1/1 2/2/1 1/3/1 3/4/1
f 7/5/2 5/6/2 6/7/2 8/8/2
f 1/9/3 2/10/3 6/11/3 5/12/3
f 4/13/4 3/14/4 7/15/4 8/16/4
f 3/17/5 1/18/5 5/19/5 7/20/5
f 8/21/6 6/22/6 2/23/6 4/24/6
f 12/25/1 10/26/1 9/27/1 11/28/1
f 15/29/2 13/30/2 14/31/2 16/32/2
f 9/33/7 10/34/7 14/35/7 13/36/7
f 12/37/8 11/38/8 15/39/8 16/40/8
f 11/41/9 9/42/9 13/43/9 15/44/9
f 16/45/10 14/46/10 10/47/10 12/48/10
f 20/49/1 18/50/1 17/51/1 19/52/1
f 23/53/2 21/54/2 22/55/2 24/56/2
f 17/57/7 18/58/7 22/59/7 21/60/7
f 20/61/8 19/62/8 23/63/8 24/64/8
f 19/65/9 17/66/9 21/67/9 23/68/9
f 24/69/10 22/70/10 18/71/10 20/72/10
f 28/73/1 26/74/1 25/75/1 27/76/1
f 31/77/2 29/78/2 30/79/2 32/80/2
f 25/81/7 26/82/7 30/83/7 29/84/7
f 28/85/8 27/86/8 31/87/8 32/88/8
f 27/89/9 25/90/9 29/91/9 31/92/9
f 32/93/10 30/94/10 26/95/10 28/96/10
f 36/97/1 34/98/1 33/99/1 35/100/1
f 39/101/2 37/102/2 38/103/2 40/104/2
f 33/105/3 34/106/3 38/107/3 37/108/3
f 36/109/4 35/110/4 39/111/4 40/112/4
f 35/113/5 33/114/5 37/115/5 39/116/5
f 40/117/6 38/118/6 34/119/6 36/120/6
f 44/121/1 42/122/1 41/123/1 43/124/1
f 47/125/2 45/126/2 46/127/2 48/128/2
f 41/129/3 42/130/3 46/131/3 45/132/3
f 44/133/4 43/134/4 47/135/4 48/136/4
f 43/137/5 41/138/5 45/139/5 47/140/5
f 48/141/6 46/142/6 42/143/6 44/144/6
f 52/145/1 50/146/1 49/147/1 51/148/1
f 55/149/2 53/150/2 54/151/2 56/152/2
f 49/153/7 50/154/7 54/155/7 53/156/7
f 52/157/8 51/158/8 55/159/8 56/160/8
f 51/161/9 49/162/9 53/163/9 55/164/9
f 56/165/10 54/166/10 50/167/10 52/168/10
f 60/169/1 58/170/1 57/171/1 59/172/1
f 63/173/2 61/174/2 62/175/2 64/176/2
f 57/177/3 58/178/3 62/179/3 61/180/3
f 60/181/4 59/182/4 63/183/4 64/184/4
f 59/185/5 57/186/5 61/187/5 63/188/5
f 64/189/6 62/190/6 58/191/6 60/192/6
f 68/193/1 66/194/1 65/195/1 67/196/1
f 71/197/2 69/198/2 70/199/2 72/200/2
f 65/201/3 66/202/3 70/203/3 69/204/3
f 68/205/4 67/206/4 71/207/4 72/208/4
f 67/209/5 65/210/5 69/211/5 71/212/5
f 72/213/6 70/214/6 66/215/6 68/216/6
