# Blender 4.1.0
# www.blender.org
mtllib msta_wheel.mtl
o wheel
v 0.253774 0.168750 0.168750
v 0.253774 0.168750 -0.168750
v 0.253774 -0.168750 0.168750
v 0.253774 -0.168750 -0.168750
v -0.253774 0.168750 -0.168750
v -0.253774 0.168750 0.168750
v -0.253774 -0.168750 -0.168750
v -0.253774 -0.168750 0.168750
v 0.183537 0.381970 0.381126
v 0.183537 0.381970 -0.371466
v 0.183537 -0.374641 0.381126
v 0.183537 -0.374641 -0.371466
v 0.166297 0.381970 -0.371466
v 0.166297 0.381970 0.381126
v 0.166297 -0.374641 -0.371466
v 0.166297 -0.374641 0.381126
v 0.217564 -0.398950 -0.073925
v 0.217564 -0.051392 -0.421483
v 0.217564 -0.563906 -0.238881
v 0.217564 -0.216348 -0.586439
v -0.103076 -0.051392 -0.421483
v -0.103076 -0.398950 -0.073925
v -0.103076 -0.216348 -0.586439
v -0.103076 -0.563906 -0.238881
v 0.217564 0.598009 -0.238881
v 0.217564 0.250451 -0.586439
v 0.217564 0.433053 -0.073925
v 0.217564 0.085495 -0.421483
v -0.103076 0.250451 -0.586439
v -0.103076 0.598009 -0.238881
v -0.103076 0.085495 -0.421483
v -0.103076 0.433053 -0.073925
v 0.216865 -0.343589 0.252176
v 0.216865 -0.343589 -0.238182
v 0.216865 -0.563206 0.252176
v 0.216865 -0.563206 -0.238181
v -0.102610 -0.343589 -0.238182
v -0.102610 -0.343589 0.252176
v -0.102610 -0.563206 -0.238181
v -0.102610 -0.563206 0.252176
v 0.217564 -0.051392 0.435478
v 0.217564 -0.398950 0.087920
v 0.217564 -0.216348 0.600434
v 0.217564 -0.563905 0.252876
v -0.103076 -0.398950 0.087920
v -0.103076 -0.051392 0.435478
v -0.103076 -0.563905 0.252876
v -0.103076 -0.216348 0.600434
v 0.216865 0.597309 0.252176
v 0.216865 0.597309 -0.238182
v 0.216865 0.377693 0.252176
v 0.216865 0.377693 -0.238182
v -0.102610 0.597309 -0.238182
v -0.102610 0.597309 0.252176
v -0.102610 0.377693 -0.238182
v -0.102610 0.377693 0.252176
v 0.216865 0.249752 -0.362747
v 0.216865 0.249752 -0.585739
v 0.216865 -0.215648 -0.362747
v 0.216865 -0.215648 -0.585739
v -0.102610 0.249752 -0.585739
v -0.102610 0.249752 -0.362747
v -0.102610 -0.215648 -0.585739
v -0.102610 -0.215648 -0.362747
v 0.216865 0.249752 0.599734
v 0.216865 0.249752 0.376742
v 0.216865 -0.215648 0.599734
v 0.216865 -0.215648 0.376742
v -0.102610 0.249752 0.376742
v -0.102610 0.249752 0.599734
v -0.102610 -0.215648 0.376742
v -0.102610 -0.215648 0.599734
v 0.217564 0.250452 0.600433
v 0.217564 0.598009 0.252876
v 0.217564 0.085496 0.435478
v 0.217564 0.433053 0.087920
v -0.103076 0.598009 0.252876
v -0.103076 0.250452 0.600433
v -0.103076 0.433053 0.087920
v -0.103076 0.085496 0.435478
vn -0.0000 -0.0000 -1.0000
vn 1.0000 -0.0000 -0.0000
vn -0.0000 -0.0000 1.0000
vn -1.0000 -0.0000 -0.0000
vn -0.0000 1.0000 -0.0000
vn -0.0000 -1.0000 -0.0000
vn -0.0000 0.7071 -0.7071
vn -0.0000 -0.7071 0.7071
vn -0.0000 0.7071 0.7071
vn -0.0000 -0.7071 -0.7071
vt 0.218750 0.550781
vt 0.250000 0.550781
vt 0.250000 0.570312
vt 0.218750 0.570312
vt 0.000000 0.445312
vt 0.019531 0.445312
vt 0.019531 0.464844
vt 0.000000 0.464844
vt 0.218750 0.531250
vt 0.250000 0.531250
vt 0.039062 0.445312
vt 0.039062 0.464844
vt 0.464844 0.535156
vt 0.433594 0.535156
vt 0.433594 0.515625
vt 0.464844 0.515625
vt 0.496094 0.527344
vt 0.464844 0.527344
vt 0.464844 0.546875
vt 0.496094 0.546875
vt 0.089844 0.378906
vt 0.093750 0.378906
vt 0.093750 0.425781
vt 0.089844 0.425781
vt 0.207031 0.667969
vt 0.253906 0.667969
vt 0.253906 0.714844
vt 0.207031 0.714844
vt 0.097656 0.378906
vt 0.097656 0.425781
vt 0.300781 0.667969
vt 0.300781 0.714844
vt 0.253906 0.425781
vt 0.250000 0.425781
vt 0.250000 0.378906
vt 0.253906 0.378906
vt 0.257812 0.378906
vt 0.257812 0.425781
vt 0.531250 0.570312
vt 0.550781 0.570312
vt 0.550781 0.585938
vt 0.531250 0.585938
vt 0.511719 0.933594
vt 0.542969 0.933594
vt 0.542969 0.949219
vt 0.511719 0.949219
vt 0.542969 0.652344
vt 0.562500 0.652344
vt 0.562500 0.667969
vt 0.542969 0.667969
vt 0.324219 0.472656
vt 0.355469 0.472656
vt 0.355469 0.488281
vt 0.324219 0.488281
vt 0.085938 0.531250
vt 0.066406 0.531250
vt 0.066406 0.500000
vt 0.085938 0.500000
vt 0.105469 0.500000
vt 0.105469 0.531250
vt 0.550781 0.796875
vt 0.570312 0.796875
vt 0.570312 0.812500
vt 0.550781 0.812500
vt 0.519531 0.984375
vt 0.550781 0.984375
vt 0.550781 1.000000
vt 0.519531 1.000000
vt 0.550781 0.781250
vt 0.570312 0.781250
vt 0.519531 0.796875
vt 0.519531 0.812500
vt 0.339844 0.527344
vt 0.320312 0.527344
vt 0.320312 0.496094
vt 0.339844 0.496094
vt 0.484375 0.496094
vt 0.464844 0.496094
vt 0.484375 0.527344
vt 0.570312 0.570312
vt 0.570312 0.585938
vt 0.519531 0.781250
vt 0.523438 0.433594
vt 0.542969 0.433594
vt 0.542969 0.449219
vt 0.523438 0.449219
vt 0.164062 0.460938
vt 0.195312 0.460938
vt 0.195312 0.476562
vt 0.164062 0.476562
vt 0.019531 0.523438
vt 0.000000 0.523438
vt 0.000000 0.492188
vt 0.019531 0.492188
vt 0.039062 0.492188
vt 0.039062 0.523438
vt 0.542969 0.453125
vt 0.562500 0.453125
vt 0.562500 0.468750
vt 0.542969 0.468750
vt 0.355469 0.468750
vt 0.386719 0.468750
vt 0.386719 0.484375
vt 0.355469 0.484375
vt 0.542969 0.437500
vt 0.562500 0.437500
vt 0.417969 0.468750
vt 0.417969 0.484375
vt 0.164062 0.531250
vt 0.144531 0.531250
vt 0.144531 0.500000
vt 0.164062 0.500000
vt 0.238281 0.500000
vt 0.218750 0.500000
vt 0.238281 0.531250
vt 0.542969 0.585938
vt 0.562500 0.585938
vt 0.562500 0.601562
vt 0.542969 0.601562
vt 0.511719 0.652344
vt 0.511719 0.667969
vt 0.562500 0.484375
vt 0.542969 0.484375
vt 0.511719 0.585938
vt 0.511719 0.601562
vt 0.125000 0.531250
vt 0.125000 0.500000
vt 0.347656 0.441406
vt 0.363281 0.441406
vt 0.363281 0.468750
vt 0.347656 0.468750
vt 0.378906 0.441406
vt 0.378906 0.468750
vt 0.000000 0.429688
vt 0.019531 0.429688
vt 0.039062 0.429688
vt 0.480469 0.468750
vt 0.500000 0.468750
vt 0.500000 0.496094
vt 0.480469 0.496094
vt 0.078125 0.441406
vt 0.093750 0.441406
vt 0.093750 0.468750
vt 0.078125 0.468750
vt 0.503906 0.484375
vt 0.523438 0.484375
vt 0.523438 0.511719
vt 0.503906 0.511719
vt 0.109375 0.441406
vt 0.109375 0.468750
vt 0.570312 1.000000
vt 0.570312 0.984375
vt 0.570312 0.968750
vt 0.550781 0.968750
vt 0.117188 0.433594
vt 0.136719 0.433594
vt 0.136719 0.449219
vt 0.117188 0.449219
vt 0.449219 0.468750
vt 0.449219 0.484375
vt 0.156250 0.433594
vt 0.156250 0.449219
vt 0.531250 0.468750
vt 0.531250 0.484375
vt 0.500000 0.484375
vt 0.300781 0.527344
vt 0.281250 0.527344
vt 0.281250 0.496094
vt 0.300781 0.496094
s 0
usemtl m_5935ce03-4def-a17c-fbac-8f522bdf1c80
f 4/1/1 7/2/1 5/3/1 2/4/1
f 3/5/2 4/6/2 2/7/2 1/8/2
f 8/9/3 3/10/3 1/2/3 6/1/3
f 7/6/4 8/11/4 6/12/4 5/7/4
f 6/13/5 1/14/5 2/15/5 5/16/5
f 7/17/6 4/18/6 3/19/6 8/20/6
f 12/21/1 15/22/1 13/23/1 10/24/1
f 11/25/2 12/26/2 10/27/2 9/28/2
f 16/22/3 11/29/3 9/30/3 14/23/3
f 15/26/4 16/31/4 14/32/4 13/27/4
f 14/33/5 9/34/5 10/35/5 13/36/5
f 15/37/6 12/36/6 11/33/6 16/38/6
f 20/39/7 23/40/7 21/41/7 18/42/7
f 19/43/2 20/44/2 18/45/2 17/46/2
f 24/47/8 19/48/8 17/49/8 22/50/8
f 23/51/4 24/52/4 22/53/4 21/54/4
f 22/55/9 17/56/9 18/57/9 21/58/9
f 23/59/10 20/58/10 19/55/10 24/60/10
f 28/61/10 31/62/10 29/63/10 26/64/10
f 27/65/2 28/66/2 26/67/2 25/68/2
f 32/69/9 27/70/9 25/62/9 30/61/9
f 31/71/4 32/61/4 30/64/4 29/72/4
f 30/73/7 25/74/7 26/75/7 29/76/7
f 31/77/8 28/78/8 27/18/8 32/79/8
f 36/40/1 39/80/1 37/81/1 34/41/1
f 35/82/2 36/69/2 34/61/2 33/71/2
f 40/83/3 35/84/3 33/85/3 38/86/3
f 39/87/4 40/88/4 38/89/4 37/90/4
f 38/91/5 33/92/5 34/93/5 37/94/5
f 39/95/6 36/94/6 35/91/6 40/96/6
f 44/97/10 47/98/10 45/99/10 42/100/10
f 43/101/2 44/102/2 42/103/2 41/104/2
f 48/105/9 43/106/9 41/98/9 46/97/9
f 47/102/4 48/107/4 46/108/4 45/103/4
f 46/109/7 41/110/7 42/111/7 45/112/7
f 47/113/8 44/114/8 43/9/8 48/115/8
f 52/116/1 55/117/1 53/118/1 50/119/1
f 51/120/2 52/47/2 50/50/2 49/121/2
f 56/100/3 51/99/3 49/122/3 54/123/3
f 55/124/4 56/116/4 54/119/4 53/125/4
f 54/126/5 49/60/5 50/59/5 53/127/5
f 55/111/6 52/127/6 51/126/6 56/110/6
f 60/8/1 63/7/1 61/94/1 58/93/1
f 59/128/2 60/129/2 58/130/2 57/131/2
f 64/7/3 59/12/3 57/95/3 62/94/3
f 63/129/4 64/132/4 62/133/4 61/130/4
f 62/6/5 57/5/5 58/134/5 61/135/5
f 63/136/6 60/135/6 59/6/6 64/11/6
f 68/137/1 71/138/1 69/139/1 66/140/1
f 67/141/2 68/142/2 66/143/2 65/144/2
f 72/145/3 67/146/3 65/147/3 70/148/3
f 71/142/4 72/149/4 70/150/4 69/143/4
f 70/151/5 65/67/5 66/66/5 69/152/5
f 71/153/6 68/154/6 67/66/6 72/152/6
f 76/155/7 79/156/7 77/157/7 74/158/7
f 75/107/2 76/159/2 74/160/2 73/108/2
f 80/156/8 75/161/8 73/162/8 78/157/8
f 79/138/4 80/163/4 78/164/4 77/165/4
f 78/166/9 73/167/9 74/168/9 77/169/9
f 79/75/10 76/169/10 75/166/10 80/74/10
