# Blender 4.0.2
# www.blender.org
mtllib pkt.mtl
o pkt
v 0.026349 0.014842 -0.811883
v 0.026349 0.014842 -0.874499
v 0.026349 -0.066558 -0.811883
v 0.026349 -0.066558 -0.874499
v -0.025249 0.014842 -0.874499
v -0.025249 0.014842 -0.811883
v -0.025249 -0.066558 -0.874499
v -0.025249 -0.066558 -0.811883
v -0.000936 0.033904 0.200036
v -0.000936 0.033904 -0.257060
v 0.021585 0.012155 0.200036
v 0.021585 0.012155 -0.257060
v -0.022684 0.011383 -0.257060
v -0.022684 0.011383 0.200036
v -0.000163 -0.010366 -0.257060
v -0.000163 -0.010366 0.200036
v 0.026349 0.052412 -0.123109
v 0.026349 0.052412 -0.811883
v 0.026349 -0.047773 -0.123109
v 0.026349 -0.047773 -0.811883
v -0.025249 0.052412 -0.811883
v -0.025249 0.052412 -0.123109
v -0.025249 -0.047773 -0.811883
v -0.025249 -0.047773 -0.123109
v -0.001091 0.042758 0.206297
v -0.001091 0.042758 0.143682
v 0.030439 0.012310 0.206297
v 0.030439 0.012310 0.143682
v -0.031538 0.011228 0.143682
v -0.031538 0.011228 0.206297
v -0.000009 -0.019219 0.143682
v -0.000009 -0.019219 0.206297
vn -0.0000 -0.0000 -1.0000
vn 1.0000 -0.0000 -0.0000
vn -0.0000 -0.0000 1.0000
vn -1.0000 -0.0000 -0.0000
vn -0.0000 1.0000 -0.0000
vn -0.0000 -1.0000 -0.0000
vn 0.6947 0.7193 -0.0000
vn -0.6947 -0.7193 -0.0000
vn -0.7193 0.6947 -0.0000
vn 0.7193 -0.6947 -0.0000
vt 0.373047 0.343750
vt 0.375000 0.343750
vt 0.375000 0.347656
vt 0.373047 0.347656
vt 0.726562 0.763672
vt 0.728516 0.763672
vt 0.728516 0.767578
vt 0.726562 0.767578
vt 0.744141 0.685547
vt 0.746094 0.685547
vt 0.746094 0.689453
vt 0.744141 0.689453
vt 0.119141 0.224609
vt 0.121094 0.224609
vt 0.121094 0.228516
vt 0.119141 0.228516
vt 0.861328 0.712891
vt 0.859375 0.712891
vt 0.859375 0.710938
vt 0.861328 0.710938
vt 0.861328 0.605469
vt 0.859375 0.605469
vt 0.859375 0.607422
vt 0.861328 0.607422
vt 0.839844 0.707031
vt 0.841797 0.707031
vt 0.841797 0.708984
vt 0.839844 0.708984
vt 0.251953 0.623047
vt 0.269531 0.623047
vt 0.269531 0.625000
vt 0.251953 0.625000
vt 0.044922 0.156250
vt 0.046875 0.156250
vt 0.046875 0.158203
vt 0.044922 0.158203
vt 0.652344 0.359375
vt 0.669922 0.359375
vt 0.669922 0.361328
vt 0.652344 0.361328
vt 0.507812 0.126953
vt 0.505859 0.126953
vt 0.505859 0.109375
vt 0.507812 0.109375
vt 0.509766 0.109375
vt 0.509766 0.126953
vt 0.775391 0.656250
vt 0.777344 0.656250
vt 0.777344 0.660156
vt 0.775391 0.660156
vt 0.833984 0.765625
vt 0.859375 0.765625
vt 0.859375 0.769531
vt 0.833984 0.769531
vt 0.558594 0.218750
vt 0.560547 0.218750
vt 0.560547 0.222656
vt 0.558594 0.222656
vt 0.833984 0.666016
vt 0.859375 0.666016
vt 0.859375 0.669922
vt 0.833984 0.669922
vt 0.761719 0.132812
vt 0.759766 0.132812
vt 0.759766 0.107422
vt 0.761719 0.107422
vt 0.222656 0.105469
vt 0.220703 0.105469
vt 0.220703 0.130859
vt 0.222656 0.130859
vt 0.468750 0.156250
vt 0.470703 0.156250
vt 0.470703 0.158203
vt 0.468750 0.158203
vt 0.845703 0.496094
vt 0.847656 0.496094
vt 0.847656 0.498047
vt 0.845703 0.498047
vt 0.847656 0.716797
vt 0.849609 0.716797
vt 0.849609 0.718750
vt 0.847656 0.718750
vt 0.849609 0.708984
vt 0.851562 0.708984
vt 0.851562 0.710938
vt 0.849609 0.710938
vt 0.853516 0.703125
vt 0.851562 0.703125
vt 0.851562 0.701172
vt 0.853516 0.701172
vt 0.859375 0.367188
vt 0.857422 0.367188
vt 0.857422 0.369141
vt 0.859375 0.369141
s 0
usemtl m_40acb087-42ff-e342-89c1-937425d4b9d7
f 4/1/1 7/2/1 5/3/1 2/4/1
f 3/5/2 4/6/2 2/7/2 1/8/2
f 8/9/3 3/10/3 1/11/3 6/12/3
f 7/13/4 8/14/4 6/15/4 5/16/4
f 6/17/5 1/18/5 2/19/5 5/20/5
f 7/21/6 4/22/6 3/23/6 8/24/6
f 12/25/1 15/26/1 13/27/1 10/28/1
f 11/29/7 12/30/7 10/31/7 9/32/7
f 16/33/3 11/34/3 9/35/3 14/36/3
f 15/37/8 16/38/8 14/39/8 13/40/8
f 14/41/9 9/42/9 10/43/9 13/44/9
f 15/45/10 12/44/10 11/41/10 16/46/10
f 20/47/1 23/48/1 21/49/1 18/50/1
f 19/51/2 20/52/2 18/53/2 17/54/2
f 24/55/3 19/56/3 17/57/3 22/58/3
f 23/59/4 24/60/4 22/61/4 21/62/4
f 22/63/5 17/64/5 18/65/5 21/66/5
f 23/67/6 20/68/6 19/69/6 24/70/6
f 28/71/1 31/72/1 29/73/1 26/74/1
f 27/75/7 28/76/7 26/77/7 25/78/7
f 32/79/3 27/80/3 25/81/3 30/82/3
f 31/83/8 32/84/8 30/85/8 29/86/8
f 30/87/9 25/88/9 26/89/9 29/90/9
f 31/91/10 28/92/10 27/93/10 32/94/10
