# Blender 4.0.0
# www.blender.org
mtllib t90m_tracks.mtl
o cube
v 0.312500 0.031250 0.218750
v 0.312500 0.031250 -0.218750
v 0.312500 -0.031250 0.218750
v 0.312500 -0.031250 -0.218750
v -0.312500 0.031250 -0.218750
v -0.312500 0.031250 0.218750
v -0.312500 -0.031250 -0.218750
v -0.312500 -0.031250 0.218750
v 0.250000 0.093750 0.156250
v 0.250000 0.093750 -0.156250
v 0.250000 0.031250 0.156250
v 0.250000 0.031250 -0.156250
v -0.250000 0.093750 -0.156250
v -0.250000 0.093750 0.156250
v -0.250000 0.031250 -0.156250
v -0.250000 0.031250 0.156250
v 0.312500 0.031250 0.218750
v 0.312500 0.031250 -0.218750
v 0.312500 -0.031250 0.218750
v 0.312500 -0.031250 -0.218750
v -0.312500 0.031250 -0.218750
v -0.312500 0.031250 0.218750
v -0.312500 -0.031250 -0.218750
v -0.312500 -0.031250 0.218750
v 0.250000 0.093750 0.156250
v 0.250000 0.093750 -0.156250
v 0.250000 0.031250 0.156250
v 0.250000 0.031250 -0.156250
v -0.250000 0.093750 -0.156250
v -0.250000 0.093750 0.156250
v -0.250000 0.031250 -0.156250
v -0.250000 0.031250 0.156250
vn -0.0000 -0.0000 -1.0000
vn 1.0000 -0.0000 -0.0000
vn -0.0000 -0.0000 1.0000
vn -1.0000 -0.0000 -0.0000
vn -0.0000 1.0000 -0.0000
vn -0.0000 -1.0000 -0.0000
vt 0.343750 0.593750
vt 0.656250 0.593750
vt 0.656250 0.625000
vt 0.343750 0.625000
vt 0.000000 0.406250
vt 0.218750 0.406250
vt 0.218750 0.437500
vt 0.000000 0.437500
vt 0.343750 0.531250
vt 0.656250 0.531250
vt 0.656250 0.562500
vt 0.343750 0.562500
vt 0.250000 0.406250
vt 0.468750 0.406250
vt 0.468750 0.437500
vt 0.250000 0.437500
vt 0.312500 1.000000
vt 0.000000 1.000000
vt 0.000000 0.781250
vt 0.312500 0.781250
vt 0.312500 0.531250
vt 0.000000 0.531250
vt 0.000000 0.750000
vt 0.312500 0.750000
vt 0.000000 0.468750
vt 0.312500 0.468750
vt 0.312500 0.500000
vt 0.000000 0.500000
vt 0.500000 0.406250
vt 0.656250 0.406250
vt 0.656250 0.437500
vt 0.500000 0.437500
vt 0.343750 0.468750
vt 0.656250 0.468750
vt 0.656250 0.500000
vt 0.343750 0.500000
vt 0.000000 0.343750
vt 0.156250 0.343750
vt 0.156250 0.375000
vt 0.000000 0.375000
vt 0.656250 1.000000
vt 0.343750 1.000000
vt 0.343750 0.843750
vt 0.656250 0.843750
vt 0.656250 0.656250
vt 0.343750 0.656250
vt 0.343750 0.812500
vt 0.656250 0.812500
s 0
usemtl m_453472f1-49b1-9c8c-26bf-9c5fd5056e53
f 4/1/1 7/2/1 5/3/1 2/4/1
f 3/5/2 4/6/2 2/7/2 1/8/2
f 8/9/3 3/10/3 1/11/3 6/12/3
f 7/13/4 8/14/4 6/15/4 5/16/4
f 6/17/5 1/18/5 2/19/5 5/20/5
f 7/21/6 4/22/6 3/23/6 8/24/6
f 12/25/1 15/26/1 13/27/1 10/28/1
f 11/29/2 12/30/2 10/31/2 9/32/2
f 16/33/3 11/34/3 9/35/3 14/36/3
f 15/37/4 16/38/4 14/39/4 13/40/4
f 14/41/5 9/42/5 10/43/5 13/44/5
f 15/45/6 12/46/6 11/47/6 16/48/6
usemtl m_453472f1-49b1-9c8c-26bf-9c5fd5056e53.001
f 20/1/3 18/4/3 21/3/3 23/2/3
f 19/5/4 17/8/4 18/7/4 20/6/4
f 24/9/1 22/12/1 17/11/1 19/10/1
f 23/13/2 21/16/2 22/15/2 24/14/2
f 22/17/6 21/20/6 18/19/6 17/18/6
f 23/21/5 24/24/5 19/23/5 20/22/5
f 28/25/3 26/28/3 29/27/3 31/26/3
f 27/29/4 25/32/4 26/31/4 28/30/4
f 32/33/1 30/36/1 25/35/1 27/34/1
f 31/37/2 29/40/2 30/39/2 32/38/2
f 30/41/6 29/44/6 26/43/6 25/42/6
f 31/45/5 32/48/5 27/47/5 28/46/5
