# Blender 4.1.1
# www.blender.org
mtllib triplex.mtl
o triplex
v 0.250000 -0.125000 0.145833
v -0.250000 -0.125000 0.145833
v -0.250000 0.125000 0.145833
v 0.250000 0.125000 0.145833
v -0.250000 0.125000 0.145833
v -0.250000 -0.125000 0.145833
v -0.687500 -0.125000 -0.291667
v -0.687500 0.125000 -0.291667
v 0.687500 -0.125000 -0.291667
v 0.250000 -0.125000 0.145833
v 0.250000 0.125000 0.145833
v 0.687500 0.125000 -0.291667
vn -0.0000 -0.0000 -1.0000
vn 0.7071 -0.0000 -0.7071
vn -0.7071 -0.0000 -0.7071
vn -0.0000 1.0000 -0.0000
vn -0.0000 -0.0000 1.0000
vn -0.0000 -1.0000 -0.0000
vt 0.343750 0.218750
vt 0.593750 0.218750
vt 0.593750 0.343750
vt 0.343750 0.343750
vt 0.593750 0.812500
vt 0.593750 0.687500
vt 0.906250 0.687500
vt 0.906250 0.812500
vt 0.000000 0.218750
vt 0.312500 0.218750
vt 0.312500 0.343750
vt 0.000000 0.343750
vt 0.218750 0.781250
vt 0.468750 0.781250
vt 0.687500 1.000000
vt 0.000000 1.000000
vt 0.000000 0.375000
vt 0.687500 0.375000
vt 0.687500 0.500000
vt 0.000000 0.500000
vt 0.000000 0.531250
vt 0.687500 0.531250
vt 0.468750 0.750000
vt 0.218750 0.750000
s 0
usemtl m_8d3baf4c-070b-b92a-e9d4-487564d0f7fa
f 1/1/1 2/2/1 3/3/1 4/4/1
f 5/5/2 6/6/2 7/7/2 8/8/2
f 9/9/3 10/10/3 11/11/3 12/12/3
f 6/13/4 10/14/4 9/15/4 7/16/4
f 7/17/5 9/18/5 12/19/5 8/20/5
f 8/21/6 12/22/6 11/23/6 5/24/6
