# Blender 4.0.2
# www.blender.org
mtllib at_4.mtl
o maintube
v 0.076798 0.282053 0.747530
v 0.076798 0.125803 0.747530
v -0.079452 0.282053 0.747530
v -0.079452 0.125803 0.747530
v 0.076797 0.125803 -0.999345
v 0.076798 0.282053 -0.999345
v -0.079453 0.125803 -0.999345
v -0.079452 0.282053 -0.999345
v 0.123673 0.328928 -0.938408
v 0.123672 0.078928 -0.938408
v -0.126327 0.328928 -0.938408
v -0.126327 0.078928 -0.938408
v 0.123672 0.078928 -1.000908
v 0.123673 0.328928 -1.000908
v -0.126328 0.078928 -1.000908
v -0.126327 0.328928 -1.000908
v 0.078247 0.328733 -0.000908
v 0.078247 0.281858 -0.000908
v 0.031372 0.328733 -0.000908
v 0.031372 0.281858 -0.000908
v 0.078247 0.281858 -0.813408
v 0.078247 0.328733 -0.813408
v 0.031372 0.281858 -0.813408
v 0.031372 0.328733 -0.813408
v 0.092423 0.297678 -0.813408
v 0.092423 0.110178 -0.813408
v -0.095077 0.297678 -0.813408
v -0.095077 0.110178 -0.813408
v 0.092422 0.110178 -0.938408
v 0.092423 0.297678 -0.938408
v -0.095078 0.110178 -0.938408
v -0.095077 0.297678 -0.938408
v 0.109769 0.347865 0.686592
v 0.153964 0.303671 0.686592
v 0.043478 0.281574 0.686592
v 0.087672 0.237380 0.686592
v 0.153964 0.303671 0.652217
v 0.109769 0.347865 0.652217
v 0.087672 0.237380 0.652217
v 0.043478 0.281574 0.652217
v 0.109547 0.347643 0.080342
v 0.153741 0.303449 0.080342
v 0.021159 0.259255 0.080342
v 0.065353 0.215061 0.080342
v 0.153741 0.303449 0.045967
v 0.109547 0.347643 0.045967
v 0.065353 0.215061 0.045967
v 0.021159 0.259255 0.045967
v 0.088116 0.334699 0.080342
v 0.153741 0.334699 0.080342
v 0.088116 0.303449 0.080342
v 0.153741 0.303449 0.080342
v 0.153741 0.334699 0.045967
v 0.088116 0.334699 0.045967
v 0.153741 0.303449 0.045967
v 0.088116 0.303449 0.045967
v 0.091242 0.334699 0.686592
v 0.153742 0.334699 0.686592
v 0.091242 0.303449 0.686592
v 0.153742 0.303449 0.686592
v 0.153742 0.334699 0.652217
v 0.091242 0.334699 0.652217
v 0.153742 0.303449 0.652217
v 0.091242 0.303449 0.652217
v 0.120929 0.355012 0.686592
v 0.124054 0.355012 0.686592
v 0.120929 0.323762 0.686592
v 0.124054 0.323762 0.686592
v 0.124054 0.355012 0.652217
v 0.120929 0.355012 0.652217
v 0.124054 0.323762 0.652217
v 0.120929 0.323762 0.652217
v -0.125961 0.332883 0.749092
v 0.124039 0.332883 0.749092
v -0.125961 0.082883 0.749092
v 0.124039 0.082883 0.749092
v 0.124039 0.332883 0.686592
v -0.125961 0.332883 0.686592
v 0.124039 0.082883 0.686592
v -0.125961 0.082883 0.686592
v 0.025711 0.121812 0.342842
v 0.049629 0.179554 0.342842
v 0.083453 0.097894 0.342842
v 0.107371 0.155637 0.342842
v 0.049629 0.179554 -0.813408
v 0.025711 0.121812 -0.813408
v 0.107371 0.155637 -0.813408
v 0.083453 0.097894 -0.813408
v -0.021029 0.127783 0.530342
v 0.041471 0.127783 0.530342
v -0.021029 -0.059717 0.530342
v 0.041471 -0.059717 0.530342
v 0.041471 0.127783 0.467842
v -0.021029 0.127783 0.467842
v 0.041471 -0.059717 0.467842
v -0.021029 -0.059717 0.467842
v 0.086173 0.291428 0.561592
v 0.086173 0.116428 0.561592
v -0.088827 0.291428 0.561592
v -0.088827 0.116428 0.561592
v 0.086173 0.116428 -0.000908
v 0.086173 0.291428 -0.000908
v -0.088827 0.116428 -0.000908
v -0.088827 0.291428 -0.000908
v 0.086173 0.335178 -0.000908
v 0.086173 0.116428 -0.000908
v -0.088827 0.335178 -0.000908
v -0.088827 0.116428 -0.000908
v 0.086173 0.116428 -0.625908
v 0.086173 0.335178 -0.625908
v -0.088827 0.116428 -0.625908
v -0.088827 0.335178 -0.625908
v -0.088398 0.304243 0.030342
v 0.027815 0.335382 0.030342
v -0.059281 0.195577 0.030342
v 0.056932 0.226716 0.030342
v 0.027815 0.335382 -0.813408
v -0.088398 0.304243 -0.813408
v 0.056932 0.226716 -0.813408
v -0.059281 0.195577 -0.813408
v 0.091241 0.365949 0.080342
v 0.152179 0.365949 0.080342
v 0.091241 0.334699 0.080342
v 0.152179 0.334699 0.080342
v 0.152179 0.365949 0.045967
v 0.091241 0.365949 0.045967
v 0.152179 0.334699 0.045967
v 0.091241 0.334699 0.045967
v 0.065464 0.327442 0.339717
v 0.131755 0.261151 0.339717
v 0.032319 0.294296 0.339717
v 0.098610 0.228005 0.339717
v 0.131755 0.261151 0.028780
v 0.065464 0.327442 0.028780
v 0.098610 0.228005 0.028780
v 0.032319 0.294296 0.028780
v 0.065464 0.327442 0.683467
v 0.131755 0.261151 0.683467
v 0.032319 0.294296 0.683467
v 0.098610 0.228005 0.683467
v 0.131755 0.261151 0.435030
v 0.065464 0.327442 0.435030
v 0.098610 0.228005 0.435030
v 0.032319 0.294296 0.435030
v 0.025711 0.121812 0.342842
v 0.049629 0.179554 0.342842
v 0.083453 0.097894 0.342842
v 0.107371 0.155637 0.342842
v 0.049629 0.179554 -0.813408
v 0.025711 0.121812 -0.813408
v 0.107371 0.155637 -0.813408
v 0.083453 0.097894 -0.813408
v -0.021029 0.127783 0.530342
v 0.041471 0.127783 0.530342
v -0.021029 -0.059717 0.530342
v 0.041471 -0.059717 0.530342
v 0.041471 0.127783 0.467842
v -0.021029 0.127783 0.467842
v 0.041471 -0.059717 0.467842
v -0.021029 -0.059717 0.467842
v 0.086173 0.291428 0.561592
v 0.086173 0.116428 0.561592
v -0.088827 0.291428 0.561592
v -0.088827 0.116428 0.561592
v 0.086173 0.116428 -0.000908
v 0.086173 0.291428 -0.000908
v -0.088827 0.116428 -0.000908
v -0.088827 0.291428 -0.000908
v 0.086173 0.335178 -0.000908
v 0.086173 0.116428 -0.000908
v -0.088827 0.335178 -0.000908
v -0.088827 0.116428 -0.000908
v 0.086173 0.116428 -0.625908
v 0.086173 0.335178 -0.625908
v -0.088827 0.116428 -0.625908
v -0.088827 0.335178 -0.625908
v -0.088398 0.304243 0.030342
v 0.027815 0.335382 0.030342
v -0.059281 0.195577 0.030342
v 0.056932 0.226716 0.030342
v 0.027815 0.335382 -0.813408
v -0.088398 0.304243 -0.813408
v 0.056932 0.226716 -0.813408
v -0.059281 0.195577 -0.813408
v 0.091241 0.365949 0.080342
v 0.152179 0.365949 0.080342
v 0.091241 0.334699 0.080342
v 0.152179 0.334699 0.080342
v 0.152179 0.365949 0.045967
v 0.091241 0.365949 0.045967
v 0.152179 0.334699 0.045967
v 0.091241 0.334699 0.045967
v 0.065464 0.327442 0.339717
v 0.131755 0.261151 0.339717
v 0.032319 0.294296 0.339717
v 0.098610 0.228005 0.339717
v 0.131755 0.261151 0.028780
v 0.065464 0.327442 0.028780
v 0.098610 0.228005 0.028780
v 0.032319 0.294296 0.028780
v 0.065464 0.327442 0.683467
v 0.131755 0.261151 0.683467
v 0.032319 0.294296 0.683467
v 0.098610 0.228005 0.683467
v 0.131755 0.261151 0.435030
v 0.065464 0.327442 0.435030
v 0.098610 0.228005 0.435030
v 0.032319 0.294296 0.435030
vn -0.0000 -1.0000 -0.0000
vn -0.0000 -0.0000 1.0000
vn -0.0000 1.0000 -0.0000
vn -0.0000 -0.0000 -1.0000
vn 1.0000 -0.0000 -0.0000
vn -1.0000 -0.0000 -0.0000
vn 0.7071 -0.7071 -0.0000
vn -0.7071 0.7071 -0.0000
vn 0.7071 0.7071 -0.0000
vn -0.7071 -0.7071 -0.0000
vn 0.3827 0.9239 -0.0000
vn -0.3827 -0.9239 -0.0000
vn -0.9239 0.3827 -0.0000
vn 0.9239 -0.3827 -0.0000
vn 0.9659 0.2588 -0.0000
vn -0.9659 -0.2588 -0.0000
vn -0.2588 0.9659 -0.0000
vn 0.2588 -0.9659 -0.0000
vt 0.000000 0.960938
vt 0.437500 0.960938
vt 0.437500 1.000000
vt 0.000000 1.000000
vt 0.000000 0.429688
vt 0.039062 0.429688
vt 0.039062 0.468750
vt 0.000000 0.468750
vt 0.000000 0.898438
vt 0.437500 0.898438
vt 0.437500 0.937500
vt 0.000000 0.937500
vt 0.062500 0.429688
vt 0.101562 0.429688
vt 0.101562 0.468750
vt 0.062500 0.468750
vt 0.437500 0.875000
vt 0.000000 0.875000
vt 0.000000 0.835938
vt 0.437500 0.835938
vt 0.437500 0.773438
vt 0.000000 0.773438
vt 0.000000 0.812500
vt 0.437500 0.812500
vt 0.500000 0.359375
vt 0.515625 0.359375
vt 0.515625 0.421875
vt 0.500000 0.421875
vt 0.156250 0.453125
vt 0.218750 0.453125
vt 0.218750 0.515625
vt 0.156250 0.515625
vt 0.531250 0.359375
vt 0.546875 0.359375
vt 0.546875 0.421875
vt 0.531250 0.421875
vt 0.234375 0.453125
vt 0.296875 0.453125
vt 0.296875 0.515625
vt 0.234375 0.515625
vt 0.578125 0.421875
vt 0.562500 0.421875
vt 0.562500 0.359375
vt 0.578125 0.359375
vt 0.015625 0.343750
vt 0.000000 0.343750
vt 0.000000 0.406250
vt 0.015625 0.406250
vt 0.453125 0.765625
vt 0.656250 0.765625
vt 0.656250 0.781250
vt 0.453125 0.781250
vt 0.078125 0.343750
vt 0.093750 0.343750
vt 0.093750 0.359375
vt 0.078125 0.359375
vt 0.312500 0.500000
vt 0.515625 0.500000
vt 0.515625 0.515625
vt 0.312500 0.515625
vt 0.312500 0.343750
vt 0.328125 0.343750
vt 0.328125 0.359375
vt 0.312500 0.359375
vt 0.703125 0.750000
vt 0.500000 0.750000
vt 0.500000 0.734375
vt 0.703125 0.734375
vt 0.703125 0.703125
vt 0.500000 0.703125
vt 0.500000 0.718750
vt 0.703125 0.718750
vt 0.125000 0.390625
vt 0.156250 0.390625
vt 0.156250 0.437500
vt 0.125000 0.437500
vt 0.312500 0.437500
vt 0.359375 0.437500
vt 0.359375 0.484375
vt 0.312500 0.484375
vt 0.171875 0.390625
vt 0.203125 0.390625
vt 0.203125 0.437500
vt 0.171875 0.437500
vt 0.375000 0.437500
vt 0.421875 0.437500
vt 0.421875 0.484375
vt 0.375000 0.484375
vt 0.250000 0.437500
vt 0.218750 0.437500
vt 0.218750 0.390625
vt 0.250000 0.390625
vt 0.296875 0.390625
vt 0.265625 0.390625
vt 0.265625 0.437500
vt 0.296875 0.437500
vt 0.640625 0.476562
vt 0.648438 0.476562
vt 0.648438 0.500000
vt 0.640625 0.500000
vt 0.250000 0.351562
vt 0.265625 0.351562
vt 0.265625 0.375000
vt 0.250000 0.375000
vt 0.625000 0.335938
vt 0.632812 0.335938
vt 0.632812 0.359375
vt 0.625000 0.359375
vt 0.281250 0.351562
vt 0.296875 0.351562
vt 0.296875 0.375000
vt 0.281250 0.375000
vt 0.648438 0.453125
vt 0.640625 0.453125
vt 0.640625 0.437500
vt 0.648438 0.437500
vt 0.664062 0.593750
vt 0.656250 0.593750
vt 0.656250 0.609375
vt 0.664062 0.609375
vt 0.343750 0.328125
vt 0.351562 0.328125
vt 0.351562 0.359375
vt 0.343750 0.359375
vt 0.187500 0.343750
vt 0.203125 0.343750
vt 0.203125 0.375000
vt 0.187500 0.375000
vt 0.640625 0.625000
vt 0.648438 0.625000
vt 0.648438 0.656250
vt 0.640625 0.656250
vt 0.218750 0.343750
vt 0.234375 0.343750
vt 0.234375 0.375000
vt 0.218750 0.375000
vt 0.414062 0.343750
vt 0.406250 0.343750
vt 0.406250 0.328125
vt 0.414062 0.328125
vt 0.445312 0.328125
vt 0.437500 0.328125
vt 0.437500 0.343750
vt 0.445312 0.343750
vt 0.250000 0.320312
vt 0.257812 0.320312
vt 0.257812 0.328125
vt 0.250000 0.328125
vt 0.468750 0.335938
vt 0.484375 0.335938
vt 0.484375 0.343750
vt 0.468750 0.343750
vt 0.281250 0.320312
vt 0.289062 0.320312
vt 0.289062 0.328125
vt 0.281250 0.328125
vt 0.500000 0.335938
vt 0.515625 0.335938
vt 0.515625 0.343750
vt 0.500000 0.343750
vt 0.539062 0.343750
vt 0.531250 0.343750
vt 0.531250 0.328125
vt 0.539062 0.328125
vt 0.570312 0.328125
vt 0.562500 0.328125
vt 0.562500 0.343750
vt 0.570312 0.343750
vt 0.312500 0.320312
vt 0.320312 0.320312
vt 0.320312 0.328125
vt 0.312500 0.328125
vt 0.656250 0.351562
vt 0.671875 0.351562
vt 0.671875 0.359375
vt 0.656250 0.359375
vt 0.671875 0.679688
vt 0.679688 0.679688
vt 0.679688 0.687500
vt 0.671875 0.687500
vt 0.000000 0.320312
vt 0.015625 0.320312
vt 0.015625 0.328125
vt 0.000000 0.328125
vt 0.039062 0.328125
vt 0.031250 0.328125
vt 0.031250 0.312500
vt 0.039062 0.312500
vt 0.070312 0.312500
vt 0.062500 0.312500
vt 0.062500 0.328125
vt 0.070312 0.328125
vt 0.671875 0.648438
vt 0.679688 0.648438
vt 0.679688 0.656250
vt 0.671875 0.656250
vt 0.375000 0.320312
vt 0.382812 0.320312
vt 0.382812 0.328125
vt 0.375000 0.328125
vt 0.671875 0.570312
vt 0.679688 0.570312
vt 0.679688 0.578125
vt 0.671875 0.578125
vt 0.671875 0.539062
vt 0.679688 0.539062
vt 0.679688 0.546875
vt 0.671875 0.546875
vt 0.679688 0.515625
vt 0.671875 0.515625
vt 0.671875 0.507812
vt 0.679688 0.507812
vt 0.679688 0.476562
vt 0.671875 0.476562
vt 0.671875 0.484375
vt 0.679688 0.484375
vt 0.578125 0.593750
vt 0.593750 0.593750
vt 0.593750 0.656250
vt 0.578125 0.656250
vt 0.000000 0.484375
vt 0.062500 0.484375
vt 0.062500 0.546875
vt 0.000000 0.546875
vt 0.406250 0.359375
vt 0.421875 0.359375
vt 0.421875 0.421875
vt 0.406250 0.421875
vt 0.078125 0.484375
vt 0.140625 0.484375
vt 0.140625 0.546875
vt 0.078125 0.546875
vt 0.453125 0.421875
vt 0.437500 0.421875
vt 0.437500 0.359375
vt 0.453125 0.359375
vt 0.484375 0.359375
vt 0.468750 0.359375
vt 0.468750 0.421875
vt 0.484375 0.421875
vt 0.453125 0.890625
vt 0.742188 0.890625
vt 0.742188 0.906250
vt 0.453125 0.906250
vt 0.375000 0.343750
vt 0.390625 0.343750
vt 0.390625 0.359375
vt 0.375000 0.359375
vt 0.453125 0.859375
vt 0.742188 0.859375
vt 0.742188 0.875000
vt 0.453125 0.875000
vt 0.640625 0.515625
vt 0.656250 0.515625
vt 0.656250 0.531250
vt 0.640625 0.531250
vt 0.742188 0.843750
vt 0.453125 0.843750
vt 0.453125 0.828125
vt 0.742188 0.828125
vt 0.742188 0.796875
vt 0.453125 0.796875
vt 0.453125 0.812500
vt 0.742188 0.812500
vt 0.609375 0.609375
vt 0.625000 0.609375
vt 0.625000 0.656250
vt 0.609375 0.656250
vt 0.593750 0.343750
vt 0.609375 0.343750
vt 0.609375 0.390625
vt 0.593750 0.390625
vt 0.125000 0.328125
vt 0.140625 0.328125
vt 0.140625 0.375000
vt 0.125000 0.375000
vt 0.156250 0.328125
vt 0.171875 0.328125
vt 0.171875 0.375000
vt 0.156250 0.375000
vt 0.140625 0.468750
vt 0.125000 0.468750
vt 0.125000 0.453125
vt 0.140625 0.453125
vt 0.546875 0.500000
vt 0.531250 0.500000
vt 0.531250 0.515625
vt 0.546875 0.515625
vt 0.343750 0.703125
vt 0.484375 0.703125
vt 0.484375 0.750000
vt 0.343750 0.750000
vt 0.437500 0.437500
vt 0.484375 0.437500
vt 0.484375 0.484375
vt 0.437500 0.484375
vt 0.343750 0.640625
vt 0.484375 0.640625
vt 0.484375 0.687500
vt 0.343750 0.687500
vt 0.500000 0.437500
vt 0.546875 0.437500
vt 0.546875 0.484375
vt 0.500000 0.484375
vt 0.484375 0.625000
vt 0.343750 0.625000
vt 0.343750 0.578125
vt 0.484375 0.578125
vt 0.140625 0.562500
vt 0.000000 0.562500
vt 0.000000 0.609375
vt 0.140625 0.609375
vt 0.000000 0.625000
vt 0.156250 0.625000
vt 0.156250 0.671875
vt 0.000000 0.671875
vt 0.500000 0.640625
vt 0.554688 0.640625
vt 0.554688 0.687500
vt 0.500000 0.687500
vt 0.171875 0.625000
vt 0.328125 0.625000
vt 0.328125 0.671875
vt 0.171875 0.671875
vt 0.500000 0.578125
vt 0.554688 0.578125
vt 0.554688 0.625000
vt 0.500000 0.625000
vt 0.156250 0.750000
vt 0.000000 0.750000
vt 0.000000 0.695312
vt 0.156250 0.695312
vt 0.328125 0.695312
vt 0.171875 0.695312
vt 0.171875 0.750000
vt 0.328125 0.750000
vt 0.156250 0.531250
vt 0.367188 0.531250
vt 0.367188 0.562500
vt 0.156250 0.562500
vt 0.031250 0.375000
vt 0.062500 0.375000
vt 0.062500 0.406250
vt 0.031250 0.406250
vt 0.390625 0.531250
vt 0.601562 0.531250
vt 0.601562 0.562500
vt 0.390625 0.562500
vt 0.078125 0.375000
vt 0.109375 0.375000
vt 0.109375 0.406250
vt 0.078125 0.406250
vt 0.664062 1.000000
vt 0.453125 1.000000
vt 0.453125 0.968750
vt 0.664062 0.968750
vt 0.664062 0.921875
vt 0.453125 0.921875
vt 0.453125 0.953125
vt 0.664062 0.953125
vt 0.671875 0.445312
vt 0.679688 0.445312
vt 0.679688 0.453125
vt 0.671875 0.453125
vt 0.093750 0.320312
vt 0.109375 0.320312
vt 0.109375 0.328125
vt 0.093750 0.328125
vt 0.671875 0.414062
vt 0.679688 0.414062
vt 0.679688 0.421875
vt 0.671875 0.421875
vt 0.187500 0.320312
vt 0.203125 0.320312
vt 0.203125 0.328125
vt 0.187500 0.328125
vt 0.226562 0.328125
vt 0.218750 0.328125
vt 0.218750 0.312500
vt 0.226562 0.312500
vt 0.679688 0.765625
vt 0.671875 0.765625
vt 0.671875 0.781250
vt 0.679688 0.781250
vt 0.312500 0.406250
vt 0.390625 0.406250
vt 0.390625 0.421875
vt 0.312500 0.421875
vt 0.609375 0.578125
vt 0.632812 0.578125
vt 0.632812 0.593750
vt 0.609375 0.593750
vt 0.578125 0.671875
vt 0.656250 0.671875
vt 0.656250 0.687500
vt 0.578125 0.687500
vt 0.625000 0.546875
vt 0.648438 0.546875
vt 0.648438 0.562500
vt 0.625000 0.562500
vt 0.234375 0.609375
vt 0.156250 0.609375
vt 0.156250 0.585938
vt 0.234375 0.585938
vt 0.328125 0.585938
vt 0.250000 0.585938
vt 0.250000 0.609375
vt 0.328125 0.609375
vt 0.593750 0.406250
vt 0.656250 0.406250
vt 0.656250 0.421875
vt 0.593750 0.421875
vt 0.625000 0.375000
vt 0.648438 0.375000
vt 0.648438 0.390625
vt 0.625000 0.390625
vt 0.312500 0.375000
vt 0.375000 0.375000
vt 0.375000 0.390625
vt 0.312500 0.390625
vt 0.031250 0.343750
vt 0.054688 0.343750
vt 0.054688 0.359375
vt 0.031250 0.359375
vt 0.625000 0.515625
vt 0.562500 0.515625
vt 0.562500 0.492188
vt 0.625000 0.492188
vt 0.625000 0.445312
vt 0.562500 0.445312
vt 0.562500 0.468750
vt 0.625000 0.468750
s 0
usemtl m_b65440b2-9b10-34e9-d7f3-cd781c6fc851
f 4/1/1 7/2/1 5/3/1 2/4/1
f 3/5/2 4/6/2 2/7/2 1/8/2
f 8/9/3 3/10/3 1/11/3 6/12/3
f 7/13/4 8/14/4 6/15/4 5/16/4
f 6/17/5 1/18/5 2/19/5 5/20/5
f 7/21/6 4/22/6 3/23/6 8/24/6
f 12/25/1 15/26/1 13/27/1 10/28/1
f 11/29/2 12/30/2 10/31/2 9/32/2
f 16/33/3 11/34/3 9/35/3 14/36/3
f 15/37/4 16/38/4 14/39/4 13/40/4
f 14/41/5 9/42/5 10/43/5 13/44/5
f 15/45/6 12/46/6 11/47/6 16/48/6
f 20/49/1 23/50/1 21/51/1 18/52/1
f 19/53/2 20/54/2 18/55/2 17/56/2
f 24/57/3 19/58/3 17/59/3 22/60/3
f 23/61/4 24/62/4 22/63/4 21/64/4
f 22/65/5 17/66/5 18/67/5 21/68/5
f 23/69/6 20/70/6 19/71/6 24/72/6
f 28/73/1 31/74/1 29/75/1 26/76/1
f 27/77/2 28/78/2 26/79/2 25/80/2
f 32/81/3 27/82/3 25/83/3 30/84/3
f 31/85/4 32/86/4 30/87/4 29/88/4
f 30/89/5 25/90/5 26/91/5 29/92/5
f 31/93/6 28/94/6 27/95/6 32/96/6
f 36/97/7 39/98/7 37/99/7 34/100/7
f 35/101/2 36/102/2 34/103/2 33/104/2
f 40/105/8 35/106/8 33/107/8 38/108/8
f 39/109/4 40/110/4 38/111/4 37/112/4
f 38/113/9 33/114/9 34/115/9 37/116/9
f 39/117/10 36/118/10 35/119/10 40/120/10
f 44/121/7 47/122/7 45/123/7 42/124/7
f 43/125/2 44/126/2 42/127/2 41/128/2
f 48/129/8 43/130/8 41/131/8 46/132/8
f 47/133/4 48/134/4 46/135/4 45/136/4
f 46/137/9 41/138/9 42/139/9 45/140/9
f 47/141/10 44/142/10 43/143/10 48/144/10
f 52/145/5 55/146/5 53/147/5 50/148/5
f 51/149/2 52/150/2 50/151/2 49/152/2
f 56/153/6 51/154/6 49/155/6 54/156/6
f 55/157/4 56/158/4 54/159/4 53/160/4
f 54/161/3 49/162/3 50/163/3 53/164/3
f 55/165/1 52/166/1 51/167/1 56/168/1
f 60/169/5 63/170/5 61/171/5 58/172/5
f 59/173/2 60/174/2 58/175/2 57/176/2
f 64/177/6 59/178/6 57/179/6 62/180/6
f 63/181/4 64/182/4 62/183/4 61/184/4
f 62/185/3 57/186/3 58/187/3 61/188/3
f 63/189/1 60/190/1 59/191/1 64/192/1
f 68/193/5 71/194/5 69/195/5 66/196/5
f 67/197/2 68/198/2 66/199/2 65/200/2
f 72/201/6 67/202/6 65/203/6 70/204/6
f 71/205/4 72/206/4 70/207/4 69/208/4
f 70/209/3 65/210/3 66/211/3 69/212/3
f 71/213/1 68/214/1 67/215/1 72/216/1
f 76/217/5 79/218/5 77/219/5 74/220/5
f 75/221/2 76/222/2 74/223/2 73/224/2
f 80/225/6 75/226/6 73/227/6 78/228/6
f 79/229/4 80/230/4 78/231/4 77/232/4
f 78/233/3 73/234/3 74/235/3 77/236/3
f 79/237/1 76/238/1 75/239/1 80/240/1
f 84/241/11 87/242/11 85/243/11 82/244/11
f 83/245/2 84/246/2 82/247/2 81/248/2
f 88/249/12 83/250/12 81/251/12 86/252/12
f 87/253/4 88/254/4 86/255/4 85/256/4
f 86/257/13 81/258/13 82/259/13 85/260/13
f 87/261/14 84/262/14 83/263/14 88/264/14
f 92/265/5 95/266/5 93/267/5 90/268/5
f 91/269/2 92/270/2 90/271/2 89/272/2
f 96/273/6 91/274/6 89/275/6 94/276/6
f 95/277/4 96/278/4 94/279/4 93/280/4
f 94/281/3 89/282/3 90/283/3 93/284/3
f 95/285/1 92/286/1 91/287/1 96/288/1
f 100/289/1 103/290/1 101/291/1 98/292/1
f 99/293/2 100/294/2 98/295/2 97/296/2
f 104/297/3 99/298/3 97/299/3 102/300/3
f 103/301/4 104/302/4 102/303/4 101/304/4
f 102/305/5 97/306/5 98/307/5 101/308/5
f 103/309/6 100/310/6 99/311/6 104/312/6
f 108/313/1 111/314/1 109/315/1 106/316/1
f 107/317/2 108/318/2 106/319/2 105/320/2
f 112/321/3 107/322/3 105/323/3 110/324/3
f 111/325/4 112/326/4 110/327/4 109/328/4
f 110/329/5 105/330/5 106/331/5 109/332/5
f 111/333/6 108/334/6 107/335/6 112/336/6
f 116/337/15 119/338/15 117/339/15 114/340/15
f 115/341/2 116/342/2 114/343/2 113/344/2
f 120/345/16 115/346/16 113/347/16 118/348/16
f 119/349/4 120/350/4 118/351/4 117/352/4
f 118/353/17 113/354/17 114/355/17 117/356/17
f 119/357/18 116/358/18 115/359/18 120/360/18
f 124/361/5 127/362/5 125/363/5 122/364/5
f 123/365/2 124/366/2 122/367/2 121/368/2
f 128/369/6 123/370/6 121/371/6 126/372/6
f 127/373/4 128/374/4 126/375/4 125/376/4
f 126/377/3 121/378/3 122/379/3 125/380/3
f 127/381/1 124/382/1 123/383/1 128/384/1
f 132/385/7 135/386/7 133/387/7 130/388/7
f 131/389/2 132/390/2 130/391/2 129/392/2
f 136/393/8 131/394/8 129/395/8 134/396/8
f 135/397/4 136/398/4 134/399/4 133/400/4
f 134/401/9 129/402/9 130/403/9 133/404/9
f 135/405/10 132/406/10 131/407/10 136/408/10
f 140/409/7 143/410/7 141/411/7 138/412/7
f 139/413/2 140/414/2 138/415/2 137/416/2
f 144/417/8 139/418/8 137/419/8 142/420/8
f 143/421/4 144/422/4 142/423/4 141/424/4
f 142/425/9 137/426/9 138/427/9 141/428/9
f 143/429/10 140/430/10 139/431/10 144/432/10
usemtl m_b65440b2-9b10-34e9-d7f3-cd781c6fc851.001
f 148/241/12 146/244/12 149/243/12 151/242/12
f 147/245/4 145/248/4 146/247/4 148/246/4
f 152/249/11 150/252/11 145/251/11 147/250/11
f 151/253/2 149/256/2 150/255/2 152/254/2
f 150/257/14 149/260/14 146/259/14 145/258/14
f 151/261/13 152/264/13 147/263/13 148/262/13
f 156/265/6 154/268/6 157/267/6 159/266/6
f 155/269/4 153/272/4 154/271/4 156/270/4
f 160/273/5 158/276/5 153/275/5 155/274/5
f 159/277/2 157/280/2 158/279/2 160/278/2
f 158/281/1 157/284/1 154/283/1 153/282/1
f 159/285/3 160/288/3 155/287/3 156/286/3
f 164/289/3 162/292/3 165/291/3 167/290/3
f 163/293/4 161/296/4 162/295/4 164/294/4
f 168/297/1 166/300/1 161/299/1 163/298/1
f 167/301/2 165/304/2 166/303/2 168/302/2
f 166/305/6 165/308/6 162/307/6 161/306/6
f 167/309/5 168/312/5 163/311/5 164/310/5
f 172/313/3 170/316/3 173/315/3 175/314/3
f 171/317/4 169/320/4 170/319/4 172/318/4
f 176/321/1 174/324/1 169/323/1 171/322/1
f 175/325/2 173/328/2 174/327/2 176/326/2
f 174/329/6 173/332/6 170/331/6 169/330/6
f 175/333/5 176/336/5 171/335/5 172/334/5
f 180/337/16 178/340/16 181/339/16 183/338/16
f 179/341/4 177/344/4 178/343/4 180/342/4
f 184/345/15 182/348/15 177/347/15 179/346/15
f 183/349/2 181/352/2 182/351/2 184/350/2
f 182/353/18 181/356/18 178/355/18 177/354/18
f 183/357/17 184/360/17 179/359/17 180/358/17
f 188/361/6 186/364/6 189/363/6 191/362/6
f 187/365/4 185/368/4 186/367/4 188/366/4
f 192/369/5 190/372/5 185/371/5 187/370/5
f 191/373/2 189/376/2 190/375/2 192/374/2
f 190/377/1 189/380/1 186/379/1 185/378/1
f 191/381/3 192/384/3 187/383/3 188/382/3
f 196/385/8 194/388/8 197/387/8 199/386/8
f 195/389/4 193/392/4 194/391/4 196/390/4
f 200/393/7 198/396/7 193/395/7 195/394/7
f 199/397/2 197/400/2 198/399/2 200/398/2
f 198/401/10 197/404/10 194/403/10 193/402/10
f 199/405/9 200/408/9 195/407/9 196/406/9
f 204/409/8 202/412/8 205/411/8 207/410/8
f 203/413/4 201/416/4 202/415/4 204/414/4
f 208/417/7 206/420/7 201/419/7 203/418/7
f 207/421/2 205/424/2 206/423/2 208/422/2
f 206/425/10 205/428/10 202/427/10 201/426/10
f 207/429/9 208/432/9 203/431/9 204/430/9
