# Blender 4.1.1
# www.blender.org
mtllib javelin.mtl
o maintube
v 0.266125 0.484227 0.038840
v 0.078625 0.484227 0.038840
v 0.266125 0.109227 0.038840
v 0.078625 0.109227 0.038840
v 0.078625 0.484227 0.288840
v 0.266125 0.484227 0.288840
v 0.078625 0.109227 0.288840
v 0.266125 0.109227 0.288840
v 0.203625 0.359227 0.288840
v 0.078625 0.359227 0.288840
v 0.203625 0.234227 0.288840
v 0.078625 0.234227 0.288840
v 0.078625 0.359227 0.413840
v 0.203625 0.359227 0.413840
v 0.078625 0.234227 0.413840
v 0.203625 0.234227 0.413840
v 0.453625 0.421727 0.038840
v 0.266125 0.421727 0.038840
v 0.453625 0.234227 0.038840
v 0.266125 0.234227 0.038840
v 0.266125 0.421727 0.288840
v 0.453625 0.421727 0.288840
v 0.266125 0.234227 0.288840
v 0.453625 0.234227 0.288840
v 0.453625 0.484227 -0.023660
v 0.266125 0.484227 -0.023660
v 0.453625 0.421727 -0.023660
v 0.266125 0.421727 -0.023660
v 0.266125 0.484227 0.163840
v 0.453625 0.484227 0.163840
v 0.266125 0.421727 0.163840
v 0.453625 0.421727 0.163840
v 0.078625 0.421727 0.038840
v -0.233875 0.421727 0.038840
v 0.078625 0.234227 0.038840
v -0.233875 0.234227 0.038840
v -0.233875 0.421727 0.288840
v 0.078625 0.421727 0.288840
v -0.233875 0.234227 0.288840
v 0.078625 0.234227 0.288840
v -0.046375 0.301550 0.189596
v -0.108875 0.301550 0.189596
v -0.046375 0.012837 0.070007
v -0.108875 0.012837 0.070007
v -0.108875 0.277632 0.247338
v -0.046375 0.277632 0.247338
v -0.108875 -0.011080 0.127749
v -0.046375 -0.011080 0.127749
v 0.391125 0.301550 0.189595
v 0.328625 0.301550 0.189595
v 0.391125 0.012837 0.070007
v 0.328625 0.012837 0.070007
v 0.328625 0.277632 0.247338
v 0.391125 0.277632 0.247338
v 0.328625 -0.011080 0.127749
v 0.391125 -0.011080 0.127749
v 0.013000 0.134884 -0.524561
v -0.112000 0.134884 -0.524561
v 0.013000 0.076154 -0.503185
v -0.112000 0.076154 -0.503185
v -0.112000 0.305894 -0.054715
v 0.013000 0.305894 -0.054715
v -0.112000 0.247164 -0.033339
v 0.013000 0.247164 -0.033339
v 0.130402 0.038583 -1.154622
v -0.046375 0.204699 -1.215083
v -0.046375 -0.127532 -1.094161
v -0.223151 0.038583 -1.154622
v -0.046375 0.845987 0.546841
v 0.130402 0.679871 0.607302
v -0.223151 0.679871 0.607302
v -0.046375 0.513755 0.667763
v -0.046375 -0.189214 -1.005199
v 0.218790 0.059960 -1.095891
v -0.311540 0.059960 -1.095891
v -0.046375 0.309133 -1.186583
v 0.218790 0.102712 -0.978429
v -0.046375 -0.146462 -0.887738
v -0.046375 0.351886 -1.069121
v -0.311540 0.102712 -0.978429
v 0.218790 0.615742 0.431110
v -0.046375 0.864916 0.340418
v -0.046375 0.366569 0.521801
v -0.311540 0.615742 0.431110
v -0.046375 0.907668 0.457879
v 0.218791 0.658495 0.548571
v -0.311540 0.658495 0.548571
v -0.046375 0.409321 0.639263
v -0.174500 0.524839 -0.001382
v -0.237000 0.524839 -0.001382
v -0.174500 0.407378 0.041370
v -0.237000 0.407378 0.041370
v -0.237000 0.653097 0.351003
v -0.174500 0.653097 0.351003
v -0.237000 0.535635 0.393755
v -0.174500 0.535635 0.393755
v -0.134763 0.403891 -0.931748
v -0.311540 0.237775 -0.871287
v -0.046375 0.320833 -0.901518
v -0.223151 0.154717 -0.841056
v -0.311540 0.237775 -0.871287
v -0.134763 0.403891 -0.931748
v -0.223151 0.154717 -0.841056
v -0.046375 0.320833 -0.901518
v 0.266125 0.484227 -0.086160
v 0.141125 0.484227 -0.086160
v 0.266125 0.359227 -0.086160
v 0.141125 0.359227 -0.086160
v 0.141125 0.484227 0.038840
v 0.266125 0.484227 0.038840
v 0.141125 0.359227 0.038840
v 0.266125 0.359227 0.038840
v 0.203625 0.234227 0.413840
v 0.078625 0.234227 0.413840
v 0.203625 0.180101 0.382590
v 0.078625 0.180101 0.382590
v 0.078625 0.171727 0.522093
v 0.203625 0.171727 0.522093
v 0.078625 0.117600 0.490843
v 0.203625 0.117600 0.490843
v -0.134763 0.860274 0.322154
v -0.311540 0.694158 0.382615
v -0.046375 0.777216 0.352385
v -0.223151 0.611100 0.412846
v -0.311540 0.694158 0.382615
v -0.134763 0.860274 0.322154
v -0.223151 0.611100 0.412846
v -0.046375 0.777216 0.352385
v -0.223151 0.252346 -0.567314
v -0.223151 0.252346 -0.567314
v -0.263734 0.080330 -0.504705
v -0.263734 0.080330 -0.504705
v -0.223151 0.401980 -0.156198
v -0.223151 0.401980 -0.156198
v -0.263734 0.229964 -0.093590
v -0.263734 0.229964 -0.093590
v -0.134763 0.403891 -0.931748
v -0.311540 0.237775 -0.871287
v -0.046375 0.320833 -0.901518
v -0.223151 0.154717 -0.841056
v -0.311540 0.237775 -0.871287
v -0.134763 0.403891 -0.931748
v -0.223151 0.154717 -0.841056
v -0.046375 0.320833 -0.901518
v 0.266125 0.484227 -0.086160
v 0.141125 0.484227 -0.086160
v 0.266125 0.359227 -0.086160
v 0.141125 0.359227 -0.086160
v 0.141125 0.484227 0.038840
v 0.266125 0.484227 0.038840
v 0.141125 0.359227 0.038840
v 0.266125 0.359227 0.038840
v 0.203625 0.234227 0.413840
v 0.078625 0.234227 0.413840
v 0.203625 0.180101 0.382590
v 0.078625 0.180101 0.382590
v 0.078625 0.171727 0.522093
v 0.203625 0.171727 0.522093
v 0.078625 0.117600 0.490843
v 0.203625 0.117600 0.490843
v -0.134763 0.860274 0.322154
v -0.311540 0.694158 0.382615
v -0.046375 0.777216 0.352385
v -0.223151 0.611100 0.412846
v -0.311540 0.694158 0.382615
v -0.134763 0.860274 0.322154
v -0.223151 0.611100 0.412846
v -0.046375 0.777216 0.352385
v -0.223151 0.252346 -0.567314
v -0.223151 0.252346 -0.567314
v -0.263734 0.080330 -0.504705
v -0.263734 0.080330 -0.504705
v -0.223151 0.401980 -0.156198
v -0.223151 0.401980 -0.156198
v -0.263734 0.229964 -0.093590
v -0.263734 0.229964 -0.093590
vn -1.0000 -0.0000 -0.0000
vn -0.0000 -0.0000 -1.0000
vn 1.0000 -0.0000 -0.0000
vn -0.0000 -0.0000 1.0000
vn -0.0000 1.0000 -0.0000
vn -0.0000 -1.0000 -0.0000
vn -0.0000 0.3827 -0.9239
vn -0.0000 -0.3827 0.9239
vn -0.0000 0.9239 0.3827
vn -0.0000 -0.9239 -0.3827
vn -0.0000 -0.3420 -0.9397
vn -0.0000 0.3420 0.9397
vn -0.0000 0.9397 -0.3420
vn -0.0000 -0.9397 0.3420
vn -0.7071 0.6645 -0.2418
vn 0.7071 -0.6645 0.2418
vn 0.7071 0.6645 -0.2418
vn -0.7071 -0.6645 0.2418
vn -0.0000 -0.5000 0.8660
vn -0.0000 0.5000 -0.8660
vn -0.0000 -0.8660 -0.5000
vn -0.0000 0.8660 0.5000
vn 0.9763 -0.2034 0.0740
vn -0.9763 0.2034 -0.0740
vn -0.7071 -0.6644 0.2419
vn -0.7071 -0.6645 0.2419
vn 0.7071 0.6645 -0.2419
vn -0.7071 0.6645 -0.2419
vn -0.7070 0.6645 -0.2419
vn 0.7071 -0.6645 0.2419
vn 0.7070 -0.6645 0.2419
vn -0.0000 0.3419 0.9397
vn 0.2164 0.9174 -0.3340
vn -0.2164 -0.9174 0.3339
vn -0.2164 -0.9174 0.3340
vt 0.000000 0.484375
vt 0.062500 0.484375
vt 0.062500 0.578125
vt 0.000000 0.578125
vt 0.484375 0.906250
vt 0.531250 0.906250
vt 0.531250 1.000000
vt 0.484375 1.000000
vt 0.078125 0.484375
vt 0.140625 0.484375
vt 0.140625 0.578125
vt 0.078125 0.578125
vt 0.484375 0.796875
vt 0.531250 0.796875
vt 0.531250 0.890625
vt 0.484375 0.890625
vt 0.437500 0.484375
vt 0.375000 0.484375
vt 0.375000 0.437500
vt 0.437500 0.437500
vt 0.515625 0.437500
vt 0.453125 0.437500
vt 0.453125 0.484375
vt 0.515625 0.484375
vt 0.656250 0.609375
vt 0.687500 0.609375
vt 0.687500 0.640625
vt 0.656250 0.640625
vt 0.656250 0.562500
vt 0.687500 0.562500
vt 0.687500 0.593750
vt 0.656250 0.593750
vt 0.656250 0.343750
vt 0.687500 0.343750
vt 0.687500 0.375000
vt 0.656250 0.375000
vt 0.156250 0.296875
vt 0.187500 0.296875
vt 0.187500 0.328125
vt 0.156250 0.328125
vt 0.703125 0.765625
vt 0.671875 0.765625
vt 0.671875 0.734375
vt 0.703125 0.734375
vt 0.703125 0.406250
vt 0.671875 0.406250
vt 0.671875 0.437500
vt 0.703125 0.437500
vt 0.000000 0.421875
vt 0.062500 0.421875
vt 0.062500 0.468750
vt 0.000000 0.468750
vt 0.578125 0.500000
vt 0.625000 0.500000
vt 0.625000 0.546875
vt 0.578125 0.546875
vt 0.078125 0.421875
vt 0.140625 0.421875
vt 0.140625 0.468750
vt 0.078125 0.468750
vt 0.000000 0.359375
vt 0.046875 0.359375
vt 0.046875 0.406250
vt 0.000000 0.406250
vt 0.296875 0.468750
vt 0.234375 0.468750
vt 0.234375 0.421875
vt 0.296875 0.421875
vt 0.593750 0.437500
vt 0.531250 0.437500
vt 0.531250 0.484375
vt 0.593750 0.484375
vt 0.687500 0.859375
vt 0.734375 0.859375
vt 0.734375 0.875000
vt 0.687500 0.875000
vt 0.687500 0.703125
vt 0.734375 0.703125
vt 0.734375 0.718750
vt 0.687500 0.718750
vt 0.359375 0.296875
vt 0.406250 0.296875
vt 0.406250 0.312500
vt 0.359375 0.312500
vt 0.421875 0.296875
vt 0.468750 0.296875
vt 0.468750 0.312500
vt 0.421875 0.312500
vt 0.109375 0.406250
vt 0.062500 0.406250
vt 0.062500 0.359375
vt 0.109375 0.359375
vt 0.250000 0.359375
vt 0.203125 0.359375
vt 0.203125 0.406250
vt 0.250000 0.406250
vt 0.546875 0.953125
vt 0.609375 0.953125
vt 0.609375 1.000000
vt 0.546875 1.000000
vt 0.484375 0.500000
vt 0.562500 0.500000
vt 0.562500 0.546875
vt 0.484375 0.546875
vt 0.546875 0.890625
vt 0.609375 0.890625
vt 0.609375 0.937500
vt 0.546875 0.937500
vt 0.515625 0.656250
vt 0.593750 0.656250
vt 0.593750 0.703125
vt 0.515625 0.703125
vt 0.468750 0.578125
vt 0.406250 0.578125
vt 0.406250 0.500000
vt 0.468750 0.500000
vt 0.500000 0.609375
vt 0.437500 0.609375
vt 0.437500 0.687500
vt 0.500000 0.687500
vt 0.125000 0.328125
vt 0.140625 0.328125
vt 0.140625 0.406250
vt 0.125000 0.406250
vt 0.265625 0.328125
vt 0.281250 0.328125
vt 0.281250 0.406250
vt 0.265625 0.406250
vt 0.625000 0.890625
vt 0.640625 0.890625
vt 0.640625 0.968750
vt 0.625000 0.968750
vt 0.625000 0.562500
vt 0.640625 0.562500
vt 0.640625 0.640625
vt 0.625000 0.640625
vt 0.390625 0.515625
vt 0.375000 0.515625
vt 0.375000 0.500000
vt 0.390625 0.500000
vt 0.218750 0.421875
vt 0.203125 0.421875
vt 0.203125 0.437500
vt 0.218750 0.437500
vt 0.593750 0.296875
vt 0.609375 0.296875
vt 0.609375 0.375000
vt 0.593750 0.375000
vt 0.625000 0.296875
vt 0.640625 0.296875
vt 0.640625 0.375000
vt 0.625000 0.375000
vt 0.296875 0.281250
vt 0.312500 0.281250
vt 0.312500 0.359375
vt 0.296875 0.359375
vt 0.328125 0.281250
vt 0.343750 0.281250
vt 0.343750 0.359375
vt 0.328125 0.359375
vt 0.109375 0.343750
vt 0.093750 0.343750
vt 0.093750 0.328125
vt 0.109375 0.328125
vt 0.578125 0.296875
vt 0.562500 0.296875
vt 0.562500 0.312500
vt 0.578125 0.312500
vt 0.609375 0.812500
vt 0.734375 0.812500
vt 0.734375 0.828125
vt 0.609375 0.828125
vt 0.000000 0.281250
vt 0.031250 0.281250
vt 0.031250 0.296875
vt 0.000000 0.296875
vt 0.609375 0.781250
vt 0.734375 0.781250
vt 0.734375 0.796875
vt 0.609375 0.796875
vt 0.703125 0.953125
vt 0.734375 0.953125
vt 0.734375 0.968750
vt 0.703125 0.968750
vt 0.359375 0.515625
vt 0.234375 0.515625
vt 0.234375 0.484375
vt 0.359375 0.484375
vt 0.609375 0.562500
vt 0.484375 0.562500
vt 0.484375 0.593750
vt 0.609375 0.593750
vt 0.000000 0.937500
vt 0.468750 0.937500
vt 0.468750 1.000000
vt 0.000000 1.000000
vt 0.156250 0.453125
vt 0.218750 0.453125
vt 0.218750 0.515625
vt 0.156250 0.515625
vt 0.000000 0.859375
vt 0.468750 0.859375
vt 0.468750 0.921875
vt 0.000000 0.921875
vt 0.484375 0.718750
vt 0.546875 0.718750
vt 0.546875 0.781250
vt 0.484375 0.781250
vt 0.468750 0.843750
vt 0.000000 0.843750
vt 0.000000 0.781250
vt 0.468750 0.781250
vt 0.468750 0.703125
vt 0.000000 0.703125
vt 0.000000 0.765625
vt 0.468750 0.765625
vt 0.312500 0.375000
vt 0.343750 0.375000
vt 0.343750 0.468750
vt 0.312500 0.468750
vt 0.000000 0.593750
vt 0.093750 0.593750
vt 0.093750 0.687500
vt 0.000000 0.687500
vt 0.562500 0.781250
vt 0.593750 0.781250
vt 0.593750 0.875000
vt 0.562500 0.875000
vt 0.109375 0.593750
vt 0.203125 0.593750
vt 0.203125 0.687500
vt 0.109375 0.687500
vt 0.187500 0.437500
vt 0.156250 0.437500
vt 0.156250 0.343750
vt 0.187500 0.343750
vt 0.390625 0.328125
vt 0.359375 0.328125
vt 0.359375 0.421875
vt 0.390625 0.421875
vt 0.406250 0.328125
vt 0.437500 0.328125
vt 0.437500 0.421875
vt 0.406250 0.421875
vt 0.218750 0.593750
vt 0.312500 0.593750
vt 0.312500 0.687500
vt 0.218750 0.687500
vt 0.453125 0.328125
vt 0.484375 0.328125
vt 0.484375 0.421875
vt 0.453125 0.421875
vt 0.328125 0.593750
vt 0.421875 0.593750
vt 0.421875 0.687500
vt 0.328125 0.687500
vt 0.531250 0.421875
vt 0.500000 0.421875
vt 0.500000 0.328125
vt 0.531250 0.328125
vt 0.578125 0.328125
vt 0.546875 0.328125
vt 0.546875 0.421875
vt 0.578125 0.421875
vt 0.515625 0.609375
vt 0.609375 0.609375
vt 0.609375 0.640625
vt 0.515625 0.640625
vt 0.687500 0.453125
vt 0.703125 0.453125
vt 0.703125 0.484375
vt 0.687500 0.484375
vt 0.562500 0.734375
vt 0.656250 0.734375
vt 0.656250 0.765625
vt 0.562500 0.765625
vt 0.531250 0.281250
vt 0.546875 0.281250
vt 0.546875 0.312500
vt 0.531250 0.312500
vt 0.703125 0.671875
vt 0.609375 0.671875
vt 0.609375 0.656250
vt 0.703125 0.656250
vt 0.718750 0.984375
vt 0.625000 0.984375
vt 0.625000 1.000000
vt 0.718750 1.000000
vt 0.546875 0.796875
vt 0.546875 0.828125
vt 0.609375 0.687500
vt 0.609375 0.718750
vt 0.671875 0.718750
vt 0.671875 0.687500
vt 0.296875 0.375000
vt 0.296875 0.406250
vt 0.609375 0.453125
vt 0.609375 0.484375
vt 0.671875 0.484375
vt 0.671875 0.453125
vt 0.078125 0.296875
vt 0.078125 0.234375
vt 0.203125 0.234375
vt 0.203125 0.296875
vt 0.640625 0.515625
vt 0.640625 0.546875
vt 0.671875 0.546875
vt 0.671875 0.515625
vt 0.000000 0.312500
vt 0.000000 0.343750
vt 0.031250 0.343750
vt 0.031250 0.312500
vt 0.656250 0.937500
vt 0.656250 0.968750
vt 0.687500 0.968750
vt 0.687500 0.937500
vt 0.046875 0.312500
vt 0.046875 0.343750
vt 0.078125 0.343750
vt 0.078125 0.312500
vt 0.687500 0.921875
vt 0.687500 0.890625
vt 0.656250 0.890625
vt 0.656250 0.921875
vt 0.234375 0.312500
vt 0.234375 0.343750
vt 0.203125 0.343750
vt 0.203125 0.312500
vt 0.250000 0.296875
vt 0.250000 0.312500
vt 0.281250 0.312500
vt 0.281250 0.296875
vt 0.687500 0.531250
vt 0.687500 0.546875
vt 0.718750 0.546875
vt 0.718750 0.531250
vt 0.484375 0.296875
vt 0.484375 0.312500
vt 0.515625 0.312500
vt 0.515625 0.296875
vt 0.687500 0.500000
vt 0.687500 0.515625
vt 0.718750 0.515625
vt 0.718750 0.500000
vt 0.687500 0.328125
vt 0.687500 0.296875
vt 0.656250 0.296875
vt 0.656250 0.328125
vt 0.125000 0.281250
vt 0.125000 0.312500
vt 0.093750 0.312500
vt 0.093750 0.281250
vt 0.359375 0.437500
vt 0.359375 0.468750
vt 0.593750 0.390625
vt 0.593750 0.421875
vt 0.656250 0.421875
vt 0.656250 0.390625
vt 0.546875 0.843750
vt 0.546875 0.875000
vt 0.609375 0.843750
vt 0.609375 0.875000
vt 0.671875 0.875000
vt 0.671875 0.843750
vt 0.140625 0.312500
vt 0.140625 0.250000
vt 0.046875 0.234375
vt 0.046875 0.296875
vt 0.156250 0.531250
vt 0.156250 0.578125
vt 0.265625 0.578125
vt 0.265625 0.531250
vt 0.062500 0.250000
vt 0.062500 0.296875
vt 0.281250 0.531250
vt 0.281250 0.578125
vt 0.390625 0.578125
vt 0.390625 0.531250
vt 0.703125 0.890625
vt 0.703125 0.937500
vt 0.781250 0.390625
vt 0.671875 0.390625
vt 0.796875 0.843750
vt 0.687500 0.843750
s 0
usemtl m_b92eadb5-aa8e-b538-0154-2e9492fa2012
f 4/1/1 7/2/1 5/3/1 2/4/1
f 3/5/2 4/6/2 2/7/2 1/8/2
f 8/9/3 3/10/3 1/11/3 6/12/3
f 7/13/4 8/14/4 6/15/4 5/16/4
f 6/17/5 1/18/5 2/19/5 5/20/5
f 7/21/6 4/22/6 3/23/6 8/24/6
f 12/25/1 15/26/1 13/27/1 10/28/1
f 11/29/2 12/30/2 10/31/2 9/32/2
f 16/33/3 11/34/3 9/35/3 14/36/3
f 15/37/4 16/38/4 14/39/4 13/40/4
f 14/41/5 9/42/5 10/43/5 13/44/5
f 15/45/6 12/46/6 11/47/6 16/48/6
f 20/49/1 23/50/1 21/51/1 18/52/1
f 19/53/2 20/54/2 18/55/2 17/56/2
f 24/57/3 19/58/3 17/59/3 22/60/3
f 23/61/4 24/62/4 22/63/4 21/64/4
f 22/65/5 17/66/5 18/67/5 21/68/5
f 23/69/6 20/70/6 19/71/6 24/72/6
f 28/73/1 31/74/1 29/75/1 26/76/1
f 27/77/2 28/78/2 26/79/2 25/80/2
f 32/81/3 27/82/3 25/83/3 30/84/3
f 31/85/4 32/86/4 30/87/4 29/88/4
f 30/89/5 25/90/5 26/91/5 29/92/5
f 31/93/6 28/94/6 27/95/6 32/96/6
f 36/97/1 39/98/1 37/99/1 34/100/1
f 35/101/2 36/102/2 34/103/2 33/104/2
f 40/105/3 35/106/3 33/107/3 38/108/3
f 39/109/4 40/110/4 38/111/4 37/112/4
f 38/113/5 33/114/5 34/115/5 37/116/5
f 39/117/6 36/118/6 35/119/6 40/120/6
f 44/121/1 47/122/1 45/123/1 42/124/1
f 43/125/7 44/126/7 42/127/7 41/128/7
f 48/129/3 43/130/3 41/131/3 46/132/3
f 47/133/8 48/134/8 46/135/8 45/136/8
f 46/137/9 41/138/9 42/139/9 45/140/9
f 47/141/10 44/142/10 43/143/10 48/144/10
f 52/145/1 55/146/1 53/147/1 50/148/1
f 51/149/7 52/150/7 50/151/7 49/152/7
f 56/153/3 51/154/3 49/155/3 54/156/3
f 55/157/8 56/158/8 54/159/8 53/160/8
f 54/161/9 49/162/9 50/163/9 53/164/9
f 55/165/10 52/166/10 51/167/10 56/168/10
f 60/169/1 63/170/1 61/171/1 58/172/1
f 59/173/11 60/174/11 58/175/11 57/176/11
f 64/177/3 59/178/3 57/179/3 62/180/3
f 63/181/12 64/182/12 62/183/12 61/184/12
f 62/185/13 57/186/13 58/187/13 61/188/13
f 63/189/14 60/190/14 59/191/14 64/192/14
f 68/193/15 71/194/15 69/195/15 66/196/15
f 67/197/11 68/198/11 66/199/11 65/200/11
f 72/201/16 67/202/16 65/203/16 70/204/16
f 71/205/12 72/206/12 70/207/12 69/208/12
f 70/209/17 65/210/17 66/211/17 69/212/17
f 71/213/18 68/214/18 67/215/18 72/216/18
f 76/217/17 79/218/17 77/219/17 74/220/17
f 75/221/11 76/222/11 74/223/11 73/224/11
f 80/225/18 75/226/18 73/227/18 78/228/18
f 79/229/12 80/230/12 78/231/12 77/232/12
f 78/233/16 73/234/16 74/235/16 77/236/16
f 79/237/15 76/238/15 75/239/15 80/240/15
f 84/241/15 87/242/15 85/243/15 82/244/15
f 83/245/11 84/246/11 82/247/11 81/248/11
f 88/249/16 83/250/16 81/251/16 86/252/16
f 87/253/12 88/254/12 86/255/12 85/256/12
f 86/257/17 81/258/17 82/259/17 85/260/17
f 87/261/18 84/262/18 83/263/18 88/264/18
f 92/265/1 95/266/1 93/267/1 90/268/1
f 91/269/11 92/270/11 90/271/11 89/272/11
f 96/273/3 91/274/3 89/275/3 94/276/3
f 95/277/12 96/278/12 94/279/12 93/280/12
f 94/281/13 89/282/13 90/283/13 93/284/13
f 95/285/14 92/286/14 91/287/14 96/288/14
f 100/289/2 98/290/4 101/290/2 103/289/2
f 99/291/12 97/292/12 98/293/12 100/294/12
f 104/295/2 102/296/4 97/296/2 99/295/2
f 103/297/11 101/298/11 102/299/11 104/300/11
f 102/301/2 101/302/2 98/302/2 97/301/4
f 103/303/2 104/304/4 99/304/2 100/303/2
f 108/305/3 106/306/3 109/307/3 111/308/3
f 107/309/4 105/310/4 106/311/4 108/312/4
f 112/313/1 110/314/1 105/315/1 107/316/1
f 111/317/2 109/318/2 110/319/2 112/320/2
f 110/321/6 109/322/6 106/323/6 105/324/6
f 111/325/5 112/326/5 107/327/5 108/328/5
f 116/329/3 114/330/3 117/331/3 119/332/3
f 115/333/19 113/334/19 114/335/19 116/336/19
f 120/337/1 118/338/1 113/339/1 115/340/1
f 119/341/20 117/342/20 118/343/20 120/344/20
f 118/345/21 117/346/21 114/347/21 113/348/21
f 119/349/22 120/350/22 115/351/22 116/352/22
f 124/353/2 122/354/4 125/354/2 127/353/2
f 123/355/12 121/356/12 122/357/12 124/358/12
f 128/359/2 126/360/4 121/360/2 123/359/2
f 127/361/11 125/362/11 126/363/11 128/364/11
f 126/365/2 125/366/2 122/366/2 121/365/4
f 127/367/2 128/368/4 123/368/2 124/367/2
f 132/369/23 130/370/23 133/371/23 135/372/23
f 131/373/2 129/374/4 130/374/2 132/373/2
f 136/375/24 134/376/24 129/377/24 131/378/24
f 135/379/2 133/380/4 134/380/2 136/379/2
f 134/381/2 133/381/2 130/382/4 129/382/2
f 135/383/2 136/383/2 131/384/4 132/384/2
usemtl m_b92eadb5-aa8e-b538-0154-2e9492fa2012.001
f 140/289/4 143/289/25 141/290/4 138/290/26
f 139/291/11 140/294/11 138/293/11 137/292/11
f 144/295/2 139/295/27 137/296/2 142/296/27
f 143/297/12 144/300/12 142/299/12 141/298/12
f 142/301/2 137/301/28 138/302/2 141/302/29
f 143/303/4 140/303/30 139/304/4 144/304/31
f 148/305/1 151/308/1 149/307/1 146/306/1
f 147/309/2 148/312/2 146/311/2 145/310/2
f 152/313/3 147/316/3 145/315/3 150/314/3
f 151/317/4 152/320/4 150/319/4 149/318/4
f 150/321/5 145/324/5 146/323/5 149/322/5
f 151/325/6 148/328/6 147/327/6 152/326/6
f 156/329/1 159/332/1 157/331/1 154/330/1
f 155/333/20 156/336/20 154/335/20 153/334/20
f 160/337/3 155/340/3 153/339/3 158/338/3
f 159/341/19 160/344/19 158/343/19 157/342/19
f 158/345/22 153/348/22 154/347/22 157/346/22
f 159/349/21 156/352/21 155/351/21 160/350/21
f 164/353/4 167/353/25 165/354/4 162/354/26
f 163/355/11 164/358/11 162/357/11 161/356/11
f 168/359/2 163/359/27 161/360/2 166/360/27
f 167/361/12 168/364/12 166/363/12 165/362/12
f 166/365/2 161/365/28 162/366/2 165/366/29
f 167/367/4 164/367/30 163/368/4 168/368/31
f 172/369/24 175/372/24 173/371/24 170/370/24
f 171/373/2 172/373/11 170/374/2 169/374/11
f 176/375/23 171/378/23 169/377/23 174/376/23
f 175/379/4 176/379/32 174/380/4 173/380/32
f 174/381/33 169/382/2 170/382/33 173/381/2
f 175/383/34 172/384/4 171/384/35 176/383/4
