# Blender 4.1.1
# www.blender.org
mtllib track_n.mtl
o tracks
v 0.000000 0.120220 0.125000
v 0.000000 0.120220 -0.125000
v 0.000000 -0.004780 0.125000
v 0.000000 -0.004780 -0.125000
v 0.000000 0.120220 -0.125000
v 0.000000 0.120220 0.125000
v 0.000000 -0.004780 -0.125000
v 0.000000 -0.004780 0.125000
v 0.281250 -0.004780 0.125000
v 0.281250 -0.004780 -0.062500
v 0.281250 -0.067280 0.125000
v 0.281250 -0.067280 -0.062500
v -0.281250 -0.004780 -0.062500
v -0.281250 -0.004780 0.125000
v -0.281250 -0.067280 -0.062500
v -0.281250 -0.067280 0.125000
v 0.343750 -0.004780 -0.062500
v 0.343750 -0.004780 -0.125000
v 0.343750 -0.067280 -0.062500
v 0.343750 -0.067280 -0.125000
v -0.343750 -0.004780 -0.125000
v -0.343750 -0.004780 -0.062500
v -0.343750 -0.067280 -0.125000
v -0.343750 -0.067280 -0.062500
v 0.343750 -0.004780 -0.062500
v 0.343750 -0.004780 -0.125000
v 0.343750 -0.067280 -0.062500
v 0.343750 -0.067280 -0.125000
v -0.343750 -0.004780 -0.125000
v -0.343750 -0.004780 -0.062500
v -0.343750 -0.067280 -0.125000
v -0.343750 -0.067280 -0.062500
vn -0.0000 -0.0000 -1.0000
vn 1.0000 -0.0000 -0.0000
vn -0.0000 -0.0000 1.0000
vn -1.0000 -0.0000 -0.0000
vn -0.0000 -0.0000 -0.0000
vn -0.0000 1.0000 -0.0000
vn -0.0000 -1.0000 -0.0000
vt 0.437500 0.625000
vt 0.437500 0.687500
vt 0.000000 0.562500
vt 0.125000 0.562500
vt 0.125000 0.625000
vt 0.000000 0.625000
vt 0.375000 0.500000
vt 0.375000 0.562500
vt 0.156250 0.562500
vt 0.281250 0.562500
vt 0.281250 0.625000
vt 0.156250 0.625000
vt 0.406250 0.562500
vt 0.406250 0.437500
vt 0.437500 0.468750
vt 0.437500 0.593750
vt 0.312500 0.843750
vt 0.593750 0.843750
vt 0.593750 0.875000
vt 0.312500 0.875000
vt 0.375000 0.718750
vt 0.468750 0.718750
vt 0.468750 0.750000
vt 0.375000 0.750000
vt 0.312500 0.781250
vt 0.593750 0.781250
vt 0.593750 0.812500
vt 0.312500 0.812500
vt 0.312500 0.593750
vt 0.406250 0.593750
vt 0.406250 0.625000
vt 0.312500 0.625000
vt 0.281250 1.000000
vt 0.000000 1.000000
vt 0.000000 0.906250
vt 0.281250 0.906250
vt 0.281250 0.781250
vt 0.000000 0.781250
vt 0.000000 0.875000
vt 0.281250 0.875000
vt 0.000000 0.718750
vt 0.343750 0.718750
vt 0.343750 0.750000
vt 0.000000 0.750000
vt 0.375000 0.656250
vt 0.406250 0.656250
vt 0.406250 0.687500
vt 0.375000 0.687500
vt 0.000000 0.656250
vt 0.343750 0.656250
vt 0.343750 0.687500
vt 0.000000 0.687500
vt 0.312500 0.531250
vt 0.343750 0.531250
vt 0.343750 0.562500
vt 0.312500 0.562500
vt 0.656250 1.000000
vt 0.312500 1.000000
vt 0.312500 0.968750
vt 0.656250 0.968750
vt 0.656250 0.906250
vt 0.312500 0.906250
vt 0.312500 0.937500
vt 0.656250 0.937500
s 0
usemtl m_0098c135-3f62-c154-df47-74ca8aea188c
f 4/1/1 7/1/1 5/2/1 2/2/1
f 3/3/2 4/4/2 2/5/2 1/6/2
f 8/7/3 3/7/3 1/8/3 6/8/3
f 7/9/4 8/10/4 6/11/4 5/12/4
f 6/13/5 1/13/5 2/14/5 5/14/5
f 7/15/5 4/15/5 3/16/5 8/16/5
f 12/17/1 15/18/1 13/19/1 10/20/1
f 11/21/2 12/22/2 10/23/2 9/24/2
f 16/25/3 11/26/3 9/27/3 14/28/3
f 15/29/4 16/30/4 14/31/4 13/32/4
f 14/33/6 9/34/6 10/35/6 13/36/6
f 15/37/7 12/38/7 11/39/7 16/40/7
f 20/41/1 23/42/1 21/43/1 18/44/1
f 19/45/2 20/46/2 18/47/2 17/48/2
f 24/49/3 19/50/3 17/51/3 22/52/3
f 23/53/4 24/54/4 22/55/4 21/56/4
f 22/57/6 17/58/6 18/59/6 21/60/6
f 23/61/7 20/62/7 19/63/7 24/64/7
usemtl m_0098c135-3f62-c154-df47-74ca8aea188c.001
f 28/41/3 26/44/3 29/43/3 31/42/3
f 27/45/4 25/48/4 26/47/4 28/46/4
f 32/49/1 30/52/1 25/51/1 27/50/1
f 31/53/2 29/56/2 30/55/2 32/54/2
f 30/57/7 29/60/7 26/59/7 25/58/7
f 31/61/6 32/64/6 27/63/6 28/62/6
